{"glyphs":{"0":{"ha":582,"x_min":50,"x_max":532,"o":"m 292 892 q 423 851 371 892 q 503 710 475 810 q 532 438 532 611 q 503 165 532 265 q 423 25 475 65 q 292 -15 371 -15 q 159 25 211 -15 q 78 165 107 65 q 50 438 50 265 q 78 711 50 611 q 158 851 106 811 q 292 892 211 892 m 292 797 q 188 715 218 797 q 158 482 158 633 l 158 393 q 188 160 158 243 q 292 78 218 78 q 394 160 365 78 q 424 393 424 243 l 424 482 q 394 715 424 633 q 292 797 365 797 z "},"1":{"ha":582,"x_min":63,"x_max":568,"o":"m 568 0 l 64 0 l 64 94 l 272 94 l 272 717 l 63 717 l 63 783 q 197 815 118 789 q 335 875 276 840 l 376 875 l 376 94 l 568 94 l 568 0 z "},"2":{"ha":582,"x_min":49,"x_max":526,"o":"m 293 892 q 459 835 396 892 q 522 664 522 779 q 494 530 522 593 q 426 415 467 467 q 321 293 386 364 q 203 151 236 203 q 179 107 186 131 l 526 107 l 526 0 l 49 0 l 49 15 q 111 207 49 114 q 231 349 149 261 q 326 458 290 413 q 387 556 363 503 q 411 665 411 608 q 383 756 411 718 q 292 794 356 794 q 200 748 229 794 q 171 626 171 701 l 171 575 l 61 575 q 60 592 61 579 q 58 625 58 604 q 125 825 58 758 q 293 892 192 892 z "},"3":{"ha":582,"x_min":44,"x_max":532,"o":"m 288 892 q 453 828 392 892 q 515 651 515 765 q 485 531 515 578 q 401 456 456 485 l 401 449 q 497 374 461 428 q 532 236 532 319 q 465 53 532 121 q 292 -15 399 -15 q 109 55 174 -15 q 44 247 44 125 l 44 258 l 151 258 l 151 244 q 185 120 151 163 q 283 78 219 78 q 386 119 349 78 q 424 243 424 160 q 281 399 424 399 l 207 399 l 207 492 l 282 492 q 372 531 336 492 q 408 644 408 571 q 375 760 408 722 q 289 797 342 797 q 201 758 233 797 q 168 640 168 718 l 168 628 l 61 628 l 61 651 q 124 826 61 760 q 288 892 186 892 z "},"4":{"ha":582,"x_min":26,"x_max":557,"o":"m 358 892 q 292 664 336 783 q 199 448 247 544 q 124 310 151 351 l 364 310 l 364 585 q 392 663 382 626 q 418 761 403 699 l 468 761 l 468 310 l 557 310 l 557 215 l 468 215 l 468 0 l 364 0 l 364 215 l 26 215 l 26 311 q 156 592 96 439 q 253 892 217 744 l 358 892 z "},"5":{"ha":582,"x_min":50,"x_max":540,"o":"m 179 501 q 333 569 244 569 q 482 497 424 569 q 540 286 540 424 q 475 64 540 143 q 296 -15 410 -15 q 117 63 185 -15 q 50 272 50 140 l 158 272 q 198 130 158 183 q 296 76 238 76 q 394 130 357 76 q 432 286 432 183 q 397 425 432 375 q 304 475 363 475 q 230 448 264 475 q 175 374 196 421 l 75 392 l 104 875 l 503 875 l 503 768 l 194 768 l 179 501 z "},"6":{"ha":582,"x_min":50,"x_max":532,"o":"m 296 892 q 456 814 403 892 q 508 607 508 736 l 401 607 q 374 748 401 699 q 292 797 346 797 q 187 715 215 797 q 158 468 158 633 q 226 528 186 507 q 314 550 267 550 q 476 471 419 550 q 532 268 532 392 q 502 119 532 183 q 420 19 472 54 q 303 -15 368 -15 q 114 82 178 -15 q 50 413 50 179 q 112 783 50 675 q 296 892 174 892 m 296 458 q 201 405 233 458 q 168 268 168 351 q 201 131 168 185 q 296 78 233 78 q 392 131 360 78 q 424 268 424 185 q 392 405 424 351 q 296 458 360 458 z "},"7":{"ha":582,"x_min":42,"x_max":540,"o":"m 540 808 q 269 65 269 396 l 269 0 l 151 0 q 226 399 151 203 q 408 768 301 596 l 42 768 l 42 875 l 540 875 l 540 808 z "},"8":{"ha":582,"x_min":50,"x_max":532,"o":"m 292 892 q 455 822 397 892 q 513 647 513 753 q 488 533 513 585 q 418 449 464 481 q 532 240 532 393 q 472 56 532 128 q 292 -15 413 -15 q 110 56 169 -15 q 50 240 50 128 q 164 449 50 393 q 94 533 118 481 q 69 647 69 585 q 128 822 69 753 q 292 892 186 892 m 292 797 q 206 757 238 797 q 174 646 174 717 q 206 535 174 575 q 292 494 238 494 q 378 535 346 494 q 410 646 410 575 q 378 757 410 717 q 292 797 346 797 m 292 401 q 193 358 228 401 q 158 240 158 315 q 192 121 158 164 q 292 78 226 78 q 390 121 356 78 q 424 240 424 164 q 390 358 424 315 q 292 401 356 401 z "},"9":{"ha":582,"x_min":50,"x_max":532,"o":"m 281 892 q 468 794 404 892 q 532 464 532 696 q 472 93 532 201 q 292 -15 411 -15 q 127 63 181 -15 q 74 269 74 140 l 181 269 q 210 128 181 178 q 296 78 239 78 q 395 160 368 78 q 424 407 422 242 q 356 347 394 368 q 269 325 317 325 q 106 404 163 325 q 50 608 50 483 q 80 758 50 694 q 162 857 110 822 q 281 892 214 892 m 286 797 q 190 744 222 797 q 158 608 158 692 q 190 471 158 524 q 286 418 222 418 q 381 472 349 418 q 414 608 414 525 q 381 744 414 692 q 286 797 349 797 z "},"\r":{"ha":0,"x_min":0,"x_max":0,"o":""}," ":{"ha":292,"x_min":0,"x_max":0,"o":""},"A":{"ha":699,"x_min":-1,"x_max":699,"o":"m 578 0 l 518 194 l 171 194 l 111 0 l -1 0 l 278 875 l 422 875 l 699 0 l 578 0 m 342 785 q 334 740 340 774 q 322 688 328 706 l 203 297 l 486 297 l 368 688 q 356 740 363 706 q 347 785 349 774 l 342 785 z "},"Á":{"ha":699,"x_min":-1,"x_max":699,"o":"m 361 960 l 274 960 l 383 1128 l 499 1128 l 500 1124 l 361 960 m 578 0 l 518 194 l 171 194 l 111 0 l -1 0 l 278 875 l 422 875 l 699 0 l 578 0 m 342 785 q 334 740 340 774 q 322 688 328 706 l 203 297 l 486 297 l 368 688 q 356 740 363 706 q 347 785 349 774 l 342 785 z "},"Ă":{"ha":699,"x_min":-1,"x_max":699,"o":"m 507 1128 q 487 1070 507 1099 q 431 1023 467 1042 q 349 1004 394 1004 q 267 1023 303 1004 q 211 1070 231 1042 q 192 1128 192 1099 l 274 1128 q 299 1099 278 1113 q 349 1085 319 1085 q 401 1099 379 1085 q 425 1128 424 1113 l 507 1128 m 578 0 l 518 194 l 171 194 l 111 0 l -1 0 l 278 875 l 422 875 l 699 0 l 578 0 m 342 785 q 334 740 340 774 q 322 688 328 706 l 203 297 l 486 297 l 368 688 q 356 740 363 706 q 347 785 349 774 l 342 785 z "},"Â":{"ha":699,"x_min":-1,"x_max":699,"o":"m 406 953 l 350 1054 l 292 953 l 190 953 l 300 1126 l 400 1126 l 508 953 l 406 953 m 578 0 l 518 194 l 171 194 l 111 0 l -1 0 l 278 875 l 422 875 l 699 0 l 578 0 m 342 785 q 334 740 340 774 q 322 688 328 706 l 203 297 l 486 297 l 368 688 q 356 740 363 706 q 347 785 349 774 l 342 785 z "},"Ä":{"ha":699,"x_min":-1,"x_max":699,"o":"m 197 1007 l 197 1128 l 310 1128 l 310 1007 l 197 1007 m 390 1007 l 390 1128 l 501 1128 l 501 1007 l 390 1007 m 578 0 l 518 194 l 171 194 l 111 0 l -1 0 l 278 875 l 422 875 l 699 0 l 578 0 m 342 785 q 334 740 340 774 q 322 688 328 706 l 203 297 l 486 297 l 368 688 q 356 740 363 706 q 347 785 349 774 l 342 785 z "},"À":{"ha":699,"x_min":-1,"x_max":699,"o":"m 336 960 l 200 1124 l 201 1128 l 315 1128 l 425 960 l 336 960 m 578 0 l 518 194 l 171 194 l 111 0 l -1 0 l 278 875 l 422 875 l 699 0 l 578 0 m 342 785 q 334 740 340 774 q 322 688 328 706 l 203 297 l 486 297 l 368 688 q 356 740 363 706 q 347 785 349 774 l 342 785 z "},"Ā":{"ha":699,"x_min":-1,"x_max":699,"o":"m 189 969 l 189 1061 l 510 1061 l 510 969 l 189 969 m 578 0 l 518 194 l 171 194 l 111 0 l -1 0 l 278 875 l 422 875 l 699 0 l 578 0 m 342 785 q 334 740 340 774 q 322 688 328 706 l 203 297 l 486 297 l 368 688 q 356 740 363 706 q 347 785 349 774 l 342 785 z "},"Ą":{"ha":699,"x_min":-1,"x_max":767,"o":"m 767 -149 l 767 -215 q 689 -232 724 -232 q 605 -205 640 -232 q 569 -117 569 -178 q 582 -55 569 -79 q 619 0 594 -31 l 578 0 l 518 194 l 171 194 l 111 0 l -1 0 l 278 875 l 422 875 l 699 0 q 677 -39 685 -22 q 669 -79 669 -56 q 683 -129 669 -110 q 728 -149 697 -149 l 767 -149 m 486 297 l 368 688 q 356 740 363 706 q 347 785 349 774 l 342 785 q 334 740 340 774 q 322 688 328 706 l 203 297 l 486 297 z "},"Å":{"ha":699,"x_min":-1,"x_max":699,"o":"m 349 1168 q 436 1133 401 1168 q 471 1046 471 1097 q 435 959 471 994 q 349 924 400 924 q 262 959 299 924 q 225 1046 225 994 q 261 1133 225 1097 q 349 1168 297 1168 m 349 1111 q 303 1092 322 1111 q 283 1046 283 1072 q 303 1000 283 1019 q 349 981 322 981 q 394 1000 375 981 q 413 1046 413 1019 q 394 1092 413 1072 q 349 1111 375 1111 m 578 0 l 518 194 l 171 194 l 111 0 l -1 0 l 278 875 l 422 875 l 699 0 l 578 0 m 342 785 q 334 740 340 774 q 322 688 328 706 l 203 297 l 486 297 l 368 688 q 356 740 363 706 q 347 785 349 774 l 342 785 z "},"Ǻ":{"ha":699,"x_min":-1,"x_max":699,"o":"m 311 1083 l 401 1222 l 515 1222 l 517 1217 l 399 1083 l 311 1083 m 350 1049 q 437 1014 401 1049 q 472 931 472 979 q 432 842 472 878 l 699 0 l 578 0 l 518 194 l 171 194 l 111 0 l -1 0 l 267 843 q 238 883 249 860 q 226 931 226 906 q 263 1015 226 981 q 350 1049 299 1049 m 350 994 q 304 976 324 994 q 285 931 285 957 q 304 887 285 906 q 350 868 324 868 q 395 887 376 868 q 414 931 414 906 q 395 976 414 957 q 350 994 376 994 m 342 785 q 334 740 340 774 q 322 688 328 706 l 203 297 l 486 297 l 368 688 q 356 740 363 706 q 347 785 349 774 l 342 785 z "},"Ã":{"ha":699,"x_min":-1,"x_max":699,"o":"m 535 1128 q 508 1036 535 1076 q 426 996 481 996 q 349 1017 393 996 q 323 1026 344 1018 q 281 1035 301 1035 q 238 996 242 1035 l 161 996 q 189 1087 161 1046 q 269 1128 217 1128 q 347 1107 303 1128 q 375 1097 353 1106 q 418 1089 397 1089 q 461 1128 456 1089 l 535 1128 m 578 0 l 518 194 l 171 194 l 111 0 l -1 0 l 278 875 l 422 875 l 699 0 l 578 0 m 342 785 q 334 740 340 774 q 322 688 328 706 l 203 297 l 486 297 l 368 688 q 356 740 363 706 q 347 785 349 774 l 342 785 z "},"Æ":{"ha":1047,"x_min":-1,"x_max":1000,"o":"m 522 774 l 586 500 l 936 500 l 936 397 l 610 397 l 676 103 l 1000 103 l 1000 0 l 578 0 l 535 194 l 186 194 l 111 0 l -1 0 l 357 875 l 992 875 l 992 774 l 522 774 m 407 772 q 381 693 388 710 l 225 297 l 513 297 l 426 693 l 419 732 q 413 772 418 744 l 407 772 z "},"Ǽ":{"ha":1047,"x_min":-1,"x_max":1000,"o":"m 660 960 l 572 960 l 682 1128 l 797 1128 l 797 1124 l 660 960 m 522 774 l 586 500 l 936 500 l 936 397 l 610 397 l 676 103 l 1000 103 l 1000 0 l 578 0 l 535 194 l 186 194 l 111 0 l -1 0 l 357 875 l 992 875 l 992 774 l 522 774 m 407 772 q 381 693 388 710 l 225 297 l 513 297 l 426 693 l 419 732 q 413 772 418 744 l 407 772 z "},"B":{"ha":699,"x_min":82,"x_max":661,"o":"m 414 875 q 577 816 513 875 q 642 661 642 757 q 603 535 642 589 q 507 460 565 481 l 507 456 q 617 374 574 433 q 661 232 661 314 q 628 108 661 161 q 538 28 594 56 q 414 0 482 0 l 82 0 l 82 875 l 414 875 m 382 500 q 483 540 444 500 q 522 638 522 581 q 487 739 522 704 q 390 774 451 774 l 194 774 l 194 500 l 382 500 m 400 103 q 504 141 464 103 q 544 247 544 179 q 502 353 544 308 q 392 397 460 397 l 194 397 l 194 103 l 400 103 z "},"C":{"ha":756,"x_min":53,"x_max":703,"o":"m 399 892 q 620 807 538 892 q 703 558 703 722 l 589 558 q 538 729 589 671 q 399 788 486 788 q 227 708 283 788 q 171 469 171 629 l 171 406 q 227 167 171 246 q 399 88 283 88 q 540 145 489 88 q 592 314 592 203 l 703 314 q 621 67 703 150 q 399 -15 539 -15 q 140 98 228 -15 q 53 438 53 211 q 399 892 53 892 z "},"Ć":{"ha":756,"x_min":53,"x_max":703,"o":"m 408 960 l 321 960 l 431 1128 l 544 1128 l 546 1124 l 408 960 m 399 892 q 620 807 538 892 q 703 558 703 722 l 589 558 q 538 729 589 671 q 399 788 486 788 q 227 708 283 788 q 171 469 171 629 l 171 406 q 227 167 171 246 q 399 88 283 88 q 540 145 489 88 q 592 314 592 203 l 703 314 q 621 67 703 150 q 399 -15 539 -15 q 140 98 228 -15 q 53 438 53 211 q 399 892 53 892 z "},"Č":{"ha":756,"x_min":53,"x_max":703,"o":"m 218 1128 l 321 1128 l 378 1026 l 435 1128 l 538 1128 l 426 954 l 326 954 l 218 1128 m 399 892 q 620 807 538 892 q 703 558 703 722 l 589 558 q 538 729 589 671 q 399 788 486 788 q 227 708 283 788 q 171 469 171 629 l 171 406 q 227 167 171 246 q 399 88 283 88 q 540 145 489 88 q 592 314 592 203 l 703 314 q 621 67 703 150 q 399 -15 539 -15 q 140 98 228 -15 q 53 438 53 211 q 399 892 53 892 z "},"Ç":{"ha":756,"x_min":53,"x_max":703,"o":"m 399 892 q 620 807 538 892 q 703 558 703 722 l 589 558 q 538 729 589 671 q 399 788 486 788 q 227 708 283 788 q 171 469 171 629 l 171 406 q 227 167 171 246 q 399 88 283 88 q 540 145 489 88 q 592 314 592 203 l 703 314 q 621 67 703 150 q 399 -15 539 -15 l 394 -46 q 469 -69 440 -49 q 499 -129 499 -89 q 458 -209 499 -186 q 365 -232 418 -232 q 258 -222 311 -232 l 258 -160 l 356 -160 q 401 -129 401 -160 q 392 -106 401 -112 q 358 -99 382 -99 l 315 -99 l 329 -10 q 122 122 192 10 q 53 438 53 235 q 399 892 53 892 z "},"Ĉ":{"ha":756,"x_min":53,"x_max":703,"o":"m 381 1054 l 321 953 l 218 953 l 328 1126 l 428 1126 l 538 953 l 435 953 l 381 1054 m 399 892 q 620 807 538 892 q 703 558 703 722 l 589 558 q 538 729 589 671 q 399 788 486 788 q 227 708 283 788 q 171 469 171 629 l 171 406 q 227 167 171 246 q 399 88 283 88 q 540 145 489 88 q 592 314 592 203 l 703 314 q 621 67 703 150 q 399 -15 539 -15 q 140 98 228 -15 q 53 438 53 211 q 399 892 53 892 z "},"Ċ":{"ha":756,"x_min":53,"x_max":703,"o":"m 322 1128 l 435 1128 l 435 1007 l 322 1007 l 322 1128 m 399 892 q 620 807 538 892 q 703 558 703 722 l 589 558 q 538 729 589 671 q 399 788 486 788 q 227 708 283 788 q 171 469 171 629 l 171 406 q 227 167 171 246 q 399 88 283 88 q 540 145 489 88 q 592 314 592 203 l 703 314 q 621 67 703 150 q 399 -15 539 -15 q 140 98 228 -15 q 53 438 53 211 q 399 892 53 892 z "},"D":{"ha":756,"x_min":89,"x_max":693,"o":"m 361 875 q 606 767 519 875 q 693 450 693 658 q 606 115 693 229 q 361 0 519 0 l 89 0 l 89 875 l 361 875 m 351 103 q 517 183 458 103 q 576 419 576 263 l 576 482 q 517 700 576 626 q 351 774 458 774 l 203 774 l 203 103 l 351 103 z "},"Ð":{"ha":756,"x_min":6,"x_max":693,"o":"m 89 875 l 361 875 q 606 767 519 875 q 693 450 693 658 q 606 115 693 229 q 361 0 519 0 l 89 0 l 89 413 l 6 413 l 6 494 l 89 494 l 89 875 m 401 494 l 401 413 l 203 413 l 203 103 l 351 103 q 517 183 458 103 q 576 419 576 263 l 576 482 q 517 700 576 626 q 351 774 458 774 l 203 774 l 203 494 l 401 494 z "},"Ď":{"ha":756,"x_min":89,"x_max":693,"o":"m 218 1128 l 321 1128 l 378 1026 l 435 1128 l 538 1128 l 426 954 l 326 954 l 218 1128 m 361 875 q 606 767 519 875 q 693 450 693 658 q 606 115 693 229 q 361 0 519 0 l 89 0 l 89 875 l 361 875 m 351 103 q 517 183 458 103 q 576 419 576 263 l 576 482 q 517 700 576 626 q 351 774 458 774 l 203 774 l 203 103 l 351 103 z "},"Đ":{"ha":756,"x_min":6,"x_max":693,"o":"m 89 875 l 361 875 q 606 767 519 875 q 693 450 693 658 q 606 115 693 229 q 361 0 519 0 l 89 0 l 89 413 l 6 413 l 6 494 l 89 494 l 89 875 m 401 494 l 401 413 l 203 413 l 203 103 l 351 103 q 517 183 458 103 q 576 419 576 263 l 576 482 q 517 700 576 626 q 351 774 458 774 l 203 774 l 203 494 l 401 494 z "},"E":{"ha":699,"x_min":89,"x_max":638,"o":"m 629 875 l 629 774 l 203 774 l 203 500 l 574 500 l 574 397 l 203 397 l 203 103 l 638 103 l 638 0 l 89 0 l 89 875 l 629 875 z "},"É":{"ha":699,"x_min":89,"x_max":638,"o":"m 361 960 l 274 960 l 383 1128 l 499 1128 l 500 1124 l 361 960 m 203 774 l 203 500 l 574 500 l 574 397 l 203 397 l 203 103 l 638 103 l 638 0 l 89 0 l 89 875 l 629 875 l 629 774 l 203 774 z "},"Ĕ":{"ha":699,"x_min":89,"x_max":638,"o":"m 507 1128 q 487 1070 507 1099 q 431 1023 467 1042 q 349 1004 394 1004 q 267 1023 303 1004 q 211 1070 231 1042 q 192 1128 192 1099 l 274 1128 q 299 1099 278 1113 q 349 1085 319 1085 q 401 1099 379 1085 q 425 1128 424 1113 l 507 1128 m 629 875 l 629 774 l 203 774 l 203 500 l 574 500 l 574 397 l 203 397 l 203 103 l 638 103 l 638 0 l 89 0 l 89 875 l 629 875 z "},"Ě":{"ha":699,"x_min":89,"x_max":638,"o":"m 190 1128 l 292 1128 l 349 1026 l 406 1128 l 508 1128 l 399 954 l 299 954 l 190 1128 m 629 875 l 629 774 l 203 774 l 203 500 l 574 500 l 574 397 l 203 397 l 203 103 l 638 103 l 638 0 l 89 0 l 89 875 l 629 875 z "},"Ê":{"ha":699,"x_min":89,"x_max":638,"o":"m 350 1054 l 292 953 l 190 953 l 300 1126 l 400 1126 l 508 953 l 406 953 l 350 1054 m 629 875 l 629 774 l 203 774 l 203 500 l 574 500 l 574 397 l 203 397 l 203 103 l 638 103 l 638 0 l 89 0 l 89 875 l 629 875 z "},"Ë":{"ha":699,"x_min":89,"x_max":638,"o":"m 197 1007 l 197 1128 l 310 1128 l 310 1007 l 197 1007 m 390 1007 l 390 1128 l 501 1128 l 501 1007 l 390 1007 m 203 774 l 203 500 l 574 500 l 574 397 l 203 397 l 203 103 l 638 103 l 638 0 l 89 0 l 89 875 l 629 875 l 629 774 l 203 774 z "},"Ė":{"ha":699,"x_min":89,"x_max":638,"o":"m 293 1128 l 404 1128 l 404 1007 l 293 1007 l 293 1128 m 629 875 l 629 774 l 203 774 l 203 500 l 574 500 l 574 397 l 203 397 l 203 103 l 638 103 l 638 0 l 89 0 l 89 875 l 629 875 z "},"È":{"ha":699,"x_min":89,"x_max":638,"o":"m 336 960 l 200 1124 l 201 1128 l 315 1128 l 425 960 l 336 960 m 203 774 l 203 500 l 574 500 l 574 397 l 203 397 l 203 103 l 638 103 l 638 0 l 89 0 l 89 875 l 629 875 l 629 774 l 203 774 z "},"Ē":{"ha":699,"x_min":89,"x_max":638,"o":"m 189 1061 l 510 1061 l 510 969 l 189 969 l 189 1061 m 629 875 l 629 774 l 203 774 l 203 500 l 574 500 l 574 397 l 203 397 l 203 103 l 638 103 l 638 0 l 89 0 l 89 875 l 629 875 z "},"Ę":{"ha":699,"x_min":89,"x_max":706,"o":"m 203 500 l 574 500 l 574 397 l 203 397 l 203 103 l 638 103 l 638 0 q 607 -79 607 -39 q 621 -129 607 -110 q 665 -149 635 -149 l 706 -149 l 706 -215 q 626 -232 658 -232 q 542 -205 578 -232 q 507 -117 507 -178 q 519 -53 507 -81 q 554 0 532 -25 l 89 0 l 89 875 l 629 875 l 629 774 l 203 774 l 203 500 z "},"F":{"ha":640,"x_min":89,"x_max":594,"o":"m 594 875 l 594 774 l 203 774 l 203 490 l 549 490 l 549 389 l 203 389 l 203 0 l 89 0 l 89 875 l 594 875 z "},"G":{"ha":815,"x_min":63,"x_max":732,"o":"m 390 457 l 732 457 l 732 0 l 657 0 l 633 97 q 407 -15 558 -15 q 151 99 239 -15 q 63 438 63 213 q 154 777 63 663 q 413 892 246 892 q 644 811 557 892 q 732 578 732 731 l 617 578 q 563 735 617 683 q 413 788 508 788 q 242 707 303 788 q 181 469 181 626 l 181 406 q 238 167 181 246 q 407 88 296 88 q 566 149 515 88 q 617 336 617 211 l 617 358 l 390 358 l 390 457 z "},"Ğ":{"ha":815,"x_min":63,"x_max":732,"o":"m 407 1004 q 325 1023 361 1004 q 269 1070 289 1042 q 250 1128 250 1099 l 332 1128 q 356 1099 335 1113 q 407 1085 378 1085 q 459 1099 438 1085 q 483 1128 481 1113 l 567 1128 q 547 1070 567 1099 q 490 1023 526 1042 q 407 1004 454 1004 m 390 457 l 732 457 l 732 0 l 657 0 l 633 97 q 407 -15 558 -15 q 151 99 239 -15 q 63 438 63 213 q 154 777 63 663 q 413 892 246 892 q 644 811 557 892 q 732 578 732 731 l 617 578 q 563 735 617 683 q 413 788 508 788 q 242 707 303 788 q 181 469 181 626 l 181 406 q 238 167 181 246 q 407 88 296 88 q 566 149 515 88 q 617 336 617 211 l 617 358 l 390 358 l 390 457 z "},"Ĝ":{"ha":815,"x_min":63,"x_max":732,"o":"m 351 953 l 249 953 l 358 1126 l 458 1126 l 567 953 l 465 953 l 408 1054 l 351 953 m 390 457 l 732 457 l 732 0 l 657 0 l 633 97 q 407 -15 558 -15 q 151 99 239 -15 q 63 438 63 213 q 154 777 63 663 q 413 892 246 892 q 644 811 557 892 q 732 578 732 731 l 617 578 q 563 735 617 683 q 413 788 508 788 q 242 707 303 788 q 181 469 181 626 l 181 406 q 238 167 181 246 q 407 88 296 88 q 566 149 515 88 q 617 336 617 211 l 617 358 l 390 358 l 390 457 z "},"Ģ":{"ha":815,"x_min":63,"x_max":732,"o":"m 390 457 l 732 457 l 732 0 l 657 0 l 633 97 q 407 -15 558 -15 q 151 99 239 -15 q 63 438 63 213 q 154 777 63 663 q 413 892 246 892 q 644 811 557 892 q 732 578 732 731 l 617 578 q 563 735 617 683 q 413 788 508 788 q 242 707 303 788 q 181 469 181 626 l 181 406 q 238 167 181 246 q 407 88 296 88 q 566 149 515 88 q 617 336 617 211 l 617 358 l 390 358 l 390 457 m 354 -76 l 463 -76 l 463 -183 l 425 -283 l 368 -283 l 397 -192 l 354 -192 l 354 -76 z "},"Ġ":{"ha":815,"x_min":63,"x_max":732,"o":"m 464 1007 l 353 1007 l 353 1128 l 464 1128 l 464 1007 m 390 457 l 732 457 l 732 0 l 657 0 l 633 97 q 407 -15 558 -15 q 151 99 239 -15 q 63 438 63 213 q 154 777 63 663 q 413 892 246 892 q 644 811 557 892 q 732 578 732 731 l 617 578 q 563 735 617 683 q 413 788 508 788 q 242 707 303 788 q 181 469 181 626 l 181 406 q 238 167 181 246 q 407 88 296 88 q 566 149 515 88 q 617 336 617 211 l 617 358 l 390 358 l 390 457 z "},"H":{"ha":756,"x_min":89,"x_max":665,"o":"m 554 0 l 554 397 l 203 397 l 203 0 l 89 0 l 89 875 l 203 875 l 203 500 l 554 500 l 554 875 l 665 875 l 665 0 l 554 0 z "},"Ħ":{"ha":756,"x_min":26,"x_max":731,"o":"m 665 0 l 554 0 l 554 392 l 203 392 l 203 0 l 89 0 l 89 625 l 26 625 l 26 718 l 89 718 l 89 875 l 203 875 l 203 718 l 554 718 l 554 875 l 665 875 l 665 718 l 731 718 l 731 625 l 665 625 l 665 0 m 203 625 l 203 493 l 554 493 l 554 625 l 203 625 z "},"Ĥ":{"ha":756,"x_min":89,"x_max":665,"o":"m 435 953 l 381 1054 l 321 953 l 218 953 l 328 1126 l 428 1126 l 538 953 l 435 953 m 554 0 l 554 397 l 203 397 l 203 0 l 89 0 l 89 875 l 203 875 l 203 500 l 554 500 l 554 875 l 665 875 l 665 0 l 554 0 z "},"I":{"ha":292,"x_min":89,"x_max":203,"o":"m 89 875 l 203 875 l 203 0 l 89 0 l 89 875 z "},"Ĳ":{"ha":815,"x_min":89,"x_max":732,"o":"m 89 0 l 89 875 l 203 875 l 203 0 l 89 0 m 732 208 q 676 42 732 100 q 519 -15 621 -15 q 363 42 418 -15 q 308 208 308 100 l 308 265 l 421 265 l 421 203 q 447 117 421 147 q 519 88 472 88 q 594 117 568 88 q 619 203 619 147 l 619 875 l 732 875 l 732 208 z "},"Í":{"ha":292,"x_min":71,"x_max":294,"o":"m 158 960 l 71 960 l 181 1128 l 293 1128 l 294 1124 l 158 960 m 89 0 l 89 875 l 203 875 l 203 0 l 89 0 z "},"Ĭ":{"ha":292,"x_min":-12,"x_max":303,"o":"m 303 1128 q 283 1070 303 1099 q 228 1023 264 1042 q 146 1004 193 1004 q 64 1023 100 1004 q 8 1070 28 1042 q -12 1128 -12 1099 l 71 1128 q 95 1099 74 1113 q 146 1085 117 1085 q 198 1099 176 1085 q 222 1128 219 1113 l 303 1128 m 89 875 l 203 875 l 203 0 l 89 0 l 89 875 z "},"Î":{"ha":292,"x_min":-14,"x_max":304,"o":"m 147 1054 l 89 953 l -14 953 l 97 1126 l 196 1126 l 304 953 l 204 953 l 147 1054 m 89 875 l 203 875 l 203 0 l 89 0 l 89 875 z "},"Ï":{"ha":292,"x_min":-6,"x_max":297,"o":"m -6 1007 l -6 1128 l 106 1128 l 106 1007 l -6 1007 m 186 1007 l 186 1128 l 297 1128 l 297 1007 l 186 1007 m 89 0 l 89 875 l 203 875 l 203 0 l 89 0 z "},"İ":{"ha":292,"x_min":89,"x_max":203,"o":"m 92 1128 l 203 1128 l 203 1007 l 92 1007 l 92 1128 m 89 875 l 203 875 l 203 0 l 89 0 l 89 875 z "},"Ì":{"ha":292,"x_min":-4,"x_max":222,"o":"m 135 960 l -4 1124 l -3 1128 l 113 1128 l 222 960 l 135 960 m 89 0 l 89 875 l 203 875 l 203 0 l 89 0 z "},"Ī":{"ha":292,"x_min":-14,"x_max":306,"o":"m -14 1061 l 306 1061 l 306 969 l -14 969 l -14 1061 m 89 875 l 203 875 l 203 0 l 89 0 l 89 875 z "},"Į":{"ha":292,"x_min":72,"x_max":269,"o":"m 203 0 q 179 -39 188 -22 q 171 -79 171 -56 q 185 -128 171 -108 q 229 -149 200 -149 l 269 -149 l 269 -215 q 192 -232 226 -232 q 108 -205 143 -232 q 72 -117 72 -178 q 84 -52 72 -79 q 118 0 96 -25 l 89 0 l 89 875 l 203 875 l 203 0 z "},"Ĩ":{"ha":292,"x_min":-40,"x_max":332,"o":"m 332 1128 q 304 1037 332 1078 q 224 996 276 996 q 189 1001 206 996 q 149 1015 172 1006 q 76 1035 101 1035 q 33 996 39 1035 l -40 996 q -12 1087 -40 1046 q 68 1128 15 1128 q 144 1108 97 1128 q 181 1095 163 1101 q 215 1089 199 1089 q 258 1128 253 1089 l 332 1128 m 89 875 l 203 875 l 203 0 l 89 0 l 89 875 z "},"J":{"ha":522,"x_min":15,"x_max":440,"o":"m 440 208 q 385 42 440 100 q 228 -15 329 -15 q 71 42 126 -15 q 15 208 15 100 l 15 265 l 129 265 l 129 203 q 155 117 129 147 q 228 88 181 88 q 302 117 276 88 q 328 203 328 147 l 328 875 l 440 875 l 440 208 z "},"Ĵ":{"ha":522,"x_min":15,"x_max":544,"o":"m 443 953 l 388 1054 l 328 953 l 225 953 l 335 1126 l 435 1126 l 544 953 l 443 953 m 440 208 q 385 42 440 100 q 228 -15 329 -15 q 71 42 126 -15 q 15 208 15 100 l 15 265 l 129 265 l 129 203 q 155 117 129 147 q 228 88 181 88 q 302 117 276 88 q 328 203 328 147 l 328 875 l 440 875 l 440 208 z "},"K":{"ha":699,"x_min":89,"x_max":683,"o":"m 675 875 l 411 522 l 683 0 l 556 0 l 342 428 l 203 272 l 203 0 l 89 0 l 89 875 l 203 875 l 203 413 l 549 875 l 675 875 z "},"Ķ":{"ha":699,"x_min":89,"x_max":683,"o":"m 675 875 l 411 522 l 683 0 l 556 0 l 342 428 l 203 272 l 203 0 l 89 0 l 89 875 l 203 875 l 203 413 l 549 875 l 675 875 m 311 -283 l 338 -192 l 294 -192 l 294 -76 l 403 -76 l 403 -183 l 367 -283 l 311 -283 z "},"L":{"ha":582,"x_min":89,"x_max":558,"o":"m 558 103 l 558 0 l 89 0 l 89 875 l 203 875 l 203 103 l 558 103 z "},"Ĺ":{"ha":582,"x_min":65,"x_max":558,"o":"m 154 960 l 65 960 l 175 1128 l 290 1128 l 292 1124 l 154 960 m 558 103 l 558 0 l 89 0 l 89 875 l 203 875 l 203 103 l 558 103 z "},"Ľ":{"ha":582,"x_min":89,"x_max":558,"o":"m 558 103 l 558 0 l 89 0 l 89 875 l 203 875 l 203 103 l 558 103 m 474 579 l 407 579 l 458 738 l 407 738 l 407 875 l 535 875 l 535 750 l 474 579 z "},"Ļ":{"ha":582,"x_min":89,"x_max":558,"o":"m 558 103 l 558 0 l 89 0 l 89 875 l 203 875 l 203 103 l 558 103 m 310 -283 l 251 -283 l 281 -192 l 238 -192 l 238 -76 l 347 -76 l 347 -183 l 310 -283 z "},"Ŀ":{"ha":582,"x_min":89,"x_max":558,"o":"m 558 103 l 558 0 l 89 0 l 89 875 l 203 875 l 203 103 l 558 103 m 376 529 l 376 671 l 506 671 l 506 529 l 376 529 z "},"Ł":{"ha":582,"x_min":0,"x_max":558,"o":"m 376 660 l 376 567 l 203 413 l 203 103 l 558 103 l 558 0 l 89 0 l 89 314 l 0 236 l 0 325 l 89 404 l 89 875 l 203 875 l 203 504 l 376 660 z "},"M":{"ha":872,"x_min":79,"x_max":793,"o":"m 681 0 l 681 636 q 685 712 682 669 q 689 771 688 754 l 685 771 l 676 735 q 667 692 674 722 q 654 636 661 661 l 479 0 l 381 0 l 204 636 q 185 731 196 667 l 178 771 l 172 771 q 176 710 174 753 q 181 636 179 668 l 181 0 l 79 0 l 79 875 l 250 875 l 404 301 q 424 194 415 261 q 435 104 433 126 l 439 104 q 449 195 440 126 q 468 301 457 264 l 622 875 l 793 875 l 793 0 l 681 0 z "},"N":{"ha":756,"x_min":89,"x_max":665,"o":"m 574 0 l 246 557 q 213 622 232 581 q 189 676 194 663 l 185 675 q 188 626 186 661 q 190 557 190 590 l 190 0 l 89 0 l 89 875 l 186 875 l 511 325 q 542 263 524 304 q 567 208 561 222 l 569 210 l 567 325 l 567 875 l 665 875 l 665 0 l 574 0 z "},"Ń":{"ha":756,"x_min":89,"x_max":665,"o":"m 392 960 l 301 960 l 411 1128 l 526 1128 l 528 1124 l 392 960 m 574 0 l 246 557 q 213 622 232 581 q 189 676 194 663 l 185 675 q 188 626 186 661 q 190 557 190 590 l 190 0 l 89 0 l 89 875 l 186 875 l 511 325 q 542 263 524 304 q 567 208 561 222 l 569 210 l 567 325 l 567 875 l 665 875 l 665 0 l 574 0 z "},"Ň":{"ha":756,"x_min":89,"x_max":665,"o":"m 326 954 l 218 1128 l 321 1128 l 378 1026 l 435 1128 l 538 1128 l 426 954 l 326 954 m 574 0 l 246 557 q 213 622 232 581 q 189 676 194 663 l 185 675 q 188 626 186 661 q 190 557 190 590 l 190 0 l 89 0 l 89 875 l 186 875 l 511 325 q 542 263 524 304 q 567 208 561 222 l 569 210 l 567 325 l 567 875 l 665 875 l 665 0 l 574 0 z "},"Ņ":{"ha":756,"x_min":89,"x_max":665,"o":"m 574 0 l 246 557 q 213 622 232 581 q 189 676 194 663 l 185 675 q 188 626 186 661 q 190 557 190 590 l 190 0 l 89 0 l 89 875 l 186 875 l 511 325 q 542 263 524 304 q 567 208 561 222 l 569 210 l 567 325 l 567 875 l 665 875 l 665 0 l 574 0 m 396 -283 l 338 -283 l 368 -192 l 324 -192 l 324 -76 l 433 -76 l 433 -183 l 396 -283 z "},"Ŋ":{"ha":756,"x_min":89,"x_max":665,"o":"m 665 -78 q 635 -188 665 -144 q 535 -232 604 -232 q 446 -217 486 -232 l 446 -144 l 501 -144 q 563 -82 563 -144 l 563 19 l 246 557 q 213 622 232 581 q 189 676 194 663 l 185 675 q 188 626 186 661 q 190 557 190 590 l 190 0 l 89 0 l 89 875 l 186 875 l 511 325 q 542 263 524 304 q 567 208 561 222 l 569 210 l 567 325 l 563 875 l 665 875 l 665 -78 z "},"Ñ":{"ha":756,"x_min":89,"x_max":665,"o":"m 565 1128 q 538 1037 565 1078 q 457 996 510 996 q 420 1001 438 996 q 378 1017 403 1007 q 310 1035 333 1035 q 265 996 271 1035 l 192 996 q 219 1087 192 1046 q 300 1128 247 1128 q 378 1107 333 1128 q 403 1097 382 1106 q 446 1089 425 1089 q 476 1097 465 1089 q 490 1128 488 1106 l 565 1128 m 574 0 l 246 557 q 213 622 232 581 q 189 676 194 663 l 185 675 q 188 626 186 661 q 190 557 190 590 l 190 0 l 89 0 l 89 875 l 186 875 l 511 325 q 542 263 524 304 q 567 208 561 222 l 569 210 l 567 325 l 567 875 l 665 875 l 665 0 l 574 0 z "},"O":{"ha":815,"x_min":63,"x_max":753,"o":"m 407 892 q 663 777 572 892 q 753 438 753 663 q 662 99 753 214 q 407 -15 571 -15 q 153 99 243 -15 q 63 438 63 214 q 153 777 63 663 q 407 892 243 892 m 407 788 q 240 707 300 788 q 181 469 181 626 l 181 406 q 240 168 181 249 q 407 88 300 88 q 574 168 514 88 q 635 406 635 249 l 635 469 q 574 707 635 626 q 407 788 514 788 z "},"Ó":{"ha":815,"x_min":63,"x_max":753,"o":"m 421 960 l 332 960 l 442 1128 l 556 1128 l 557 1124 l 421 960 m 407 892 q 663 777 572 892 q 753 438 753 663 q 662 99 753 214 q 407 -15 571 -15 q 153 99 243 -15 q 63 438 63 214 q 153 777 63 663 q 407 892 243 892 m 407 788 q 240 707 300 788 q 181 469 181 626 l 181 406 q 240 168 181 249 q 407 88 300 88 q 574 168 514 88 q 635 406 635 249 l 635 469 q 574 707 635 626 q 407 788 514 788 z "},"Ŏ":{"ha":815,"x_min":63,"x_max":753,"o":"m 567 1128 q 547 1070 567 1099 q 490 1023 526 1042 q 407 1004 454 1004 q 325 1023 361 1004 q 269 1070 289 1042 q 250 1128 250 1099 l 332 1128 q 356 1099 335 1113 q 407 1085 378 1085 q 459 1099 438 1085 q 483 1128 481 1113 l 567 1128 m 407 892 q 663 777 572 892 q 753 438 753 663 q 662 99 753 214 q 407 -15 571 -15 q 153 99 243 -15 q 63 438 63 214 q 153 777 63 663 q 407 892 243 892 m 407 788 q 240 707 300 788 q 181 469 181 626 l 181 406 q 240 168 181 249 q 407 88 300 88 q 574 168 514 88 q 635 406 635 249 l 635 469 q 574 707 635 626 q 407 788 514 788 z "},"Ô":{"ha":815,"x_min":63,"x_max":753,"o":"m 408 1054 l 351 953 l 249 953 l 358 1126 l 458 1126 l 567 953 l 465 953 l 408 1054 m 407 892 q 663 777 572 892 q 753 438 753 663 q 662 99 753 214 q 407 -15 571 -15 q 153 99 243 -15 q 63 438 63 214 q 153 777 63 663 q 407 892 243 892 m 407 788 q 240 707 300 788 q 181 469 181 626 l 181 406 q 240 168 181 249 q 407 88 300 88 q 574 168 514 88 q 635 406 635 249 l 635 469 q 574 707 635 626 q 407 788 514 788 z "},"Ö":{"ha":815,"x_min":63,"x_max":753,"o":"m 257 1007 l 257 1128 l 368 1128 l 368 1007 l 257 1007 m 447 1007 l 447 1128 l 558 1128 l 558 1007 l 447 1007 m 407 892 q 663 777 572 892 q 753 438 753 663 q 662 99 753 214 q 407 -15 571 -15 q 153 99 243 -15 q 63 438 63 214 q 153 777 63 663 q 407 892 243 892 m 407 788 q 240 707 300 788 q 181 469 181 626 l 181 406 q 240 168 181 249 q 407 88 300 88 q 574 168 514 88 q 635 406 635 249 l 635 469 q 574 707 635 626 q 407 788 514 788 z "},"Ò":{"ha":815,"x_min":63,"x_max":753,"o":"m 396 960 l 258 1124 l 258 1128 l 374 1128 l 483 960 l 396 960 m 407 892 q 663 777 572 892 q 753 438 753 663 q 662 99 753 214 q 407 -15 571 -15 q 153 99 243 -15 q 63 438 63 214 q 153 777 63 663 q 407 892 243 892 m 407 788 q 240 707 300 788 q 181 469 181 626 l 181 406 q 240 168 181 249 q 407 88 300 88 q 574 168 514 88 q 635 406 635 249 l 635 469 q 574 707 635 626 q 407 788 514 788 z "},"Ő":{"ha":815,"x_min":63,"x_max":753,"o":"m 372 960 l 286 960 l 365 1128 l 478 1128 l 479 1124 l 372 960 m 540 960 l 453 960 l 532 1128 l 646 1128 l 647 1124 l 540 960 m 407 892 q 663 777 572 892 q 753 438 753 663 q 662 99 753 214 q 407 -15 571 -15 q 153 99 243 -15 q 63 438 63 214 q 153 777 63 663 q 407 892 243 892 m 407 788 q 240 707 300 788 q 181 469 181 626 l 181 406 q 240 168 181 249 q 407 88 300 88 q 574 168 514 88 q 635 406 635 249 l 635 469 q 574 707 635 626 q 407 788 514 788 z "},"Ō":{"ha":815,"x_min":63,"x_max":753,"o":"m 247 1061 l 568 1061 l 568 969 l 247 969 l 247 1061 m 407 892 q 663 777 572 892 q 753 438 753 663 q 662 99 753 214 q 407 -15 571 -15 q 153 99 243 -15 q 63 438 63 214 q 153 777 63 663 q 407 892 243 892 m 407 788 q 240 707 300 788 q 181 469 181 626 l 181 406 q 240 168 181 249 q 407 88 300 88 q 574 168 514 88 q 635 406 635 249 l 635 469 q 574 707 635 626 q 407 788 514 788 z "},"Ø":{"ha":815,"x_min":63,"x_max":753,"o":"m 660 778 q 753 438 753 658 q 662 99 753 214 q 407 -15 571 -15 q 204 47 286 -15 l 146 -47 l 64 -47 l 154 97 q 63 438 63 213 q 153 777 63 663 q 407 892 243 892 q 611 828 526 892 l 671 924 l 753 924 l 660 778 m 407 788 q 240 707 300 788 q 181 469 181 626 l 181 406 q 219 203 181 276 l 551 732 q 407 788 494 788 m 263 142 q 407 88 319 88 q 574 168 514 88 q 635 406 635 249 l 635 469 q 594 674 635 596 l 263 142 z "},"Ǿ":{"ha":815,"x_min":63,"x_max":753,"o":"m 421 960 l 332 960 l 442 1128 l 556 1128 l 557 1124 l 421 960 m 660 778 q 753 438 753 658 q 662 99 753 214 q 407 -15 571 -15 q 204 47 286 -15 l 146 -47 l 64 -47 l 154 97 q 63 438 63 213 q 153 777 63 663 q 407 892 243 892 q 611 828 526 892 l 671 924 l 753 924 l 660 778 m 407 788 q 240 707 300 788 q 181 469 181 626 l 181 406 q 219 203 181 276 l 551 732 q 407 788 494 788 m 263 142 q 407 88 319 88 q 574 168 514 88 q 635 406 635 249 l 635 469 q 594 674 635 596 l 263 142 z "},"Õ":{"ha":815,"x_min":63,"x_max":753,"o":"m 593 1128 q 566 1036 593 1076 q 485 996 539 996 q 450 1001 467 996 q 410 1015 433 1006 q 338 1035 363 1035 q 294 996 300 1035 l 221 996 q 249 1087 221 1046 q 329 1128 276 1128 q 366 1122 349 1128 q 407 1107 383 1117 q 433 1097 411 1106 q 476 1089 454 1089 q 506 1097 496 1089 q 519 1128 517 1106 l 593 1128 m 407 892 q 663 777 572 892 q 753 438 753 663 q 662 99 753 214 q 407 -15 571 -15 q 153 99 243 -15 q 63 438 63 214 q 153 777 63 663 q 407 892 243 892 m 407 788 q 240 707 300 788 q 181 469 181 626 l 181 406 q 240 168 181 249 q 407 88 300 88 q 574 168 514 88 q 635 406 635 249 l 635 469 q 574 707 635 626 q 407 788 514 788 z "},"Œ":{"ha":1047,"x_min":63,"x_max":1001,"o":"m 349 892 q 543 789 472 892 l 543 875 l 994 875 l 994 774 l 654 774 l 654 500 l 936 500 l 936 397 l 654 397 l 654 103 l 1001 103 l 1001 0 l 543 0 l 543 86 q 349 -15 474 -15 q 138 99 213 -15 q 63 438 63 214 q 137 777 63 663 q 349 892 211 892 m 361 788 q 228 707 275 788 q 181 469 181 626 l 181 406 q 228 168 181 249 q 361 88 275 88 q 495 168 447 88 q 543 406 543 249 l 543 469 q 495 707 543 626 q 361 788 447 788 z "},"P":{"ha":699,"x_min":89,"x_max":664,"o":"m 89 0 l 89 875 l 401 875 q 597 806 529 875 q 664 621 664 738 q 593 433 664 504 q 401 361 522 361 l 203 361 l 203 0 l 89 0 m 399 464 q 506 507 467 464 q 546 621 546 550 q 508 733 546 693 q 399 774 469 774 l 203 774 l 203 464 l 399 464 z "},"Þ":{"ha":699,"x_min":89,"x_max":664,"o":"m 401 701 q 597 633 529 701 q 664 446 664 564 q 594 258 664 329 q 401 188 524 188 l 203 188 l 203 0 l 89 0 l 89 875 l 203 875 l 203 701 l 401 701 m 203 290 l 399 290 q 506 333 465 290 q 546 446 546 375 q 508 559 546 518 q 399 600 469 600 l 203 600 l 203 290 z "},"Q":{"ha":815,"x_min":63,"x_max":753,"o":"m 63 438 q 153 777 63 663 q 407 892 243 892 q 663 777 572 892 q 753 438 753 663 q 699 158 753 267 q 544 8 644 50 l 725 -158 l 575 -158 l 424 -15 l 407 -15 q 153 99 243 -15 q 63 438 63 214 m 181 406 q 240 168 181 249 q 407 88 300 88 q 574 168 514 88 q 635 406 635 249 l 635 469 q 574 707 635 626 q 407 788 514 788 q 240 707 300 788 q 181 469 181 626 l 181 406 z "},"R":{"ha":756,"x_min":89,"x_max":724,"o":"m 442 875 q 635 810 568 875 q 703 633 703 744 q 662 492 703 551 q 547 407 621 432 l 724 0 l 600 0 l 436 388 l 203 388 l 203 0 l 89 0 l 89 875 l 442 875 m 203 490 l 438 490 q 546 529 506 490 q 586 633 586 568 q 548 737 586 700 q 438 774 510 774 l 203 774 l 203 490 z "},"Ŕ":{"ha":756,"x_min":89,"x_max":724,"o":"m 363 960 l 274 960 l 383 1128 l 499 1128 l 500 1124 l 363 960 m 442 875 q 635 810 568 875 q 703 633 703 744 q 662 492 703 551 q 547 407 621 432 l 724 0 l 600 0 l 436 388 l 203 388 l 203 0 l 89 0 l 89 875 l 442 875 m 203 490 l 438 490 q 546 529 506 490 q 586 633 586 568 q 548 737 586 700 q 438 774 510 774 l 203 774 l 203 490 z "},"Ř":{"ha":756,"x_min":89,"x_max":724,"o":"m 326 954 l 218 1128 l 321 1128 l 378 1026 l 435 1128 l 538 1128 l 426 954 l 326 954 m 442 875 q 635 810 568 875 q 703 633 703 744 q 662 492 703 551 q 547 407 621 432 l 724 0 l 600 0 l 436 388 l 203 388 l 203 0 l 89 0 l 89 875 l 442 875 m 203 490 l 438 490 q 546 529 506 490 q 586 633 586 568 q 548 737 586 700 q 438 774 510 774 l 203 774 l 203 490 z "},"Ŗ":{"ha":756,"x_min":89,"x_max":724,"o":"m 442 875 q 635 810 568 875 q 703 633 703 744 q 662 492 703 551 q 547 407 621 432 l 724 0 l 600 0 l 436 388 l 203 388 l 203 0 l 89 0 l 89 875 l 442 875 m 203 490 l 438 490 q 546 529 506 490 q 586 633 586 568 q 548 737 586 700 q 438 774 510 774 l 203 774 l 203 490 m 396 -283 l 338 -283 l 368 -192 l 324 -192 l 324 -76 l 433 -76 l 433 -183 l 396 -283 z "},"S":{"ha":699,"x_min":51,"x_max":644,"o":"m 349 892 q 547 831 471 892 q 622 644 622 769 l 622 629 l 507 629 l 507 649 q 463 751 507 714 q 351 788 419 788 q 233 757 278 788 q 189 665 189 726 q 215 592 189 621 q 278 547 240 564 q 383 507 317 529 q 519 454 468 479 q 608 381 571 429 q 644 253 644 332 q 564 49 644 114 q 347 -15 483 -15 q 134 49 217 -15 q 51 247 51 113 l 53 274 l 171 274 l 169 247 q 217 128 169 169 q 342 88 264 88 q 478 125 431 88 q 526 233 526 163 q 501 311 526 281 q 436 359 475 342 q 329 399 397 376 q 194 451 246 426 q 107 526 143 476 q 71 656 71 575 q 149 832 71 772 q 349 892 226 892 z "},"Ś":{"ha":699,"x_min":51,"x_max":644,"o":"m 361 960 l 274 960 l 383 1128 l 499 1128 l 500 1124 l 361 960 m 349 892 q 547 831 471 892 q 622 644 622 769 l 622 629 l 507 629 l 507 649 q 463 751 507 714 q 351 788 419 788 q 233 757 278 788 q 189 665 189 726 q 215 592 189 621 q 278 547 240 564 q 383 507 317 529 q 519 454 468 479 q 608 381 571 429 q 644 253 644 332 q 564 49 644 114 q 347 -15 483 -15 q 134 49 217 -15 q 51 247 51 113 l 53 274 l 171 274 l 169 247 q 217 128 169 169 q 342 88 264 88 q 478 125 431 88 q 526 233 526 163 q 501 311 526 281 q 436 359 475 342 q 329 399 397 376 q 194 451 246 426 q 107 526 143 476 q 71 656 71 575 q 149 832 71 772 q 349 892 226 892 z "},"Š":{"ha":699,"x_min":51,"x_max":644,"o":"m 190 1128 l 292 1128 l 349 1026 l 406 1128 l 508 1128 l 399 954 l 299 954 l 190 1128 m 349 892 q 547 831 471 892 q 622 644 622 769 l 622 629 l 507 629 l 507 649 q 463 751 507 714 q 351 788 419 788 q 233 757 278 788 q 189 665 189 726 q 215 592 189 621 q 278 547 240 564 q 383 507 317 529 q 519 454 468 479 q 608 381 571 429 q 644 253 644 332 q 564 49 644 114 q 347 -15 483 -15 q 134 49 217 -15 q 51 247 51 113 l 53 274 l 171 274 l 169 247 q 217 128 169 169 q 342 88 264 88 q 478 125 431 88 q 526 233 526 163 q 501 311 526 281 q 436 359 475 342 q 329 399 397 376 q 194 451 246 426 q 107 526 143 476 q 71 656 71 575 q 149 832 71 772 q 349 892 226 892 z "},"Ş":{"ha":699,"x_min":51,"x_max":644,"o":"m 349 892 q 547 831 471 892 q 622 644 622 769 l 622 629 l 507 629 l 507 649 q 463 751 507 714 q 351 788 419 788 q 233 757 278 788 q 189 665 189 726 q 215 592 189 621 q 278 547 240 564 q 383 507 317 529 q 519 454 468 479 q 608 381 571 429 q 644 253 644 332 q 571 56 644 119 q 369 -14 497 -8 l 367 -46 q 441 -68 413 -49 q 469 -129 469 -87 q 429 -209 469 -186 q 336 -232 389 -232 q 229 -222 283 -232 l 229 -160 l 326 -160 q 361 -153 350 -160 q 372 -129 372 -146 q 363 -106 372 -112 q 329 -99 353 -99 l 288 -99 l 300 -12 q 119 60 186 -3 q 51 247 51 124 l 53 274 l 171 274 l 169 247 q 217 128 169 169 q 342 88 264 88 q 478 125 431 88 q 526 233 526 163 q 501 311 526 281 q 436 359 475 342 q 329 399 397 376 q 194 451 246 426 q 107 526 143 476 q 71 656 71 575 q 149 832 71 772 q 349 892 226 892 z "},"Ŝ":{"ha":699,"x_min":51,"x_max":644,"o":"m 350 1054 l 292 953 l 190 953 l 300 1126 l 400 1126 l 508 953 l 406 953 l 350 1054 m 349 892 q 547 831 471 892 q 622 644 622 769 l 622 629 l 507 629 l 507 649 q 463 751 507 714 q 351 788 419 788 q 233 757 278 788 q 189 665 189 726 q 215 592 189 621 q 278 547 240 564 q 383 507 317 529 q 519 454 468 479 q 608 381 571 429 q 644 253 644 332 q 564 49 644 114 q 347 -15 483 -15 q 134 49 217 -15 q 51 247 51 113 l 53 274 l 171 274 l 169 247 q 217 128 169 169 q 342 88 264 88 q 478 125 431 88 q 526 233 526 163 q 501 311 526 281 q 436 359 475 342 q 329 399 397 376 q 194 451 246 426 q 107 526 143 476 q 71 656 71 575 q 149 832 71 772 q 349 892 226 892 z "},"Ș":{"ha":699,"x_min":51,"x_max":644,"o":"m 51 0 m 349 892 q 547 831 471 892 q 622 644 622 769 l 622 629 l 507 629 l 507 649 q 463 751 507 714 q 351 788 419 788 q 233 757 278 788 q 189 665 189 726 q 215 592 189 621 q 278 547 240 564 q 383 507 317 529 q 519 454 468 479 q 608 381 571 429 q 644 253 644 332 q 564 49 644 114 q 347 -15 483 -15 q 134 49 217 -15 q 51 247 51 113 l 53 274 l 171 274 l 169 247 q 217 128 169 169 q 342 88 264 88 q 478 125 431 88 q 526 233 526 163 q 501 311 526 281 q 436 359 475 342 q 329 399 397 376 q 194 451 246 426 q 107 526 143 476 q 71 656 71 575 q 149 832 71 772 q 349 892 226 892 m 308 -283 l 339 -192 l 296 -192 l 296 -76 l 404 -76 l 404 -183 l 367 -283 l 308 -283 z "},"T":{"ha":640,"x_min":25,"x_max":614,"o":"m 375 774 l 375 0 l 263 0 l 263 774 l 25 774 l 25 875 l 614 875 l 614 774 l 375 774 z "},"Ŧ":{"ha":640,"x_min":25,"x_max":614,"o":"m 375 774 l 375 501 l 543 501 l 543 408 l 375 408 l 375 0 l 263 0 l 263 408 l 99 408 l 99 501 l 263 501 l 263 774 l 25 774 l 25 875 l 614 875 l 614 774 l 375 774 z "},"Ť":{"ha":640,"x_min":25,"x_max":614,"o":"m 269 954 l 160 1128 l 263 1128 l 319 1026 l 376 1128 l 478 1128 l 368 954 l 269 954 m 375 774 l 375 0 l 263 0 l 263 774 l 25 774 l 25 875 l 614 875 l 614 774 l 375 774 z "},"Ţ":{"ha":640,"x_min":25,"x_max":614,"o":"m 343 0 l 336 -46 q 411 -69 382 -49 q 440 -129 440 -89 q 400 -209 440 -186 q 307 -232 360 -232 q 200 -222 254 -232 l 200 -160 l 297 -160 q 343 -129 343 -160 q 333 -106 343 -112 q 300 -99 324 -99 l 258 -99 l 274 0 l 263 0 l 263 774 l 25 774 l 25 875 l 614 875 l 614 774 l 375 774 l 375 0 l 343 0 z "},"Ț":{"ha":640,"x_min":25,"x_max":614,"o":"m 375 774 l 375 0 l 263 0 l 263 774 l 25 774 l 25 875 l 614 875 l 614 774 l 375 774 m 336 -283 l 281 -283 l 310 -192 l 265 -192 l 265 -76 l 374 -76 l 374 -183 l 336 -283 z "},"U":{"ha":756,"x_min":89,"x_max":665,"o":"m 665 285 q 590 62 665 139 q 378 -15 514 -15 q 165 62 240 -15 q 89 285 89 139 l 89 875 l 203 875 l 203 279 q 249 137 203 186 q 378 88 294 88 q 508 137 463 88 q 554 279 554 186 l 554 875 l 665 875 l 665 285 z "},"Ú":{"ha":756,"x_min":89,"x_max":665,"o":"m 392 960 l 301 960 l 411 1128 l 526 1128 l 528 1124 l 392 960 m 665 285 q 590 62 665 139 q 378 -15 514 -15 q 165 62 240 -15 q 89 285 89 139 l 89 875 l 203 875 l 203 279 q 249 137 203 186 q 378 88 294 88 q 508 137 463 88 q 554 279 554 186 l 554 875 l 665 875 l 665 285 z "},"Ŭ":{"ha":756,"x_min":89,"x_max":665,"o":"m 536 1128 q 517 1070 536 1099 q 461 1023 497 1042 q 378 1004 425 1004 q 296 1023 332 1004 q 240 1070 260 1042 q 219 1128 219 1099 l 303 1128 q 326 1099 306 1113 q 378 1085 347 1085 q 431 1099 408 1085 q 456 1128 453 1113 l 536 1128 m 665 285 q 590 62 665 139 q 378 -15 514 -15 q 165 62 240 -15 q 89 285 89 139 l 89 875 l 203 875 l 203 279 q 249 137 203 186 q 378 88 294 88 q 508 137 463 88 q 554 279 554 186 l 554 875 l 665 875 l 665 285 z "},"Û":{"ha":756,"x_min":89,"x_max":665,"o":"m 435 953 l 381 1054 l 321 953 l 218 953 l 328 1126 l 428 1126 l 538 953 l 435 953 m 665 285 q 590 62 665 139 q 378 -15 514 -15 q 165 62 240 -15 q 89 285 89 139 l 89 875 l 203 875 l 203 279 q 249 137 203 186 q 378 88 294 88 q 508 137 463 88 q 554 279 554 186 l 554 875 l 665 875 l 665 285 z "},"Ü":{"ha":756,"x_min":89,"x_max":665,"o":"m 225 1007 l 225 1128 l 336 1128 l 336 1007 l 225 1007 m 418 1007 l 418 1128 l 531 1128 l 531 1007 l 418 1007 m 665 285 q 590 62 665 139 q 378 -15 514 -15 q 165 62 240 -15 q 89 285 89 139 l 89 875 l 203 875 l 203 279 q 249 137 203 186 q 378 88 294 88 q 508 137 463 88 q 554 279 554 186 l 554 875 l 665 875 l 665 285 z "},"Ù":{"ha":756,"x_min":89,"x_max":665,"o":"m 367 960 l 226 1124 l 228 1128 l 346 1128 l 454 960 l 367 960 m 665 285 q 590 62 665 139 q 378 -15 514 -15 q 165 62 240 -15 q 89 285 89 139 l 89 875 l 203 875 l 203 279 q 249 137 203 186 q 378 88 294 88 q 508 137 463 88 q 554 279 554 186 l 554 875 l 665 875 l 665 285 z "},"Ű":{"ha":756,"x_min":89,"x_max":665,"o":"m 344 960 l 256 960 l 335 1128 l 449 1128 l 450 1124 l 344 960 m 510 960 l 424 960 l 501 1128 l 615 1128 l 617 1124 l 510 960 m 665 285 q 590 62 665 139 q 378 -15 514 -15 q 165 62 240 -15 q 89 285 89 139 l 89 875 l 203 875 l 203 279 q 249 137 203 186 q 378 88 294 88 q 508 137 463 88 q 554 279 554 186 l 554 875 l 665 875 l 665 285 z "},"Ū":{"ha":756,"x_min":89,"x_max":665,"o":"m 218 969 l 218 1061 l 538 1061 l 538 969 l 218 969 m 665 285 q 590 62 665 139 q 378 -15 514 -15 q 165 62 240 -15 q 89 285 89 139 l 89 875 l 203 875 l 203 279 q 249 137 203 186 q 378 88 294 88 q 508 137 463 88 q 554 279 554 186 l 554 875 l 665 875 l 665 285 z "},"Ų":{"ha":756,"x_min":89,"x_max":665,"o":"m 665 875 l 665 285 q 624 108 665 178 q 507 6 583 38 q 483 -33 493 -10 q 472 -79 472 -56 q 487 -128 472 -108 q 532 -149 501 -149 l 571 -149 l 571 -215 q 493 -232 525 -232 q 408 -205 443 -232 q 372 -117 372 -178 q 408 -14 372 -62 q 378 -15 400 -15 q 165 62 240 -15 q 89 285 89 139 l 89 875 l 203 875 l 203 279 q 249 137 203 186 q 378 88 294 88 q 508 137 463 88 q 554 279 554 186 l 554 875 l 665 875 z "},"Ů":{"ha":756,"x_min":89,"x_max":665,"o":"m 378 1168 q 465 1132 429 1168 q 501 1046 501 1096 q 465 959 501 994 q 378 924 429 924 q 292 959 328 924 q 256 1046 256 994 q 292 1133 256 1097 q 378 1168 328 1168 m 378 1111 q 333 1092 351 1111 q 314 1046 314 1074 q 333 999 314 1018 q 378 981 351 981 q 424 1000 404 981 q 443 1046 443 1019 q 424 1092 443 1072 q 378 1111 404 1111 m 665 285 q 590 62 665 139 q 378 -15 514 -15 q 165 62 240 -15 q 89 285 89 139 l 89 875 l 203 875 l 203 279 q 249 137 203 186 q 378 88 294 88 q 508 137 463 88 q 554 279 554 186 l 554 875 l 665 875 l 665 285 z "},"Ũ":{"ha":756,"x_min":89,"x_max":665,"o":"m 565 1128 q 538 1037 565 1078 q 457 996 510 996 q 420 1001 438 996 q 378 1017 403 1007 q 310 1035 333 1035 q 265 996 271 1035 l 192 996 q 219 1087 192 1046 q 300 1128 247 1128 q 378 1107 333 1128 q 403 1097 382 1106 q 446 1089 425 1089 q 476 1097 465 1089 q 490 1128 488 1106 l 565 1128 m 665 285 q 590 62 665 139 q 378 -15 514 -15 q 165 62 240 -15 q 89 285 89 139 l 89 875 l 203 875 l 203 279 q 249 137 203 186 q 378 88 294 88 q 508 137 463 88 q 554 279 554 186 l 554 875 l 665 875 l 665 285 z "},"V":{"ha":699,"x_min":10,"x_max":688,"o":"m 10 875 l 135 875 l 351 124 l 357 124 l 579 875 l 688 875 l 422 0 l 278 0 l 10 875 z "},"W":{"ha":988,"x_min":13,"x_max":975,"o":"m 519 593 q 505 698 511 646 q 496 769 499 750 l 490 769 q 481 698 488 750 q 467 593 475 646 l 361 0 l 215 0 l 13 875 l 132 875 l 265 269 q 281 185 274 239 q 292 115 289 132 l 297 115 q 305 176 299 129 q 319 269 311 222 l 421 875 l 576 875 l 685 269 q 700 175 693 219 q 708 115 707 131 l 713 115 q 723 183 715 132 q 739 269 731 235 l 874 875 l 975 875 l 772 0 l 626 0 l 519 593 z "},"Ẃ":{"ha":988,"x_min":13,"x_max":975,"o":"m 507 960 l 419 960 l 529 1128 l 643 1128 l 644 1124 l 507 960 m 626 0 l 519 593 q 505 698 511 646 q 496 769 499 750 l 490 769 q 481 698 488 750 q 467 593 475 646 l 361 0 l 215 0 l 13 875 l 132 875 l 265 269 q 281 185 274 239 q 292 115 289 132 l 297 115 q 305 176 299 129 q 319 269 311 222 l 421 875 l 576 875 l 685 269 q 700 175 693 219 q 708 115 707 131 l 713 115 q 723 183 715 132 q 739 269 731 235 l 874 875 l 975 875 l 772 0 l 626 0 z "},"Ŵ":{"ha":988,"x_min":13,"x_max":975,"o":"m 496 1054 l 438 953 l 335 953 l 446 1126 l 544 1126 l 654 953 l 551 953 l 496 1054 m 519 593 q 505 698 511 646 q 496 769 499 750 l 490 769 q 481 698 488 750 q 467 593 475 646 l 361 0 l 215 0 l 13 875 l 132 875 l 265 269 q 281 185 274 239 q 292 115 289 132 l 297 115 q 305 176 299 129 q 319 269 311 222 l 421 875 l 576 875 l 685 269 q 700 175 693 219 q 708 115 707 131 l 713 115 q 723 183 715 132 q 739 269 731 235 l 874 875 l 975 875 l 772 0 l 626 0 l 519 593 z "},"Ẅ":{"ha":988,"x_min":13,"x_max":975,"o":"m 344 1007 l 344 1128 l 454 1128 l 454 1007 l 344 1007 m 535 1007 l 535 1128 l 646 1128 l 646 1007 l 535 1007 m 626 0 l 519 593 q 505 698 511 646 q 496 769 499 750 l 490 769 q 481 698 488 750 q 467 593 475 646 l 361 0 l 215 0 l 13 875 l 132 875 l 265 269 q 281 185 274 239 q 292 115 289 132 l 297 115 q 305 176 299 129 q 319 269 311 222 l 421 875 l 576 875 l 685 269 q 700 175 693 219 q 708 115 707 131 l 713 115 q 723 183 715 132 q 739 269 731 235 l 874 875 l 975 875 l 772 0 l 626 0 z "},"Ẁ":{"ha":988,"x_min":13,"x_max":975,"o":"m 482 960 l 346 1124 l 347 1128 l 461 1128 l 571 960 l 482 960 m 626 0 l 519 593 q 505 698 511 646 q 496 769 499 750 l 490 769 q 481 698 488 750 q 467 593 475 646 l 361 0 l 215 0 l 13 875 l 132 875 l 265 269 q 281 185 274 239 q 292 115 289 132 l 297 115 q 305 176 299 129 q 319 269 311 222 l 421 875 l 576 875 l 685 269 q 700 175 693 219 q 708 115 707 131 l 713 115 q 723 183 715 132 q 739 269 731 235 l 874 875 l 975 875 l 772 0 l 626 0 z "},"X":{"ha":699,"x_min":6,"x_max":693,"o":"m 561 0 l 344 357 l 125 0 l 6 0 l 285 456 l 31 875 l 164 875 l 353 563 l 544 875 l 665 875 l 411 465 l 693 0 l 561 0 z "},"Y":{"ha":699,"x_min":10,"x_max":688,"o":"m 293 0 l 293 363 l 10 875 l 135 875 l 357 469 l 361 469 l 579 875 l 688 875 l 406 363 l 406 0 l 293 0 z "},"Ý":{"ha":699,"x_min":10,"x_max":688,"o":"m 361 960 l 274 960 l 383 1128 l 499 1128 l 500 1124 l 361 960 m 406 0 l 293 0 l 293 363 l 10 875 l 135 875 l 357 469 l 361 469 l 579 875 l 688 875 l 406 363 l 406 0 z "},"Ŷ":{"ha":699,"x_min":10,"x_max":688,"o":"m 350 1054 l 292 953 l 190 953 l 300 1126 l 400 1126 l 508 953 l 406 953 l 350 1054 m 293 0 l 293 363 l 10 875 l 135 875 l 357 469 l 361 469 l 579 875 l 688 875 l 406 363 l 406 0 l 293 0 z "},"Ÿ":{"ha":699,"x_min":10,"x_max":688,"o":"m 197 1007 l 197 1128 l 310 1128 l 310 1007 l 197 1007 m 390 1007 l 390 1128 l 501 1128 l 501 1007 l 390 1007 m 406 0 l 293 0 l 293 363 l 10 875 l 135 875 l 357 469 l 361 469 l 579 875 l 688 875 l 406 363 l 406 0 z "},"Ỳ":{"ha":699,"x_min":10,"x_max":688,"o":"m 336 960 l 200 1124 l 201 1128 l 315 1128 l 425 960 l 336 960 m 406 0 l 293 0 l 293 363 l 10 875 l 135 875 l 357 469 l 361 469 l 579 875 l 688 875 l 406 363 l 406 0 z "},"Z":{"ha":640,"x_min":26,"x_max":611,"o":"m 185 103 l 611 103 l 611 0 l 26 0 l 26 49 l 442 774 l 51 774 l 51 875 l 603 875 l 603 828 l 185 103 z "},"Ź":{"ha":640,"x_min":26,"x_max":611,"o":"m 332 960 l 244 960 l 354 1128 l 468 1128 l 469 1124 l 332 960 m 185 103 l 611 103 l 611 0 l 26 0 l 26 49 l 442 774 l 51 774 l 51 875 l 603 875 l 603 828 l 185 103 z "},"Ž":{"ha":640,"x_min":26,"x_max":611,"o":"m 269 954 l 160 1128 l 263 1128 l 319 1026 l 376 1128 l 478 1128 l 368 954 l 269 954 m 185 103 l 611 103 l 611 0 l 26 0 l 26 49 l 442 774 l 51 774 l 51 875 l 603 875 l 603 828 l 185 103 z "},"Ż":{"ha":640,"x_min":26,"x_max":611,"o":"m 264 1007 l 264 1128 l 375 1128 l 375 1007 l 264 1007 m 185 103 l 611 103 l 611 0 l 26 0 l 26 49 l 442 774 l 51 774 l 51 875 l 603 875 l 603 828 l 185 103 z "},"a":{"ha":582,"x_min":43,"x_max":565,"o":"m 285 688 q 438 639 386 688 q 489 500 489 590 l 489 122 q 499 90 489 101 q 522 78 508 78 l 565 78 l 565 6 q 496 -10 538 -10 q 427 13 456 -10 q 390 72 399 35 l 383 72 q 315 8 357 31 q 219 -15 272 -15 q 97 25 151 -15 q 43 174 43 65 q 131 351 43 303 q 383 399 218 399 l 383 485 q 360 565 383 538 q 278 593 338 593 q 198 563 222 593 q 174 489 174 532 l 174 472 l 71 472 q 69 501 69 479 q 128 639 69 590 q 285 688 188 688 m 383 304 q 210 278 268 304 q 153 181 153 253 q 176 101 153 125 q 244 78 199 78 q 341 122 299 78 q 383 244 383 167 l 383 304 z "},"á":{"ha":582,"x_min":43,"x_max":565,"o":"m 297 754 l 210 754 l 319 924 l 435 924 l 435 918 l 297 754 m 285 688 q 438 639 386 688 q 489 500 489 590 l 489 122 q 499 90 489 101 q 522 78 508 78 l 565 78 l 565 6 q 496 -10 538 -10 q 427 13 456 -10 q 390 72 399 35 l 383 72 q 315 8 357 31 q 219 -15 272 -15 q 97 25 151 -15 q 43 174 43 65 q 131 351 43 303 q 383 399 218 399 l 383 485 q 360 565 383 538 q 278 593 338 593 q 198 563 222 593 q 174 489 174 532 l 174 472 l 71 472 q 69 501 69 479 q 128 639 69 590 q 285 688 188 688 m 383 304 q 210 278 268 304 q 153 181 153 253 q 176 101 153 125 q 244 78 199 78 q 341 122 299 78 q 383 244 383 167 l 383 304 z "},"ă":{"ha":582,"x_min":43,"x_max":565,"o":"m 449 924 q 429 865 449 893 q 374 817 410 836 q 292 799 339 799 q 208 817 244 799 q 153 865 172 836 q 133 924 133 893 l 215 924 q 240 894 219 908 q 292 881 261 881 q 344 894 322 881 q 368 924 365 908 l 449 924 m 285 688 q 438 639 386 688 q 489 500 489 590 l 489 122 q 499 90 489 101 q 522 78 508 78 l 565 78 l 565 6 q 496 -10 538 -10 q 427 13 456 -10 q 390 72 399 35 l 383 72 q 315 8 357 31 q 219 -15 272 -15 q 97 25 151 -15 q 43 174 43 65 q 131 351 43 303 q 383 399 218 399 l 383 485 q 360 565 383 538 q 278 593 338 593 q 198 563 222 593 q 174 489 174 532 l 174 472 l 71 472 q 69 501 69 479 q 128 639 69 590 q 285 688 188 688 m 383 304 q 210 278 268 304 q 153 181 153 253 q 176 101 153 125 q 244 78 199 78 q 341 122 299 78 q 383 244 383 167 l 383 304 z "},"â":{"ha":582,"x_min":43,"x_max":565,"o":"m 292 851 l 236 750 l 133 750 l 242 922 l 342 922 l 450 750 l 349 750 l 292 851 m 285 688 q 438 639 386 688 q 489 500 489 590 l 489 122 q 499 90 489 101 q 522 78 508 78 l 565 78 l 565 6 q 496 -10 538 -10 q 427 13 456 -10 q 390 72 399 35 l 383 72 q 315 8 357 31 q 219 -15 272 -15 q 97 25 151 -15 q 43 174 43 65 q 131 351 43 303 q 383 399 218 399 l 383 485 q 360 565 383 538 q 278 593 338 593 q 198 563 222 593 q 174 489 174 532 l 174 472 l 71 472 q 69 501 69 479 q 128 639 69 590 q 285 688 188 688 m 383 304 q 210 278 268 304 q 153 181 153 253 q 176 101 153 125 q 244 78 199 78 q 341 122 299 78 q 383 244 383 167 l 383 304 z "},"ä":{"ha":582,"x_min":43,"x_max":565,"o":"m 139 801 l 139 924 l 250 924 l 250 801 l 139 801 m 331 801 l 331 924 l 443 924 l 443 801 l 331 801 m 285 688 q 438 639 386 688 q 489 500 489 590 l 489 122 q 499 90 489 101 q 522 78 508 78 l 565 78 l 565 6 q 496 -10 538 -10 q 427 13 456 -10 q 390 72 399 35 l 383 72 q 315 8 357 31 q 219 -15 272 -15 q 97 25 151 -15 q 43 174 43 65 q 131 351 43 303 q 383 399 218 399 l 383 485 q 360 565 383 538 q 278 593 338 593 q 198 563 222 593 q 174 489 174 532 l 174 472 l 71 472 q 69 501 69 479 q 128 639 69 590 q 285 688 188 688 m 383 304 q 210 278 268 304 q 153 181 153 253 q 176 101 153 125 q 244 78 199 78 q 341 122 299 78 q 383 244 383 167 l 383 304 z "},"à":{"ha":582,"x_min":43,"x_max":565,"o":"m 274 754 l 136 918 l 138 924 l 251 924 l 361 754 l 274 754 m 285 688 q 438 639 386 688 q 489 500 489 590 l 489 122 q 499 90 489 101 q 522 78 508 78 l 565 78 l 565 6 q 496 -10 538 -10 q 427 13 456 -10 q 390 72 399 35 l 383 72 q 315 8 357 31 q 219 -15 272 -15 q 97 25 151 -15 q 43 174 43 65 q 131 351 43 303 q 383 399 218 399 l 383 485 q 360 565 383 538 q 278 593 338 593 q 198 563 222 593 q 174 489 174 532 l 174 472 l 71 472 q 69 501 69 479 q 128 639 69 590 q 285 688 188 688 m 383 304 q 210 278 268 304 q 153 181 153 253 q 176 101 153 125 q 244 78 199 78 q 341 122 299 78 q 383 244 383 167 l 383 304 z "},"ā":{"ha":582,"x_min":43,"x_max":565,"o":"m 132 857 l 453 857 l 453 765 l 132 765 l 132 857 m 285 688 q 438 639 386 688 q 489 500 489 590 l 489 122 q 499 90 489 101 q 522 78 508 78 l 565 78 l 565 6 q 496 -10 538 -10 q 427 13 456 -10 q 390 72 399 35 l 383 72 q 315 8 357 31 q 219 -15 272 -15 q 97 25 151 -15 q 43 174 43 65 q 131 351 43 303 q 383 399 218 399 l 383 485 q 360 565 383 538 q 278 593 338 593 q 198 563 222 593 q 174 489 174 532 l 174 472 l 71 472 q 69 501 69 479 q 128 639 69 590 q 285 688 188 688 m 383 304 q 210 278 268 304 q 153 181 153 253 q 176 101 153 125 q 244 78 199 78 q 341 122 299 78 q 383 244 383 167 l 383 304 z "},"ą":{"ha":582,"x_min":43,"x_max":629,"o":"m 629 -215 q 551 -232 583 -232 q 467 -205 503 -232 q 432 -117 432 -178 q 442 -56 432 -82 q 469 -7 451 -31 q 418 20 439 -1 q 390 72 397 42 l 383 72 q 315 8 357 31 q 219 -15 272 -15 q 97 25 151 -15 q 43 174 43 65 q 131 351 43 303 q 383 399 218 399 l 383 485 q 360 565 383 538 q 278 593 338 593 q 198 563 222 593 q 174 489 174 532 l 174 472 l 71 472 q 69 501 69 479 q 128 639 69 590 q 285 688 188 688 q 438 639 386 688 q 489 500 489 590 l 489 122 q 499 90 489 101 q 522 78 508 78 l 565 78 l 565 6 q 542 -33 551 -11 q 532 -79 532 -56 q 545 -129 532 -110 q 589 -149 558 -149 l 629 -149 l 629 -215 m 383 304 q 210 278 268 304 q 153 181 153 253 q 176 101 153 125 q 244 78 199 78 q 341 122 299 78 q 383 244 383 167 l 383 304 z "},"å":{"ha":582,"x_min":43,"x_max":565,"o":"m 292 964 q 377 928 342 964 q 413 842 413 892 q 377 754 413 790 q 292 718 342 718 q 206 753 242 718 q 169 842 169 789 q 205 928 169 892 q 292 964 240 964 m 292 906 q 244 887 264 906 q 225 842 225 868 q 245 795 225 815 q 292 775 265 775 q 337 795 317 775 q 357 842 357 815 q 337 886 357 867 q 292 906 317 906 m 285 688 q 438 639 386 688 q 489 500 489 590 l 489 122 q 499 90 489 101 q 522 78 508 78 l 565 78 l 565 6 q 496 -10 538 -10 q 427 13 456 -10 q 390 72 399 35 l 383 72 q 315 8 357 31 q 219 -15 272 -15 q 97 25 151 -15 q 43 174 43 65 q 131 351 43 303 q 383 399 218 399 l 383 485 q 360 565 383 538 q 278 593 338 593 q 198 563 222 593 q 174 489 174 532 l 174 472 l 71 472 q 69 501 69 479 q 128 639 69 590 q 285 688 188 688 m 383 304 q 210 278 268 304 q 153 181 153 253 q 176 101 153 125 q 244 78 199 78 q 341 122 299 78 q 383 244 383 167 l 383 304 z "},"ǻ":{"ha":582,"x_min":43,"x_max":565,"o":"m 338 981 l 250 981 l 347 1128 l 461 1128 l 463 1124 l 338 981 m 292 951 q 378 918 343 951 q 413 836 413 885 q 378 754 413 788 q 292 721 343 721 q 205 753 240 721 q 169 836 169 786 q 205 918 169 885 q 292 951 240 951 m 292 896 q 245 878 265 896 q 225 836 225 861 q 245 793 225 811 q 292 775 265 775 q 337 793 317 775 q 357 836 357 811 q 338 878 357 861 q 292 896 318 896 m 285 688 q 438 639 386 688 q 489 500 489 590 l 489 122 q 499 90 489 101 q 522 78 508 78 l 565 78 l 565 6 q 496 -10 538 -10 q 427 13 456 -10 q 390 72 399 35 l 383 72 q 315 8 357 31 q 219 -15 272 -15 q 97 25 151 -15 q 43 174 43 65 q 131 351 43 303 q 383 399 218 399 l 383 485 q 360 565 383 538 q 278 593 338 593 q 198 563 222 593 q 174 489 174 532 l 174 472 l 71 472 q 69 501 69 479 q 128 639 69 590 q 285 688 188 688 m 383 304 q 210 278 268 304 q 153 181 153 253 q 176 101 153 125 q 244 78 199 78 q 341 122 299 78 q 383 244 383 167 l 383 304 z "},"ã":{"ha":582,"x_min":43,"x_max":565,"o":"m 478 924 q 450 831 478 872 q 368 790 422 790 q 321 800 344 790 q 292 811 297 810 q 254 826 269 821 q 222 831 239 831 q 179 790 183 831 l 104 790 q 133 883 104 842 q 214 924 161 924 q 252 917 232 924 q 290 903 272 911 q 326 890 307 896 q 360 883 344 883 q 403 924 399 883 l 478 924 m 285 688 q 438 639 386 688 q 489 500 489 590 l 489 122 q 499 90 489 101 q 522 78 508 78 l 565 78 l 565 6 q 496 -10 538 -10 q 427 13 456 -10 q 390 72 399 35 l 383 72 q 315 8 357 31 q 219 -15 272 -15 q 97 25 151 -15 q 43 174 43 65 q 131 351 43 303 q 383 399 218 399 l 383 485 q 360 565 383 538 q 278 593 338 593 q 198 563 222 593 q 174 489 174 532 l 174 472 l 71 472 q 69 501 69 479 q 128 639 69 590 q 285 688 188 688 m 383 304 q 210 278 268 304 q 153 181 153 253 q 176 101 153 125 q 244 78 199 78 q 341 122 299 78 q 383 244 383 167 l 383 304 z "},"æ":{"ha":931,"x_min":50,"x_max":864,"o":"m 644 688 q 810 613 756 688 q 864 371 864 538 l 864 304 l 501 304 q 537 133 501 188 q 647 78 572 78 q 729 119 697 78 q 761 228 761 160 l 864 228 q 803 51 864 117 q 644 -15 743 -15 q 440 86 500 -15 q 354 12 404 39 q 247 -15 304 -15 q 108 25 165 -15 q 50 174 50 65 q 138 351 50 303 q 392 399 226 399 l 392 485 q 368 565 392 538 q 285 593 344 593 q 206 563 231 593 q 182 489 182 532 l 182 472 l 78 472 q 76 501 76 479 q 136 639 76 590 q 292 688 196 688 q 397 668 353 688 q 465 611 442 649 q 644 688 528 688 m 644 593 q 542 546 575 593 q 501 399 508 499 l 754 399 q 726 544 754 494 q 644 593 699 593 m 392 304 q 218 278 276 304 q 160 181 160 253 q 183 101 160 125 q 251 78 206 78 q 349 119 307 78 q 392 233 392 160 l 392 304 z "},"ǽ":{"ha":931,"x_min":50,"x_max":864,"o":"m 478 754 l 390 754 l 500 924 l 614 924 l 615 918 l 478 754 m 644 688 q 810 613 756 688 q 864 371 864 538 l 864 304 l 501 304 q 537 133 501 188 q 647 78 572 78 q 729 119 697 78 q 761 228 761 160 l 864 228 q 803 51 864 117 q 644 -15 743 -15 q 440 86 500 -15 q 354 12 404 39 q 247 -15 304 -15 q 108 25 165 -15 q 50 174 50 65 q 138 351 50 303 q 392 399 226 399 l 392 485 q 368 565 392 538 q 285 593 344 593 q 206 563 231 593 q 182 489 182 532 l 182 472 l 78 472 q 76 501 76 479 q 136 639 76 590 q 292 688 196 688 q 397 668 353 688 q 465 611 442 649 q 644 688 528 688 m 644 593 q 542 546 575 593 q 501 399 508 499 l 754 399 q 726 544 754 494 q 644 593 699 593 m 392 304 q 218 278 276 304 q 160 181 160 253 q 183 101 160 125 q 251 78 206 78 q 349 119 307 78 q 392 233 392 160 l 392 304 z "},"b":{"ha":582,"x_min":76,"x_max":532,"o":"m 188 608 q 244 666 206 644 q 331 688 282 688 q 476 599 419 688 q 532 336 532 511 q 477 72 532 158 q 324 -15 422 -15 q 238 8 276 -15 q 176 78 200 32 l 171 78 l 156 0 l 76 0 l 76 924 l 182 924 l 182 608 l 188 608 m 301 593 q 182 356 182 593 l 182 313 q 301 78 182 78 q 392 133 363 78 q 422 313 422 189 l 422 360 q 392 538 422 483 q 301 593 363 593 z "},"c":{"ha":522,"x_min":46,"x_max":481,"o":"m 276 688 q 432 621 383 688 q 481 424 481 554 l 372 424 q 351 553 372 514 q 276 593 331 593 q 185 535 214 593 q 156 360 156 478 l 156 313 q 185 136 156 194 q 276 78 214 78 q 354 120 331 78 q 378 249 378 163 l 481 249 q 431 59 481 133 q 276 -15 381 -15 q 101 69 157 -15 q 46 335 46 154 q 101 602 46 517 q 276 688 157 688 z "},"ć":{"ha":522,"x_min":46,"x_max":481,"o":"m 288 754 l 197 754 l 308 924 l 424 924 l 424 918 l 288 754 m 276 688 q 432 621 383 688 q 481 424 481 554 l 372 424 q 351 553 372 514 q 276 593 331 593 q 185 535 214 593 q 156 360 156 478 l 156 313 q 185 136 156 194 q 276 78 214 78 q 354 120 331 78 q 378 249 378 163 l 481 249 q 431 59 481 133 q 276 -15 381 -15 q 101 69 157 -15 q 46 335 46 154 q 101 602 46 517 q 276 688 157 688 z "},"č":{"ha":522,"x_min":46,"x_max":481,"o":"m 104 924 l 206 924 l 261 822 l 319 924 l 422 924 l 313 751 l 213 751 l 104 924 m 276 688 q 432 621 383 688 q 481 424 481 554 l 372 424 q 351 553 372 514 q 276 593 331 593 q 185 535 214 593 q 156 360 156 478 l 156 313 q 185 136 156 194 q 276 78 214 78 q 354 120 331 78 q 378 249 378 163 l 481 249 q 431 59 481 133 q 276 -15 381 -15 q 101 69 157 -15 q 46 335 46 154 q 101 602 46 517 q 276 688 157 688 z "},"ç":{"ha":522,"x_min":46,"x_max":481,"o":"m 276 688 q 432 621 383 688 q 481 424 481 554 l 372 424 q 351 553 372 514 q 276 593 331 593 q 185 535 214 593 q 156 360 156 478 l 156 313 q 185 136 156 194 q 276 78 214 78 q 354 120 331 78 q 378 249 378 163 l 481 249 q 432 62 481 136 q 282 -15 383 -12 l 279 -46 q 353 -69 325 -49 q 382 -129 382 -89 q 342 -209 382 -186 q 249 -232 301 -232 q 142 -222 196 -232 l 142 -160 l 239 -160 q 285 -129 285 -160 q 275 -106 285 -112 q 242 -99 265 -99 l 200 -99 l 214 -7 q 87 97 128 13 q 46 335 46 181 q 101 602 46 517 q 276 688 157 688 z "},"ĉ":{"ha":522,"x_min":46,"x_max":481,"o":"m 263 851 l 206 750 l 104 750 l 214 922 l 314 922 l 422 750 l 319 750 l 263 851 m 276 688 q 432 621 383 688 q 481 424 481 554 l 372 424 q 351 553 372 514 q 276 593 331 593 q 185 535 214 593 q 156 360 156 478 l 156 313 q 185 136 156 194 q 276 78 214 78 q 354 120 331 78 q 378 249 378 163 l 481 249 q 431 59 481 133 q 276 -15 381 -15 q 101 69 157 -15 q 46 335 46 154 q 101 602 46 517 q 276 688 157 688 z "},"ċ":{"ha":522,"x_min":46,"x_max":481,"o":"m 207 924 l 318 924 l 318 801 l 207 801 l 207 924 m 276 688 q 432 621 383 688 q 481 424 481 554 l 372 424 q 351 553 372 514 q 276 593 331 593 q 185 535 214 593 q 156 360 156 478 l 156 313 q 185 136 156 194 q 276 78 214 78 q 354 120 331 78 q 378 249 378 163 l 481 249 q 431 59 481 133 q 276 -15 381 -15 q 101 69 157 -15 q 46 335 46 154 q 101 602 46 517 q 276 688 157 688 z "},"d":{"ha":582,"x_min":50,"x_max":506,"o":"m 413 78 l 406 78 q 344 8 382 32 q 258 -15 306 -15 q 105 72 160 -15 q 50 336 50 158 q 106 599 50 511 q 251 688 163 688 q 338 666 300 688 q 394 608 376 644 l 401 608 l 401 924 l 506 924 l 506 0 l 426 0 l 413 78 m 281 593 q 190 538 219 593 q 160 360 160 483 l 160 313 q 190 133 160 189 q 281 78 219 78 q 401 313 401 78 l 401 356 q 281 593 401 593 z "},"ð":{"ha":582,"x_min":50,"x_max":532,"o":"m 381 789 q 492 579 453 690 q 532 335 532 468 q 292 -15 532 -15 q 50 335 50 -15 q 112 601 50 514 q 278 688 174 688 q 340 672 304 688 q 269 779 318 715 l 118 765 l 118 842 l 210 851 l 188 876 l 149 918 l 151 924 l 264 924 l 322 861 l 471 875 l 471 797 l 381 789 m 422 360 q 389 534 422 475 q 292 593 356 593 q 160 360 160 593 l 160 313 q 292 78 160 78 q 422 313 422 78 l 422 360 z "},"ď":{"ha":644,"x_min":50,"x_max":685,"o":"m 413 78 l 406 78 q 344 8 382 32 q 258 -15 306 -15 q 105 72 160 -15 q 50 336 50 158 q 106 599 50 511 q 251 688 163 688 q 338 666 300 688 q 394 608 376 644 l 401 608 l 401 924 l 506 924 l 506 0 l 426 0 l 413 78 m 556 579 l 608 738 l 556 738 l 556 875 l 685 875 l 685 750 l 622 579 l 556 579 m 281 593 q 190 538 219 593 q 160 360 160 483 l 160 313 q 190 133 160 189 q 281 78 219 78 q 401 313 401 78 l 401 356 q 281 593 401 593 z "},"đ":{"ha":578,"x_min":50,"x_max":579,"o":"m 579 831 l 579 744 l 506 744 l 506 0 l 426 0 l 413 78 l 406 78 q 344 8 382 32 q 258 -15 306 -15 q 105 72 160 -15 q 50 336 50 158 q 106 599 50 511 q 251 688 163 688 q 338 666 300 688 q 394 608 376 644 l 401 608 l 401 744 l 258 744 l 258 831 l 401 831 l 401 924 l 506 924 l 506 831 l 579 831 m 281 593 q 190 538 219 593 q 160 360 160 483 l 160 313 q 190 133 160 189 q 281 78 219 78 q 401 313 401 78 l 401 356 q 281 593 401 593 z "},"e":{"ha":582,"x_min":53,"x_max":528,"o":"m 306 688 q 474 613 419 688 q 528 371 528 538 l 528 304 l 164 304 q 201 133 165 188 q 311 78 236 78 q 392 119 361 78 q 424 228 424 160 l 528 228 q 467 51 528 117 q 308 -15 407 -15 q 116 68 179 -15 q 53 335 53 151 q 115 601 53 515 q 306 688 178 688 m 306 593 q 205 545 238 593 q 165 399 172 497 l 418 399 q 306 593 418 593 z "},"é":{"ha":582,"x_min":53,"x_max":528,"o":"m 319 754 l 229 754 l 339 924 l 456 924 l 457 918 l 319 754 m 306 688 q 474 613 419 688 q 528 371 528 538 l 528 304 l 164 304 q 201 133 165 188 q 311 78 236 78 q 392 119 361 78 q 424 228 424 160 l 528 228 q 467 51 528 117 q 308 -15 407 -15 q 116 68 179 -15 q 53 335 53 151 q 115 601 53 515 q 306 688 178 688 m 306 593 q 205 545 238 593 q 165 399 172 497 l 418 399 q 306 593 418 593 z "},"ĕ":{"ha":582,"x_min":53,"x_max":528,"o":"m 449 924 q 429 865 449 893 q 374 817 410 836 q 292 799 339 799 q 208 817 244 799 q 153 865 172 836 q 133 924 133 893 l 215 924 q 240 894 219 908 q 292 881 261 881 q 344 894 322 881 q 368 924 365 908 l 449 924 m 306 688 q 474 613 419 688 q 528 371 528 538 l 528 304 l 164 304 q 201 133 165 188 q 311 78 236 78 q 392 119 361 78 q 424 228 424 160 l 528 228 q 467 51 528 117 q 308 -15 407 -15 q 116 68 179 -15 q 53 335 53 151 q 115 601 53 515 q 306 688 178 688 m 306 593 q 205 545 238 593 q 165 399 172 497 l 418 399 q 306 593 418 593 z "},"ě":{"ha":582,"x_min":53,"x_max":528,"o":"m 133 924 l 236 924 l 292 822 l 349 924 l 450 924 l 340 751 l 240 751 l 133 924 m 306 688 q 474 613 419 688 q 528 371 528 538 l 528 304 l 164 304 q 201 133 165 188 q 311 78 236 78 q 392 119 361 78 q 424 228 424 160 l 528 228 q 467 51 528 117 q 308 -15 407 -15 q 116 68 179 -15 q 53 335 53 151 q 115 601 53 515 q 306 688 178 688 m 306 593 q 205 545 238 593 q 165 399 172 497 l 418 399 q 306 593 418 593 z "},"ê":{"ha":582,"x_min":53,"x_max":528,"o":"m 292 851 l 236 750 l 133 750 l 242 922 l 342 922 l 450 750 l 349 750 l 292 851 m 306 688 q 474 613 419 688 q 528 371 528 538 l 528 304 l 164 304 q 201 133 165 188 q 311 78 236 78 q 392 119 361 78 q 424 228 424 160 l 528 228 q 467 51 528 117 q 308 -15 407 -15 q 116 68 179 -15 q 53 335 53 151 q 115 601 53 515 q 306 688 178 688 m 306 593 q 205 545 238 593 q 165 399 172 497 l 418 399 q 306 593 418 593 z "},"ë":{"ha":582,"x_min":53,"x_max":528,"o":"m 139 801 l 139 924 l 250 924 l 250 801 l 139 801 m 331 801 l 331 924 l 443 924 l 443 801 l 331 801 m 306 688 q 474 613 419 688 q 528 371 528 538 l 528 304 l 164 304 q 201 133 165 188 q 311 78 236 78 q 392 119 361 78 q 424 228 424 160 l 528 228 q 467 51 528 117 q 308 -15 407 -15 q 116 68 179 -15 q 53 335 53 151 q 115 601 53 515 q 306 688 178 688 m 306 593 q 205 545 238 593 q 165 399 172 497 l 418 399 q 306 593 418 593 z "},"ė":{"ha":582,"x_min":53,"x_max":528,"o":"m 238 924 l 347 924 l 347 801 l 238 801 l 238 924 m 306 688 q 474 613 419 688 q 528 371 528 538 l 528 304 l 164 304 q 201 133 165 188 q 311 78 236 78 q 392 119 361 78 q 424 228 424 160 l 528 228 q 467 51 528 117 q 308 -15 407 -15 q 116 68 179 -15 q 53 335 53 151 q 115 601 53 515 q 306 688 178 688 m 306 593 q 205 545 238 593 q 165 399 172 497 l 418 399 q 306 593 418 593 z "},"è":{"ha":582,"x_min":53,"x_max":528,"o":"m 293 754 l 156 918 l 157 924 l 272 924 l 382 754 l 293 754 m 306 688 q 474 613 419 688 q 528 371 528 538 l 528 304 l 164 304 q 201 133 165 188 q 311 78 236 78 q 392 119 361 78 q 424 228 424 160 l 528 228 q 467 51 528 117 q 308 -15 407 -15 q 116 68 179 -15 q 53 335 53 151 q 115 601 53 515 q 306 688 178 688 m 306 593 q 205 545 238 593 q 165 399 172 497 l 418 399 q 306 593 418 593 z "},"ē":{"ha":582,"x_min":53,"x_max":528,"o":"m 132 857 l 453 857 l 453 765 l 132 765 l 132 857 m 306 688 q 474 613 419 688 q 528 371 528 538 l 528 304 l 164 304 q 201 133 165 188 q 311 78 236 78 q 392 119 361 78 q 424 228 424 160 l 528 228 q 467 51 528 117 q 308 -15 407 -15 q 116 68 179 -15 q 53 335 53 151 q 115 601 53 515 q 306 688 178 688 m 306 593 q 205 545 238 593 q 165 399 172 497 l 418 399 q 306 593 418 593 z "},"ę":{"ha":582,"x_min":53,"x_max":528,"o":"m 528 304 l 164 304 q 201 133 165 188 q 311 78 236 78 q 392 119 361 78 q 424 228 424 160 l 528 228 q 497 94 528 150 q 413 8 467 38 q 387 -31 399 -7 q 375 -79 375 -54 q 390 -128 375 -108 q 433 -149 404 -149 l 474 -149 l 474 -215 q 396 -232 426 -232 q 312 -205 347 -232 q 276 -117 276 -178 q 311 -15 276 -60 l 308 -15 q 116 68 179 -15 q 53 335 53 151 q 115 601 53 515 q 306 688 178 688 q 474 613 419 688 q 528 371 528 538 l 528 304 m 418 399 q 306 593 418 593 q 205 545 238 593 q 165 399 172 497 l 418 399 z "},"f":{"ha":292,"x_min":11,"x_max":292,"o":"m 204 933 q 292 918 251 933 l 292 844 l 236 844 q 175 785 175 844 l 175 672 l 292 672 l 292 578 l 175 578 l 175 0 l 71 0 l 71 578 l 11 578 l 11 672 l 71 672 l 71 779 q 102 889 71 844 q 204 933 133 933 z "},"g":{"ha":582,"x_min":15,"x_max":569,"o":"m 556 781 q 526 676 556 719 q 444 619 496 633 q 504 461 504 556 q 447 297 504 357 q 290 236 389 238 l 219 236 q 176 218 193 236 q 158 175 158 200 q 176 133 158 150 q 219 115 194 115 l 411 115 q 526 69 482 115 q 569 -42 569 24 q 517 -178 569 -125 q 372 -232 465 -232 l 182 -232 q 59 -187 103 -232 q 15 -72 15 -142 q 39 15 15 -24 q 104 71 63 54 q 63 115 78 88 q 49 171 49 142 q 74 241 49 211 q 143 288 100 271 q 85 361 106 317 q 65 461 65 406 q 124 627 65 567 q 285 688 183 688 q 382 663 336 688 q 442 714 424 685 q 465 781 460 743 l 556 781 m 283 600 q 200 563 229 600 q 171 461 171 526 q 199 358 171 393 q 283 322 228 322 q 369 359 339 322 q 399 461 399 396 q 369 564 399 528 q 283 600 339 600 m 200 15 q 141 -6 161 15 q 121 -62 121 -28 q 142 -119 121 -97 q 200 -142 163 -142 l 385 -142 q 441 -118 418 -142 q 464 -62 464 -94 q 443 -7 464 -29 q 385 15 422 15 l 200 15 z "},"ğ":{"ha":582,"x_min":15,"x_max":569,"o":"m 449 924 q 429 865 449 893 q 374 817 410 836 q 292 799 339 799 q 208 817 244 799 q 153 865 172 836 q 133 924 133 893 l 215 924 q 240 894 219 908 q 292 881 261 881 q 344 894 322 881 q 368 924 365 908 l 449 924 m 556 781 q 526 676 556 719 q 444 619 496 633 q 504 461 504 556 q 447 297 504 357 q 290 236 389 238 l 219 236 q 176 218 193 236 q 158 175 158 200 q 176 133 158 150 q 219 115 194 115 l 411 115 q 526 69 482 115 q 569 -42 569 24 q 517 -178 569 -125 q 372 -232 465 -232 l 182 -232 q 59 -187 103 -232 q 15 -72 15 -142 q 39 15 15 -24 q 104 71 63 54 q 63 115 78 88 q 49 171 49 142 q 74 241 49 211 q 143 288 100 271 q 85 361 106 317 q 65 461 65 406 q 124 627 65 567 q 285 688 183 688 q 382 663 336 688 q 442 714 424 685 q 465 781 460 743 l 556 781 m 283 600 q 200 563 229 600 q 171 461 171 526 q 199 358 171 393 q 283 322 228 322 q 369 359 339 322 q 399 461 399 396 q 369 564 399 528 q 283 600 339 600 m 200 15 q 141 -6 161 15 q 121 -62 121 -28 q 142 -119 121 -97 q 200 -142 163 -142 l 385 -142 q 441 -118 418 -142 q 464 -62 464 -94 q 443 -7 464 -29 q 385 15 422 15 l 200 15 z "},"ĝ":{"ha":582,"x_min":15,"x_max":569,"o":"m 292 851 l 236 750 l 133 750 l 242 922 l 342 922 l 450 750 l 349 750 l 292 851 m 556 781 q 526 676 556 719 q 444 619 496 633 q 504 461 504 556 q 447 297 504 357 q 290 236 389 238 l 219 236 q 176 218 193 236 q 158 175 158 200 q 176 133 158 150 q 219 115 194 115 l 411 115 q 526 69 482 115 q 569 -42 569 24 q 517 -178 569 -125 q 372 -232 465 -232 l 182 -232 q 59 -187 103 -232 q 15 -72 15 -142 q 39 15 15 -24 q 104 71 63 54 q 63 115 78 88 q 49 171 49 142 q 74 241 49 211 q 143 288 100 271 q 85 361 106 317 q 65 461 65 406 q 124 627 65 567 q 285 688 183 688 q 382 663 336 688 q 450 712 431 688 q 471 781 469 736 l 556 781 m 283 600 q 200 563 229 600 q 171 461 171 526 q 199 358 171 393 q 283 322 228 322 q 369 359 339 322 q 399 461 399 396 q 369 564 399 528 q 283 600 339 600 m 200 15 q 141 -6 161 15 q 121 -62 121 -28 q 142 -119 121 -97 q 200 -142 163 -142 l 385 -142 q 441 -118 418 -142 q 464 -62 464 -94 q 443 -7 464 -29 q 385 15 422 15 l 200 15 z "},"ģ":{"ha":582,"x_min":15,"x_max":569,"o":"m 326 875 l 326 760 l 217 760 l 217 867 l 256 967 l 313 967 l 283 875 l 326 875 m 556 781 q 526 676 556 719 q 444 619 496 633 q 504 461 504 556 q 447 297 504 357 q 290 236 389 238 l 219 236 q 176 218 193 236 q 158 175 158 200 q 176 133 158 150 q 219 115 194 115 l 411 115 q 526 69 482 115 q 569 -42 569 24 q 517 -178 569 -125 q 372 -232 465 -232 l 182 -232 q 59 -187 103 -232 q 15 -72 15 -142 q 39 15 15 -24 q 104 71 63 54 q 63 115 78 88 q 49 171 49 142 q 74 241 49 211 q 143 288 100 271 q 85 361 106 317 q 65 461 65 406 q 124 627 65 567 q 285 688 183 688 q 382 663 336 688 q 442 714 424 685 q 465 781 460 743 l 556 781 m 283 600 q 200 563 229 600 q 171 461 171 526 q 199 358 171 393 q 283 322 228 322 q 369 359 339 322 q 399 461 399 396 q 369 564 399 528 q 283 600 339 600 m 200 15 q 141 -6 161 15 q 121 -62 121 -28 q 142 -119 121 -97 q 200 -142 163 -142 l 385 -142 q 441 -118 418 -142 q 464 -62 464 -94 q 443 -7 464 -29 q 385 15 422 15 l 200 15 z "},"ġ":{"ha":582,"x_min":15,"x_max":569,"o":"m 238 924 l 347 924 l 347 801 l 238 801 l 238 924 m 556 781 q 526 676 556 719 q 444 619 496 633 q 504 461 504 556 q 447 297 504 357 q 290 236 389 238 l 219 236 q 176 218 193 236 q 158 175 158 200 q 176 133 158 150 q 219 115 194 115 l 411 115 q 526 69 482 115 q 569 -42 569 24 q 517 -178 569 -125 q 372 -232 465 -232 l 182 -232 q 59 -187 103 -232 q 15 -72 15 -142 q 39 15 15 -24 q 104 71 63 54 q 63 115 78 88 q 49 171 49 142 q 74 241 49 211 q 143 288 100 271 q 85 361 106 317 q 65 461 65 406 q 124 627 65 567 q 285 688 183 688 q 382 663 336 688 q 442 714 424 685 q 465 781 460 743 l 556 781 m 283 600 q 200 563 229 600 q 171 461 171 526 q 199 358 171 393 q 283 322 228 322 q 369 359 339 322 q 399 461 399 396 q 369 564 399 528 q 283 600 339 600 m 200 15 q 141 -6 161 15 q 121 -62 121 -28 q 142 -119 121 -97 q 200 -142 163 -142 l 385 -142 q 441 -118 418 -142 q 464 -62 464 -94 q 443 -7 464 -29 q 385 15 422 15 l 200 15 z "},"h":{"ha":582,"x_min":76,"x_max":506,"o":"m 189 601 q 339 688 239 688 q 463 640 419 688 q 506 483 506 592 l 506 0 l 401 0 l 401 476 q 377 567 401 542 q 306 593 353 593 q 218 544 254 593 q 182 410 182 494 l 182 0 l 76 0 l 76 924 l 182 924 l 182 601 l 189 601 z "},"ħ":{"ha":582,"x_min":0,"x_max":506,"o":"m 319 831 l 319 744 l 182 744 l 182 601 l 189 601 q 339 688 239 688 q 463 640 419 688 q 506 483 506 592 l 506 0 l 401 0 l 401 476 q 377 567 401 542 q 306 593 353 593 q 218 544 254 593 q 182 410 182 494 l 182 0 l 76 0 l 76 744 l 0 744 l 0 831 l 76 831 l 76 924 l 182 924 l 182 831 l 319 831 z "},"ĥ":{"ha":582,"x_min":-28,"x_max":506,"o":"m 133 1054 l 75 953 l -28 953 l 82 1126 l 182 1126 l 292 953 l 189 953 l 133 1054 m 189 601 q 339 688 239 688 q 463 640 419 688 q 506 483 506 592 l 506 0 l 401 0 l 401 476 q 377 567 401 542 q 306 593 353 593 q 218 544 254 593 q 182 410 182 494 l 182 0 l 76 0 l 76 924 l 182 924 l 182 601 l 189 601 z "},"i":{"ha":232,"x_min":64,"x_max":169,"o":"m 64 924 l 169 924 l 169 797 l 64 797 l 64 924 m 64 672 l 169 672 l 169 0 l 64 0 l 64 672 z "},"ı":{"ha":292,"x_min":94,"x_max":197,"o":"m 94 672 l 197 672 l 197 0 l 94 0 l 94 672 z "},"í":{"ha":292,"x_min":71,"x_max":294,"o":"m 158 754 l 71 754 l 181 924 l 293 924 l 294 918 l 158 754 m 94 0 l 94 672 l 197 672 l 197 0 l 94 0 z "},"ĭ":{"ha":292,"x_min":-12,"x_max":303,"o":"m 303 924 q 283 865 303 893 q 228 817 264 836 q 146 799 193 799 q 64 817 100 799 q 8 865 28 836 q -12 924 -12 893 l 71 924 q 95 894 74 908 q 146 881 117 881 q 198 894 176 881 q 222 924 219 908 l 303 924 m 94 672 l 197 672 l 197 0 l 94 0 l 94 672 z "},"î":{"ha":292,"x_min":-14,"x_max":304,"o":"m 147 851 l 89 750 l -14 750 l 97 922 l 196 922 l 304 750 l 204 750 l 147 851 m 94 672 l 197 672 l 197 0 l 94 0 l 94 672 z "},"ï":{"ha":292,"x_min":-6,"x_max":297,"o":"m -6 801 l -6 924 l 106 924 l 106 801 l -6 801 m 186 801 l 186 924 l 297 924 l 297 801 l 186 801 m 94 0 l 94 672 l 197 672 l 197 0 l 94 0 z "},"ì":{"ha":292,"x_min":-4,"x_max":222,"o":"m 135 754 l -4 918 l -3 924 l 113 924 l 222 754 l 135 754 m 94 0 l 94 672 l 197 672 l 197 0 l 94 0 z "},"ĳ":{"ha":465,"x_min":64,"x_max":401,"o":"m 64 797 l 64 924 l 169 924 l 169 797 l 64 797 m 296 797 l 296 924 l 401 924 l 401 797 l 296 797 m 64 0 l 64 672 l 169 672 l 169 0 l 64 0 m 401 -78 q 370 -187 401 -143 q 268 -232 339 -232 q 181 -217 221 -232 l 181 -144 l 238 -144 q 296 -82 296 -144 l 296 672 l 401 672 l 401 -78 z "},"ī":{"ha":292,"x_min":-14,"x_max":306,"o":"m -14 857 l 306 857 l 306 765 l -14 765 l -14 857 m 94 672 l 197 672 l 197 0 l 94 0 l 94 672 z "},"į":{"ha":232,"x_min":39,"x_max":238,"o":"m 61 801 l 61 924 l 174 924 l 174 801 l 61 801 m 169 0 q 138 -79 138 -40 q 151 -129 138 -110 q 194 -149 165 -149 l 238 -149 l 238 -215 q 158 -232 190 -232 q 74 -205 110 -232 q 39 -117 39 -178 q 51 -53 39 -81 q 85 0 63 -25 l 64 0 l 64 672 l 169 672 l 169 0 z "},"ĩ":{"ha":292,"x_min":-40,"x_max":332,"o":"m 332 924 q 304 831 332 872 q 224 790 276 790 q 149 811 193 790 q 76 831 101 831 q 47 822 58 831 q 33 790 36 813 l -40 790 q -12 883 -40 842 q 68 924 15 924 q 106 917 86 924 q 144 903 126 911 q 181 890 163 896 q 215 883 199 883 q 258 924 253 883 l 332 924 m 94 672 l 197 672 l 197 0 l 94 0 l 94 672 z "},"j":{"ha":232,"x_min":-51,"x_max":169,"o":"m 64 924 l 169 924 l 169 797 l 64 797 l 64 924 m 169 -78 q 138 -187 169 -143 q 36 -232 107 -232 q -10 -228 14 -232 q -51 -217 -35 -224 l -51 -144 l 4 -144 q 49 -128 33 -144 q 64 -82 64 -112 l 64 672 l 169 672 l 169 -78 z "},"ĵ":{"ha":232,"x_min":-51,"x_max":276,"o":"m 117 851 l 60 750 l -43 750 l 67 922 l 167 922 l 276 750 l 174 750 l 117 851 m 169 -78 q 138 -187 169 -143 q 36 -232 107 -232 q -10 -228 14 -232 q -51 -217 -35 -224 l -51 -144 l 4 -144 q 49 -128 33 -144 q 64 -82 64 -112 l 64 672 l 169 672 l 169 -78 z "},"k":{"ha":522,"x_min":76,"x_max":525,"o":"m 514 672 l 317 396 l 525 0 l 406 0 l 253 306 l 182 228 l 182 0 l 76 0 l 76 924 l 182 924 l 182 360 l 399 672 l 514 672 z "},"ķ":{"ha":522,"x_min":76,"x_max":525,"o":"m 514 672 l 317 396 l 525 0 l 406 0 l 253 306 l 182 228 l 182 0 l 76 0 l 76 924 l 182 924 l 182 360 l 399 672 l 514 672 m 222 -283 l 251 -192 l 208 -192 l 208 -76 l 317 -76 l 317 -183 l 281 -283 l 222 -283 z "},"ĸ":{"ha":521,"x_min":76,"x_max":525,"o":"m 406 0 l 253 306 l 182 228 l 182 0 l 76 0 l 76 672 l 182 672 l 182 360 l 399 672 l 514 672 l 317 396 l 525 0 l 406 0 z "},"l":{"ha":232,"x_min":64,"x_max":169,"o":"m 64 924 l 169 924 l 169 0 l 64 0 l 64 924 z "},"ĺ":{"ha":232,"x_min":40,"x_max":265,"o":"m 129 960 l 40 960 l 150 1128 l 265 1128 l 265 1124 l 129 960 m 64 0 l 64 924 l 169 924 l 169 0 l 64 0 z "},"ľ":{"ha":304,"x_min":64,"x_max":347,"o":"m 64 924 l 169 924 l 169 0 l 64 0 l 64 924 m 219 579 l 269 738 l 219 738 l 219 875 l 347 875 l 347 750 l 286 579 l 219 579 z "},"ļ":{"ha":232,"x_min":63,"x_max":171,"o":"m 64 924 l 169 924 l 169 0 l 64 0 l 64 924 m 78 -283 l 106 -192 l 63 -192 l 63 -76 l 171 -76 l 171 -183 l 135 -283 l 78 -283 z "},"ŀ":{"ha":413,"x_min":64,"x_max":349,"o":"m 64 924 l 169 924 l 169 0 l 64 0 l 64 924 m 219 510 l 349 510 l 349 368 l 219 368 l 219 510 z "},"ł":{"ha":232,"x_min":-28,"x_max":281,"o":"m 281 506 l 169 407 l 169 0 l 64 0 l 64 314 l -28 236 l -28 325 l 64 406 l 64 924 l 169 924 l 169 500 l 281 599 l 281 506 z "},"m":{"ha":872,"x_min":76,"x_max":796,"o":"m 638 688 q 796 483 796 688 l 796 0 l 690 0 l 690 476 q 668 567 690 542 q 604 593 646 593 q 523 544 556 593 q 490 410 490 494 l 490 0 l 385 0 l 385 476 q 362 567 385 542 q 297 593 339 593 q 215 544 249 593 q 182 410 182 494 l 182 0 l 76 0 l 76 672 l 156 672 l 171 593 l 178 593 q 331 688 229 688 q 474 589 438 688 q 544 662 500 636 q 638 688 588 688 z "},"n":{"ha":582,"x_min":76,"x_max":506,"o":"m 339 688 q 463 640 419 688 q 506 483 506 592 l 506 0 l 401 0 l 401 476 q 377 567 401 542 q 306 593 353 593 q 218 544 254 593 q 182 410 182 494 l 182 0 l 76 0 l 76 672 l 156 672 l 171 593 l 178 593 q 339 688 231 688 z "},"ń":{"ha":582,"x_min":76,"x_max":506,"o":"m 303 754 l 215 754 l 325 924 l 439 924 l 440 918 l 303 754 m 339 688 q 463 640 419 688 q 506 483 506 592 l 506 0 l 401 0 l 401 476 q 377 567 401 542 q 306 593 353 593 q 218 544 254 593 q 182 410 182 494 l 182 0 l 76 0 l 76 672 l 156 672 l 171 593 l 178 593 q 339 688 231 688 z "},"ŉ":{"ha":732,"x_min":61,"x_max":654,"o":"m 133 667 l 75 667 l 104 758 l 61 758 l 61 875 l 171 875 l 171 767 l 133 667 m 490 688 q 654 483 654 688 l 654 0 l 550 0 l 550 476 q 526 567 550 542 q 456 593 501 593 q 367 543 404 593 q 331 410 331 493 l 331 0 l 225 0 l 225 672 l 304 672 l 319 593 l 326 593 q 490 688 379 688 z "},"ň":{"ha":582,"x_min":76,"x_max":506,"o":"m 133 924 l 236 924 l 292 822 l 349 924 l 450 924 l 340 751 l 240 751 l 133 924 m 339 688 q 463 640 419 688 q 506 483 506 592 l 506 0 l 401 0 l 401 476 q 377 567 401 542 q 306 593 353 593 q 218 544 254 593 q 182 410 182 494 l 182 0 l 76 0 l 76 672 l 156 672 l 171 593 l 178 593 q 339 688 231 688 z "},"ņ":{"ha":582,"x_min":76,"x_max":506,"o":"m 339 688 q 463 640 419 688 q 506 483 506 592 l 506 0 l 401 0 l 401 476 q 377 567 401 542 q 306 593 353 593 q 218 544 254 593 q 182 410 182 494 l 182 0 l 76 0 l 76 672 l 156 672 l 171 593 l 178 593 q 339 688 231 688 m 251 -283 l 281 -192 l 238 -192 l 238 -76 l 347 -76 l 347 -183 l 310 -283 l 251 -283 z "},"ŋ":{"ha":582,"x_min":76,"x_max":506,"o":"m 339 688 q 463 640 419 688 q 506 483 506 592 l 506 -78 q 474 -187 506 -143 q 372 -232 443 -232 q 326 -228 350 -232 q 285 -217 301 -224 l 285 -144 l 340 -144 q 401 -82 401 -144 l 401 476 q 377 567 401 542 q 306 593 353 593 q 218 544 254 593 q 182 410 182 494 l 182 0 l 76 0 l 76 672 l 156 672 l 171 593 l 178 593 q 339 688 231 688 z "},"ñ":{"ha":582,"x_min":76,"x_max":506,"o":"m 478 924 q 450 831 478 872 q 368 790 422 790 q 321 800 344 790 q 292 811 297 810 q 254 826 269 821 q 222 831 239 831 q 179 790 183 831 l 104 790 q 133 883 104 842 q 214 924 161 924 q 252 917 232 924 q 290 903 272 911 q 326 890 307 896 q 360 883 344 883 q 403 924 399 883 l 478 924 m 339 688 q 463 640 419 688 q 506 483 506 592 l 506 0 l 401 0 l 401 476 q 377 567 401 542 q 306 593 353 593 q 218 544 254 593 q 182 410 182 494 l 182 0 l 76 0 l 76 672 l 156 672 l 171 593 l 178 593 q 339 688 231 688 z "},"o":{"ha":582,"x_min":50,"x_max":532,"o":"m 292 688 q 532 335 532 688 q 292 -15 532 -15 q 50 335 50 -15 q 292 688 50 688 m 292 593 q 160 360 160 593 l 160 313 q 292 78 160 78 q 422 313 422 78 l 422 360 q 390 534 422 475 q 292 593 357 593 z "},"ó":{"ha":582,"x_min":50,"x_max":532,"o":"m 303 754 l 215 754 l 325 924 l 439 924 l 440 918 l 303 754 m 292 688 q 532 335 532 688 q 292 -15 532 -15 q 50 335 50 -15 q 292 688 50 688 m 292 593 q 160 360 160 593 l 160 313 q 292 78 160 78 q 422 313 422 78 l 422 360 q 390 534 422 475 q 292 593 357 593 z "},"ŏ":{"ha":582,"x_min":50,"x_max":532,"o":"m 449 924 q 429 865 449 893 q 374 817 410 836 q 292 799 339 799 q 208 817 244 799 q 153 865 172 836 q 133 924 133 893 l 215 924 q 240 894 219 908 q 292 881 261 881 q 344 894 322 881 q 368 924 365 908 l 449 924 m 292 688 q 532 335 532 688 q 292 -15 532 -15 q 50 335 50 -15 q 292 688 50 688 m 292 593 q 160 360 160 593 l 160 313 q 292 78 160 78 q 422 313 422 78 l 422 360 q 390 534 422 475 q 292 593 357 593 z "},"ô":{"ha":582,"x_min":50,"x_max":532,"o":"m 292 851 l 236 750 l 133 750 l 242 922 l 342 922 l 450 750 l 349 750 l 292 851 m 292 688 q 532 335 532 688 q 292 -15 532 -15 q 50 335 50 -15 q 292 688 50 688 m 292 593 q 160 360 160 593 l 160 313 q 292 78 160 78 q 422 313 422 78 l 422 360 q 390 534 422 475 q 292 593 357 593 z "},"ö":{"ha":582,"x_min":50,"x_max":532,"o":"m 139 801 l 139 924 l 250 924 l 250 801 l 139 801 m 331 801 l 331 924 l 443 924 l 443 801 l 331 801 m 292 688 q 532 335 532 688 q 292 -15 532 -15 q 50 335 50 -15 q 292 688 50 688 m 292 593 q 160 360 160 593 l 160 313 q 292 78 160 78 q 422 313 422 78 l 422 360 q 390 534 422 475 q 292 593 357 593 z "},"ò":{"ha":582,"x_min":50,"x_max":532,"o":"m 281 754 l 140 918 l 142 924 l 258 924 l 368 754 l 281 754 m 292 688 q 532 335 532 688 q 292 -15 532 -15 q 50 335 50 -15 q 292 688 50 688 m 292 593 q 160 360 160 593 l 160 313 q 292 78 160 78 q 422 313 422 78 l 422 360 q 390 534 422 475 q 292 593 357 593 z "},"ő":{"ha":582,"x_min":50,"x_max":532,"o":"m 169 754 l 247 924 l 363 924 l 364 918 l 257 754 l 169 754 m 335 754 l 414 924 l 531 924 l 532 918 l 424 754 l 335 754 m 292 688 q 532 335 532 688 q 292 -15 532 -15 q 50 335 50 -15 q 292 688 50 688 m 292 593 q 160 360 160 593 l 160 313 q 292 78 160 78 q 422 313 422 78 l 422 360 q 390 534 422 475 q 292 593 357 593 z "},"ō":{"ha":582,"x_min":50,"x_max":532,"o":"m 132 857 l 453 857 l 453 765 l 132 765 l 132 857 m 292 688 q 532 335 532 688 q 292 -15 532 -15 q 50 335 50 -15 q 292 688 50 688 m 292 593 q 160 360 160 593 l 160 313 q 292 78 160 78 q 422 313 422 78 l 422 360 q 390 534 422 475 q 292 593 357 593 z "},"ø":{"ha":640,"x_min":79,"x_max":558,"o":"m 499 601 q 558 335 558 517 q 499 71 558 157 q 319 -15 439 -15 q 183 25 236 -15 l 149 -40 l 79 -40 l 139 71 q 79 335 79 158 q 140 601 79 515 q 319 688 200 688 q 454 647 401 688 l 490 713 l 558 713 l 499 601 m 319 593 q 189 360 189 593 l 189 313 q 203 185 189 228 l 403 556 q 319 593 372 593 m 236 115 q 319 78 267 78 q 449 313 449 78 l 449 360 q 435 485 449 439 l 236 115 z "},"ǿ":{"ha":640,"x_min":79,"x_max":558,"o":"m 332 754 l 244 754 l 354 924 l 468 924 l 469 918 l 332 754 m 499 601 q 558 335 558 517 q 499 71 558 157 q 319 -15 439 -15 q 183 25 236 -15 l 149 -40 l 79 -40 l 139 71 q 79 335 79 158 q 140 601 79 515 q 319 688 200 688 q 454 647 401 688 l 490 713 l 558 713 l 499 601 m 319 593 q 189 360 189 593 l 189 313 q 203 185 189 228 l 403 556 q 319 593 372 593 m 236 115 q 319 78 267 78 q 449 313 449 78 l 449 360 q 435 485 449 439 l 236 115 z "},"õ":{"ha":582,"x_min":50,"x_max":532,"o":"m 478 924 q 450 831 478 872 q 368 790 422 790 q 321 800 344 790 q 292 811 297 810 q 254 826 269 821 q 222 831 239 831 q 179 790 183 831 l 104 790 q 133 883 104 842 q 214 924 161 924 q 252 917 232 924 q 290 903 272 911 q 326 890 307 896 q 360 883 344 883 q 403 924 399 883 l 478 924 m 292 688 q 532 335 532 688 q 292 -15 532 -15 q 50 335 50 -15 q 292 688 50 688 m 292 593 q 160 360 160 593 l 160 313 q 292 78 160 78 q 422 313 422 78 l 422 360 q 390 534 422 475 q 292 593 357 593 z "},"œ":{"ha":988,"x_min":68,"x_max":914,"o":"m 693 688 q 860 613 806 688 q 914 371 914 538 l 914 304 l 550 304 q 588 133 551 188 q 697 78 624 78 q 778 119 747 78 q 810 228 810 160 l 914 228 q 853 51 914 117 q 694 -15 793 -15 q 494 82 554 -15 q 308 -15 438 -15 q 128 71 189 -15 q 68 335 68 157 q 128 601 68 515 q 308 688 189 688 q 494 589 436 688 q 693 688 557 688 m 308 593 q 178 360 178 593 l 178 313 q 308 78 178 78 q 438 313 438 78 l 438 360 q 308 593 438 593 m 693 593 q 592 546 625 593 q 551 399 558 499 l 804 399 q 776 544 804 494 q 693 593 747 593 z "},"p":{"ha":582,"x_min":76,"x_max":532,"o":"m 324 688 q 477 601 422 688 q 532 335 532 514 q 476 73 532 161 q 331 -15 419 -15 q 244 5 282 -15 q 188 60 206 25 l 182 60 l 182 -221 l 76 -221 l 76 672 l 156 672 l 171 593 l 176 593 q 238 663 200 639 q 324 688 276 688 m 301 593 q 182 360 182 593 l 182 313 q 301 78 182 78 q 392 133 363 78 q 422 313 422 189 l 422 360 q 392 538 422 483 q 301 593 363 593 z "},"þ":{"ha":582,"x_min":76,"x_max":532,"o":"m 186 611 q 243 667 207 646 q 324 688 279 688 q 477 601 422 688 q 532 335 532 514 q 476 73 532 161 q 331 -15 419 -15 q 244 5 282 -15 q 188 60 206 25 l 182 60 l 182 -221 l 76 -221 l 76 924 l 182 924 l 182 613 l 186 611 m 301 593 q 182 360 182 593 l 182 313 q 301 78 182 78 q 392 133 363 78 q 422 313 422 189 l 422 360 q 392 538 422 483 q 301 593 363 593 z "},"q":{"ha":582,"x_min":50,"x_max":506,"o":"m 258 688 q 344 663 306 688 q 406 593 382 639 l 413 593 l 426 672 l 506 672 l 506 -221 l 401 -221 l 401 60 l 394 60 q 338 5 376 25 q 251 -15 300 -15 q 106 73 163 -15 q 50 335 50 161 q 105 601 50 514 q 258 688 160 688 m 281 593 q 190 538 219 593 q 160 360 160 483 l 160 313 q 190 133 160 189 q 281 78 219 78 q 401 313 401 78 l 401 360 q 281 593 401 593 z "},"r":{"ha":349,"x_min":76,"x_max":340,"o":"m 292 688 q 322 683 308 688 q 340 678 336 679 l 340 568 l 306 568 q 217 531 251 568 q 182 410 182 493 l 182 0 l 76 0 l 76 672 l 156 672 l 171 583 l 178 583 q 219 658 192 628 q 292 688 247 688 z "},"ŕ":{"ha":349,"x_min":42,"x_max":340,"o":"m 132 754 l 42 754 l 151 924 l 267 924 l 268 918 l 132 754 m 292 688 q 322 683 308 688 q 340 678 336 679 l 340 568 l 306 568 q 217 531 251 568 q 182 410 182 493 l 182 0 l 76 0 l 76 672 l 156 672 l 171 583 l 178 583 q 219 658 192 628 q 292 688 247 688 z "},"ř":{"ha":349,"x_min":-4,"x_max":340,"o":"m -4 924 l 100 924 l 156 822 l 214 924 l 315 924 l 206 751 l 106 751 l -4 924 m 292 688 q 322 683 308 688 q 340 678 336 679 l 340 568 l 306 568 q 217 531 251 568 q 182 410 182 493 l 182 0 l 76 0 l 76 672 l 156 672 l 171 583 l 178 583 q 219 658 192 628 q 292 688 247 688 z "},"ŗ":{"ha":349,"x_min":76,"x_max":340,"o":"m 292 688 q 322 683 308 688 q 340 678 336 679 l 340 568 l 306 568 q 217 531 251 568 q 182 410 182 493 l 182 0 l 76 0 l 76 672 l 156 672 l 171 583 l 178 583 q 219 658 192 628 q 292 688 247 688 m 100 -283 l 129 -192 l 83 -192 l 83 -76 l 193 -76 l 193 -183 l 157 -283 l 100 -283 z "},"s":{"ha":522,"x_min":42,"x_max":472,"o":"m 267 688 q 408 635 357 688 q 460 503 460 582 l 458 478 l 350 478 l 350 490 q 328 565 350 535 q 257 594 306 594 q 187 567 207 594 q 167 503 167 539 q 197 440 167 461 q 289 397 226 418 q 383 358 346 378 q 446 297 419 338 q 472 192 472 257 q 414 36 472 88 q 258 -15 356 -15 q 96 42 150 -15 q 42 182 42 99 q 42 203 42 197 q 43 210 43 208 l 153 210 l 153 196 q 183 106 153 136 q 263 76 214 76 q 335 103 306 76 q 364 176 364 129 q 347 235 364 213 q 303 272 329 258 q 232 301 278 285 q 141 341 175 322 q 83 397 107 360 q 58 496 58 435 q 115 636 58 585 q 267 688 171 688 z "},"ś":{"ha":522,"x_min":42,"x_max":472,"o":"m 275 754 l 186 754 l 294 924 l 410 924 l 411 918 l 275 754 m 267 688 q 408 635 357 688 q 460 503 460 582 l 458 478 l 350 478 l 350 490 q 328 565 350 535 q 257 594 306 594 q 187 567 207 594 q 167 503 167 539 q 197 440 167 461 q 289 397 226 418 q 383 358 346 378 q 446 297 419 338 q 472 192 472 257 q 414 36 472 88 q 258 -15 356 -15 q 96 42 150 -15 q 42 182 42 99 q 42 203 42 197 q 43 210 43 208 l 153 210 l 153 196 q 183 106 153 136 q 263 76 214 76 q 335 103 306 76 q 364 176 364 129 q 347 235 364 213 q 303 272 329 258 q 232 301 278 285 q 141 341 175 322 q 83 397 107 360 q 58 496 58 435 q 115 636 58 585 q 267 688 171 688 z "},"š":{"ha":522,"x_min":42,"x_max":472,"o":"m 213 751 l 104 924 l 206 924 l 261 822 l 319 924 l 422 924 l 313 751 l 213 751 m 267 688 q 408 635 357 688 q 460 503 460 582 l 458 478 l 350 478 l 350 490 q 328 565 350 535 q 257 594 306 594 q 187 567 207 594 q 167 503 167 539 q 197 440 167 461 q 289 397 226 418 q 383 358 346 378 q 446 297 419 338 q 472 192 472 257 q 414 36 472 88 q 258 -15 356 -15 q 96 42 150 -15 q 42 182 42 99 q 42 203 42 197 q 43 210 43 208 l 153 210 l 153 196 q 183 106 153 136 q 263 76 214 76 q 335 103 306 76 q 364 176 364 129 q 347 235 364 213 q 303 272 329 258 q 232 301 278 285 q 141 341 175 322 q 83 397 107 360 q 58 496 58 435 q 115 636 58 585 q 267 688 171 688 z "},"ş":{"ha":522,"x_min":42,"x_max":472,"o":"m 267 688 q 408 635 357 688 q 460 503 460 582 l 458 478 l 350 478 l 350 490 q 328 565 350 535 q 257 594 306 594 q 187 567 207 594 q 167 503 167 539 q 197 440 167 461 q 289 397 226 418 q 383 358 346 378 q 446 297 419 338 q 472 192 472 257 q 421 44 472 94 q 282 -14 369 -7 l 279 -46 q 353 -69 325 -49 q 382 -129 382 -89 q 342 -209 382 -186 q 249 -232 301 -232 q 142 -222 196 -232 l 142 -160 l 239 -160 q 285 -129 285 -160 q 275 -106 285 -112 q 242 -99 265 -99 l 200 -99 l 213 -12 q 85 54 128 -1 q 42 182 42 110 q 42 203 42 197 q 43 210 43 208 l 153 210 l 153 196 q 183 106 153 136 q 263 76 214 76 q 335 103 306 76 q 364 176 364 129 q 347 235 364 213 q 303 272 329 258 q 232 301 278 285 q 141 341 175 322 q 83 397 107 360 q 58 496 58 435 q 115 636 58 585 q 267 688 171 688 z "},"ŝ":{"ha":522,"x_min":42,"x_max":472,"o":"m 319 750 l 263 851 l 206 750 l 104 750 l 214 922 l 314 922 l 422 750 l 319 750 m 267 688 q 408 635 357 688 q 460 503 460 582 l 458 478 l 350 478 l 350 490 q 328 565 350 535 q 257 594 306 594 q 187 567 207 594 q 167 503 167 539 q 197 440 167 461 q 289 397 226 418 q 383 358 346 378 q 446 297 419 338 q 472 192 472 257 q 414 36 472 88 q 258 -15 356 -15 q 96 42 150 -15 q 42 182 42 99 q 42 203 42 197 q 43 210 43 208 l 153 210 l 153 196 q 183 106 153 136 q 263 76 214 76 q 335 103 306 76 q 364 176 364 129 q 347 235 364 213 q 303 272 329 258 q 232 301 278 285 q 141 341 175 322 q 83 397 107 360 q 58 496 58 435 q 115 636 58 585 q 267 688 171 688 z "},"ș":{"ha":522,"x_min":42,"x_max":472,"o":"m 42 0 m 267 688 q 408 635 357 688 q 460 503 460 582 l 458 478 l 350 478 l 350 490 q 328 565 350 535 q 257 594 306 594 q 187 567 207 594 q 167 503 167 539 q 197 440 167 461 q 289 397 226 418 q 383 358 346 378 q 446 297 419 338 q 472 192 472 257 q 414 36 472 88 q 258 -15 356 -15 q 96 42 150 -15 q 42 182 42 99 q 42 203 42 197 q 43 210 43 208 l 153 210 l 153 196 q 183 106 153 136 q 263 76 214 76 q 335 103 306 76 q 364 176 364 129 q 347 235 364 213 q 303 272 329 258 q 232 301 278 285 q 141 341 175 322 q 83 397 107 360 q 58 496 58 435 q 115 636 58 585 q 267 688 171 688 m 219 -283 l 250 -192 l 207 -192 l 207 -76 l 315 -76 l 315 -183 l 278 -283 l 219 -283 z "},"ß":{"ha":640,"x_min":64,"x_max":590,"o":"m 325 939 q 498 874 431 939 q 565 699 565 810 q 531 581 565 636 q 443 504 496 526 l 443 500 q 549 412 508 476 q 590 274 590 347 q 556 131 590 193 q 464 34 522 68 q 335 0 406 0 l 240 0 l 240 94 l 325 94 q 404 119 368 94 q 462 185 440 143 q 483 275 483 226 q 437 395 483 344 q 325 446 390 446 l 240 446 l 240 540 l 315 540 q 415 586 374 540 q 457 696 457 632 q 421 805 457 765 q 318 844 385 844 q 209 798 249 844 q 169 661 169 751 l 169 0 l 64 0 l 64 658 q 136 870 64 801 q 325 939 208 939 z "},"ſ":{"ha":232,"x_min":11,"x_max":292,"o":"m 204 933 q 292 918 251 933 l 292 844 l 236 844 q 175 785 175 844 l 175 0 l 71 0 l 71 578 l 11 578 l 11 672 l 71 672 l 71 779 q 102 889 71 844 q 204 933 133 933 z "},"t":{"ha":292,"x_min":17,"x_max":269,"o":"m 269 578 l 181 578 l 181 139 q 196 94 181 110 q 240 78 211 78 l 269 78 l 269 6 q 236 -8 257 -3 q 194 -12 215 -12 q 103 32 132 -12 q 75 142 75 76 l 75 578 l 17 578 l 17 672 l 75 672 l 99 858 l 181 858 l 181 672 l 269 672 l 269 578 z "},"ŧ":{"ha":292,"x_min":17,"x_max":269,"o":"m 269 672 l 269 578 l 181 578 l 181 446 l 264 446 l 264 358 l 181 358 l 181 139 q 196 94 181 110 q 240 78 211 78 l 269 78 l 269 6 q 236 -8 257 -3 q 194 -12 215 -12 q 103 32 132 -12 q 75 142 75 76 l 75 358 l 21 358 l 21 446 l 75 446 l 75 578 l 17 578 l 17 672 l 75 672 l 99 858 l 181 858 l 181 672 l 269 672 z "},"ť":{"ha":392,"x_min":17,"x_max":450,"o":"m 322 579 l 372 738 l 322 738 l 322 875 l 450 875 l 450 750 l 389 579 l 322 579 m 269 578 l 181 578 l 181 139 q 196 94 181 110 q 240 78 211 78 l 269 78 l 269 6 q 236 -8 257 -3 q 194 -12 215 -12 q 103 32 132 -12 q 75 142 75 76 l 75 578 l 17 578 l 17 672 l 75 672 l 99 858 l 181 858 l 181 672 l 269 672 l 269 578 z "},"ţ":{"ha":292,"x_min":17,"x_max":290,"o":"m 186 -46 q 261 -69 232 -49 q 290 -129 290 -89 q 250 -209 290 -186 q 157 -232 210 -232 q 50 -222 103 -232 l 50 -160 l 147 -160 q 193 -129 193 -160 q 183 -106 193 -112 q 150 -99 174 -99 l 108 -99 l 125 10 q 88 65 100 31 q 75 142 75 100 l 75 578 l 17 578 l 17 672 l 75 672 l 99 858 l 181 858 l 181 672 l 269 672 l 269 578 l 181 578 l 181 139 q 196 94 181 110 q 240 78 211 78 l 269 78 l 269 6 q 236 -8 257 -3 q 194 -12 215 -12 l 192 -12 l 186 -46 z "},"ț":{"ha":292,"x_min":17,"x_max":269,"o":"m 269 578 l 181 578 l 181 139 q 196 94 181 110 q 240 78 211 78 l 269 78 l 269 6 q 236 -8 257 -3 q 194 -12 215 -12 q 103 32 132 -12 q 75 142 75 76 l 75 578 l 17 578 l 17 672 l 75 672 l 99 858 l 181 858 l 181 672 l 269 672 l 269 578 m 106 -283 l 136 -192 l 93 -192 l 93 -76 l 201 -76 l 201 -183 l 164 -283 l 106 -283 z "},"u":{"ha":582,"x_min":76,"x_max":506,"o":"m 413 78 l 404 78 q 243 -15 354 -15 q 76 188 76 -15 l 76 672 l 182 672 l 182 194 q 206 103 182 129 q 276 78 231 78 q 365 128 328 78 q 401 261 401 178 l 401 672 l 506 672 l 506 0 l 426 0 l 413 78 z "},"ú":{"ha":582,"x_min":76,"x_max":506,"o":"m 303 754 l 215 754 l 325 924 l 439 924 l 440 918 l 303 754 m 426 0 l 413 78 l 404 78 q 243 -15 354 -15 q 76 188 76 -15 l 76 672 l 182 672 l 182 194 q 206 103 182 129 q 276 78 231 78 q 365 128 328 78 q 401 261 401 178 l 401 672 l 506 672 l 506 0 l 426 0 z "},"ŭ":{"ha":582,"x_min":76,"x_max":506,"o":"m 449 924 q 429 865 449 893 q 374 817 410 836 q 292 799 339 799 q 208 817 244 799 q 153 865 172 836 q 133 924 133 893 l 215 924 q 240 894 219 908 q 292 881 261 881 q 344 894 322 881 q 368 924 365 908 l 449 924 m 413 78 l 404 78 q 243 -15 354 -15 q 76 188 76 -15 l 76 672 l 182 672 l 182 194 q 206 103 182 129 q 276 78 231 78 q 365 128 328 78 q 401 261 401 178 l 401 672 l 506 672 l 506 0 l 426 0 l 413 78 z "},"û":{"ha":582,"x_min":76,"x_max":506,"o":"m 292 851 l 236 750 l 133 750 l 242 922 l 342 922 l 450 750 l 349 750 l 292 851 m 413 78 l 404 78 q 243 -15 354 -15 q 76 188 76 -15 l 76 672 l 182 672 l 182 194 q 206 103 182 129 q 276 78 231 78 q 365 128 328 78 q 401 261 401 178 l 401 672 l 506 672 l 506 0 l 426 0 l 413 78 z "},"ü":{"ha":582,"x_min":76,"x_max":506,"o":"m 139 801 l 139 924 l 250 924 l 250 801 l 139 801 m 331 801 l 331 924 l 443 924 l 443 801 l 331 801 m 426 0 l 413 78 l 404 78 q 243 -15 354 -15 q 76 188 76 -15 l 76 672 l 182 672 l 182 194 q 206 103 182 129 q 276 78 231 78 q 365 128 328 78 q 401 261 401 178 l 401 672 l 506 672 l 506 0 l 426 0 z "},"ù":{"ha":582,"x_min":76,"x_max":506,"o":"m 281 754 l 140 918 l 142 924 l 258 924 l 368 754 l 281 754 m 426 0 l 413 78 l 404 78 q 243 -15 354 -15 q 76 188 76 -15 l 76 672 l 182 672 l 182 194 q 206 103 182 129 q 276 78 231 78 q 365 128 328 78 q 401 261 401 178 l 401 672 l 506 672 l 506 0 l 426 0 z "},"ű":{"ha":582,"x_min":76,"x_max":532,"o":"m 257 754 l 169 754 l 247 924 l 363 924 l 364 918 l 257 754 m 424 754 l 335 754 l 414 924 l 531 924 l 532 918 l 424 754 m 426 0 l 413 78 l 404 78 q 243 -15 354 -15 q 76 188 76 -15 l 76 672 l 182 672 l 182 194 q 206 103 182 129 q 276 78 231 78 q 365 128 328 78 q 401 261 401 178 l 401 672 l 506 672 l 506 0 l 426 0 z "},"ū":{"ha":582,"x_min":76,"x_max":506,"o":"m 132 857 l 453 857 l 453 765 l 132 765 l 132 857 m 413 78 l 404 78 q 243 -15 354 -15 q 76 188 76 -15 l 76 672 l 182 672 l 182 194 q 206 103 182 129 q 276 78 231 78 q 365 128 328 78 q 401 261 401 178 l 401 672 l 506 672 l 506 0 l 426 0 l 413 78 z "},"ų":{"ha":582,"x_min":76,"x_max":574,"o":"m 574 -149 l 574 -215 q 496 -232 526 -232 q 410 -205 446 -232 q 375 -117 375 -178 q 388 -51 375 -79 q 425 4 401 -24 l 413 78 l 404 78 q 243 -15 354 -15 q 76 188 76 -15 l 76 672 l 182 672 l 182 194 q 206 103 182 129 q 276 78 231 78 q 365 128 328 78 q 401 261 401 178 l 401 672 l 506 672 l 506 0 q 475 -79 475 -43 q 489 -129 475 -110 q 533 -149 503 -149 l 574 -149 z "},"ů":{"ha":582,"x_min":76,"x_max":506,"o":"m 292 964 q 377 928 342 964 q 413 842 413 892 q 377 754 413 790 q 292 718 342 718 q 206 753 242 718 q 169 842 169 789 q 205 928 169 892 q 292 964 240 964 m 292 906 q 244 887 264 906 q 225 842 225 868 q 245 795 225 815 q 292 775 265 775 q 337 795 317 775 q 357 842 357 815 q 337 886 357 867 q 292 906 317 906 m 413 78 l 404 78 q 243 -15 354 -15 q 76 188 76 -15 l 76 672 l 182 672 l 182 194 q 206 103 182 129 q 276 78 231 78 q 365 128 328 78 q 401 261 401 178 l 401 672 l 506 672 l 506 0 l 426 0 l 413 78 z "},"ũ":{"ha":582,"x_min":76,"x_max":506,"o":"m 478 924 q 450 831 478 872 q 368 790 422 790 q 321 800 344 790 q 292 811 297 810 q 254 826 269 821 q 222 831 239 831 q 179 790 183 831 l 104 790 q 133 883 104 842 q 214 924 161 924 q 252 917 232 924 q 290 903 272 911 q 326 890 307 896 q 360 883 344 883 q 403 924 399 883 l 478 924 m 413 78 l 404 78 q 243 -15 354 -15 q 76 188 76 -15 l 76 672 l 182 672 l 182 194 q 206 103 182 129 q 276 78 231 78 q 365 128 328 78 q 401 261 401 178 l 401 672 l 506 672 l 506 0 l 426 0 l 413 78 z "},"v":{"ha":522,"x_min":13,"x_max":511,"o":"m 206 0 l 13 672 l 128 672 l 219 328 q 247 222 229 297 l 264 160 l 269 160 q 306 296 278 193 l 314 325 l 406 672 l 511 672 l 319 0 l 206 0 z "},"w":{"ha":756,"x_min":1,"x_max":754,"o":"m 400 383 q 387 475 392 426 q 381 538 382 524 l 374 538 q 367 476 372 524 q 354 383 363 428 l 285 0 l 169 0 l 1 672 l 115 672 l 201 293 q 217 206 210 260 q 226 135 225 151 l 232 135 q 239 195 233 150 q 253 293 244 240 l 321 672 l 442 672 l 511 293 q 525 195 519 240 q 532 135 531 150 l 536 135 q 545 197 538 149 q 564 293 553 246 l 647 672 l 754 672 l 586 0 l 469 0 l 400 383 z "},"ẃ":{"ha":756,"x_min":1,"x_max":754,"o":"m 392 754 l 301 754 l 411 924 l 526 924 l 528 918 l 392 754 m 469 0 l 400 383 q 387 475 392 426 q 381 538 382 524 l 374 538 q 367 476 372 524 q 354 383 363 428 l 285 0 l 169 0 l 1 672 l 115 672 l 201 293 q 217 206 210 260 q 226 135 225 151 l 232 135 q 239 195 233 150 q 253 293 244 240 l 321 672 l 442 672 l 511 293 q 525 195 519 240 q 532 135 531 150 l 536 135 q 545 197 538 149 q 564 293 553 246 l 647 672 l 754 672 l 586 0 l 469 0 z "},"ŵ":{"ha":756,"x_min":1,"x_max":754,"o":"m 381 851 l 321 750 l 218 750 l 328 922 l 428 922 l 538 750 l 435 750 l 381 851 m 400 383 q 387 475 392 426 q 381 538 382 524 l 374 538 q 367 476 372 524 q 354 383 363 428 l 285 0 l 169 0 l 1 672 l 115 672 l 201 293 q 217 206 210 260 q 226 135 225 151 l 232 135 q 239 195 233 150 q 253 293 244 240 l 321 672 l 442 672 l 511 293 q 525 195 519 240 q 532 135 531 150 l 536 135 q 545 197 538 149 q 564 293 553 246 l 647 672 l 754 672 l 586 0 l 469 0 l 400 383 z "},"ẅ":{"ha":756,"x_min":1,"x_max":754,"o":"m 225 801 l 225 924 l 336 924 l 336 801 l 225 801 m 418 801 l 418 924 l 531 924 l 531 801 l 418 801 m 469 0 l 400 383 q 387 475 392 426 q 381 538 382 524 l 374 538 q 367 476 372 524 q 354 383 363 428 l 285 0 l 169 0 l 1 672 l 115 672 l 201 293 q 217 206 210 260 q 226 135 225 151 l 232 135 q 239 195 233 150 q 253 293 244 240 l 321 672 l 442 672 l 511 293 q 525 195 519 240 q 532 135 531 150 l 536 135 q 545 197 538 149 q 564 293 553 246 l 647 672 l 754 672 l 586 0 l 469 0 z "},"ẁ":{"ha":756,"x_min":1,"x_max":754,"o":"m 367 754 l 226 918 l 228 924 l 346 924 l 454 754 l 367 754 m 469 0 l 400 383 q 387 475 392 426 q 381 538 382 524 l 374 538 q 367 476 372 524 q 354 383 363 428 l 285 0 l 169 0 l 1 672 l 115 672 l 201 293 q 217 206 210 260 q 226 135 225 151 l 232 135 q 239 195 233 150 q 253 293 244 240 l 321 672 l 442 672 l 511 293 q 525 195 519 240 q 532 135 531 150 l 536 135 q 545 197 538 149 q 564 293 553 246 l 647 672 l 754 672 l 586 0 l 469 0 z "},"x":{"ha":522,"x_min":7,"x_max":515,"o":"m 390 0 l 258 247 l 122 0 l 7 0 l 204 339 l 15 672 l 143 672 l 264 442 l 390 672 l 507 672 l 319 349 l 515 0 l 390 0 z "},"y":{"ha":522,"x_min":13,"x_max":511,"o":"m 340 35 q 256 -161 307 -90 q 124 -232 206 -232 q 49 -222 79 -232 l 49 -149 l 85 -149 q 218 0 186 -149 l 13 672 l 128 672 l 225 326 l 253 232 l 276 150 l 281 150 q 304 246 288 182 l 324 325 l 406 672 l 511 672 l 340 35 z "},"ý":{"ha":522,"x_min":13,"x_max":511,"o":"m 275 754 l 186 754 l 294 924 l 410 924 l 411 918 l 275 754 m 340 35 q 256 -161 307 -90 q 124 -232 206 -232 q 49 -222 79 -232 l 49 -149 l 85 -149 q 218 0 186 -149 l 13 672 l 128 672 l 225 326 l 253 232 l 276 150 l 281 150 q 304 246 288 182 l 324 325 l 406 672 l 511 672 l 340 35 z "},"ŷ":{"ha":522,"x_min":13,"x_max":511,"o":"m 263 851 l 206 750 l 104 750 l 214 922 l 314 922 l 422 750 l 319 750 l 263 851 m 340 35 q 256 -161 307 -90 q 124 -232 206 -232 q 49 -222 79 -232 l 49 -149 l 85 -149 q 218 0 186 -149 l 13 672 l 128 672 l 225 326 l 253 232 l 276 150 l 281 150 q 304 246 288 182 l 324 325 l 406 672 l 511 672 l 340 35 z "},"ÿ":{"ha":522,"x_min":13,"x_max":511,"o":"m 110 801 l 110 924 l 221 924 l 221 801 l 110 801 m 301 801 l 301 924 l 413 924 l 413 801 l 301 801 m 340 35 q 256 -161 307 -90 q 124 -232 206 -232 q 49 -222 79 -232 l 49 -149 l 85 -149 q 218 0 186 -149 l 13 672 l 128 672 l 225 326 l 253 232 l 276 150 l 281 150 q 304 246 288 182 l 324 325 l 406 672 l 511 672 l 340 35 z "},"ỳ":{"ha":522,"x_min":13,"x_max":511,"o":"m 250 754 l 111 918 l 113 924 l 228 924 l 338 754 l 250 754 m 340 35 q 256 -161 307 -90 q 124 -232 206 -232 q 49 -222 79 -232 l 49 -149 l 85 -149 q 218 0 186 -149 l 13 672 l 128 672 l 225 326 l 253 232 l 276 150 l 281 150 q 304 246 288 182 l 324 325 l 406 672 l 511 672 l 340 35 z "},"z":{"ha":522,"x_min":33,"x_max":490,"o":"m 490 94 l 490 0 l 33 0 l 33 49 l 328 578 l 53 578 l 53 672 l 472 672 l 472 622 l 176 94 l 490 94 z "},"ź":{"ha":522,"x_min":33,"x_max":490,"o":"m 275 754 l 186 754 l 294 924 l 410 924 l 411 918 l 275 754 m 176 94 l 490 94 l 490 0 l 33 0 l 33 49 l 328 578 l 53 578 l 53 672 l 472 672 l 472 622 l 176 94 z "},"ž":{"ha":522,"x_min":33,"x_max":490,"o":"m 104 924 l 206 924 l 261 822 l 319 924 l 422 924 l 313 751 l 213 751 l 104 924 m 490 94 l 490 0 l 33 0 l 33 49 l 328 578 l 53 578 l 53 672 l 472 672 l 472 622 l 176 94 l 490 94 z "},"ż":{"ha":522,"x_min":33,"x_max":490,"o":"m 207 924 l 318 924 l 318 801 l 207 801 l 207 924 m 490 94 l 490 0 l 33 0 l 33 49 l 328 578 l 53 578 l 53 672 l 472 672 l 472 622 l 176 94 l 490 94 z "},"ﬁ":{"ha":522,"x_min":11,"x_max":460,"o":"m 204 933 q 292 918 251 933 l 292 844 l 236 844 q 175 785 175 844 l 175 672 l 292 672 l 292 578 l 175 578 l 175 0 l 71 0 l 71 578 l 11 578 l 11 672 l 71 672 l 71 779 q 102 889 71 844 q 204 933 133 933 m 356 924 l 460 924 l 460 797 l 356 797 l 356 924 m 356 672 l 460 672 l 460 0 l 356 0 l 356 672 z "},"ﬂ":{"ha":522,"x_min":11,"x_max":460,"o":"m 204 933 q 292 918 251 933 l 292 844 l 236 844 q 175 785 175 844 l 175 672 l 292 672 l 292 578 l 175 578 l 175 0 l 71 0 l 71 578 l 11 578 l 11 672 l 71 672 l 71 779 q 102 889 71 844 q 204 933 133 933 m 356 924 l 460 924 l 460 0 l 356 0 l 356 924 z "},"ª":{"ha":388,"x_min":26,"x_max":381,"o":"m 381 531 l 381 478 q 332 467 365 467 q 285 482 304 467 q 258 522 265 497 q 211 478 240 493 q 147 463 182 463 q 63 490 100 463 q 26 590 26 517 q 85 713 26 681 q 254 746 143 746 l 254 800 q 239 853 254 835 q 186 872 224 872 q 135 851 151 872 q 118 801 118 831 l 118 789 l 43 789 l 43 810 q 83 906 43 872 q 190 939 124 939 q 294 906 260 939 q 329 810 329 872 l 329 557 q 335 537 329 543 q 351 531 342 531 l 381 531 m 254 678 q 142 660 181 678 q 104 594 104 643 q 119 545 104 560 q 164 531 133 531 q 226 560 199 531 q 254 639 254 589 l 254 678 z "},"º":{"ha":382,"x_min":28,"x_max":354,"o":"m 190 939 q 354 699 354 939 q 190 461 354 461 q 28 699 28 461 q 69 880 28 821 q 190 939 110 939 m 190 871 q 106 717 106 871 l 106 683 q 190 529 106 529 q 276 683 276 529 l 276 717 q 190 871 276 871 z "},"ⁿ":{"ha":382,"x_min":44,"x_max":338,"o":"m 225 939 q 338 797 338 939 l 338 471 l 263 471 l 263 793 q 247 853 263 836 q 203 871 232 871 q 144 838 168 871 q 121 750 121 806 l 121 471 l 44 471 l 44 929 l 104 929 l 114 878 q 160 924 131 908 q 225 939 189 939 z "},"Δ":{"ha":714,"x_min":21,"x_max":699,"o":"m 699 0 l 21 0 l 21 49 l 288 875 l 432 875 l 699 49 l 699 0 m 149 107 l 556 107 l 358 753 l 354 753 l 149 107 z "},"Ω":{"ha":981,"x_min":146,"x_max":835,"o":"m 490 892 q 744 777 654 892 q 835 438 835 663 q 717 103 835 221 q 756 106 731 104 q 803 107 781 107 l 835 107 l 835 0 l 532 0 l 532 78 q 669 175 621 97 q 718 385 718 253 l 718 469 q 658 707 718 626 q 490 788 597 788 q 323 707 383 788 q 263 469 263 626 l 263 390 q 311 177 263 256 q 447 78 360 99 l 447 0 l 146 0 l 146 107 l 178 107 l 218 106 q 263 103 243 103 q 146 438 146 219 q 236 777 146 663 q 490 892 326 892 z "},"μ":{"ha":582,"x_min":76,"x_max":506,"o":"m 413 78 l 404 78 q 243 -15 354 -15 q 182 -6 207 -15 l 182 -221 l 76 -221 l 76 672 l 182 672 l 182 182 q 207 101 182 125 q 276 78 232 78 q 365 128 328 78 q 401 261 401 178 l 401 672 l 506 672 l 506 0 l 426 0 l 413 78 z "},"π":{"ha":711,"x_min":15,"x_max":688,"o":"m 578 200 q 593 0 578 61 l 492 0 q 472 188 472 32 l 472 578 l 272 578 q 241 258 265 438 q 189 0 217 79 l 85 0 q 140 274 115 99 q 168 578 165 449 q 31 563 69 578 l 15 633 q 201 672 64 672 l 688 672 l 678 578 l 578 578 l 578 200 z "},"ऄ":{"ha":853,"x_min":56,"x_max":867,"o":"m 867 782 l 754 782 l 754 0 l 650 0 l 650 349 l 499 349 l 499 329 l 499 288 q 437 132 497 189 q 275 75 376 75 q 115 132 174 75 q 56 279 56 189 q 58 313 56 299 l 161 313 l 161 296 q 190 201 161 233 q 274 168 219 168 q 358 199 326 168 q 390 288 389 231 l 390 329 q 357 416 390 388 q 268 444 324 444 l 210 444 l 210 535 l 272 535 q 347 566 318 535 q 376 656 376 597 l 376 694 q 348 772 376 744 q 276 800 319 800 q 203 769 231 800 q 176 676 176 738 l 176 663 l 72 663 q 69 696 69 676 q 128 838 69 785 q 282 892 186 892 q 428 840 374 892 q 483 694 483 788 l 483 656 q 410 499 483 550 l 410 494 q 471 442 447 479 l 650 442 l 650 782 l 538 782 l 538 875 l 650 875 l 650 956 q 634 999 650 986 q 583 1013 618 1013 l 342 1013 q 213 1048 253 1013 q 172 1163 172 1083 l 172 1194 l 276 1194 l 276 1163 q 292 1119 276 1132 q 342 1106 307 1106 l 583 1106 q 714 1070 674 1106 q 754 956 754 1035 l 754 875 l 867 875 l 867 782 z "},"ॲ":{"ha":853,"x_min":56,"x_max":867,"o":"m 56 0 m 867 782 l 754 782 l 754 0 l 650 0 l 650 349 l 499 349 l 499 329 l 499 288 q 437 132 497 189 q 275 75 376 75 q 115 132 174 75 q 56 279 56 189 q 58 313 56 299 l 161 313 l 161 296 q 190 201 161 233 q 274 168 219 168 q 358 199 326 168 q 390 288 389 231 l 390 329 q 357 416 390 388 q 268 444 324 444 l 210 444 l 210 535 l 272 535 q 347 566 318 535 q 376 656 376 597 l 376 694 q 348 772 376 744 q 276 800 319 800 q 203 769 231 800 q 176 676 176 738 l 176 663 l 72 663 q 69 696 69 676 q 128 838 69 785 q 282 892 186 892 q 428 840 374 892 q 483 694 483 788 l 483 656 q 410 499 483 550 l 410 494 q 471 442 447 479 l 650 442 l 650 782 l 538 782 l 538 875 l 867 875 l 867 782 m 631 1154 q 576 1013 631 1067 q 425 958 521 958 q 276 1013 331 958 q 221 1154 221 1067 l 322 1154 q 352 1069 322 1099 q 425 1040 382 1040 q 501 1069 472 1040 q 531 1154 531 1099 l 631 1154 z "},"अ":{"ha":853,"x_min":56,"x_max":867,"o":"m 867 782 l 754 782 l 754 0 l 650 0 l 650 349 l 499 349 l 499 329 l 499 288 q 437 132 497 189 q 275 75 376 75 q 115 132 174 75 q 56 279 56 189 q 58 313 56 299 l 161 313 l 161 296 q 190 201 161 233 q 274 168 219 168 q 358 199 326 168 q 390 288 389 231 l 390 329 q 357 416 390 388 q 268 444 324 444 l 210 444 l 210 535 l 272 535 q 347 566 318 535 q 376 656 376 597 l 376 694 q 348 772 376 744 q 276 800 319 800 q 203 769 231 800 q 176 676 176 738 l 176 663 l 72 663 q 69 696 69 676 q 128 838 69 785 q 282 892 186 892 q 428 840 374 892 q 483 694 483 788 l 483 656 q 410 499 483 550 l 410 494 q 471 442 447 479 l 650 442 l 650 782 l 538 782 l 538 875 l 867 875 l 867 782 z "},"आ":{"ha":1169,"x_min":56,"x_max":1183,"o":"m 1183 782 l 1064 782 l 1064 0 l 958 0 l 958 782 l 754 782 l 754 0 l 650 0 l 650 349 l 499 349 l 499 329 l 499 288 q 437 132 497 189 q 275 75 376 75 q 115 132 174 75 q 56 279 56 189 q 58 313 56 299 l 161 313 l 161 296 q 190 201 161 233 q 274 168 219 168 q 358 199 326 168 q 390 288 389 231 l 390 329 q 357 416 390 388 q 268 444 324 444 l 210 444 l 210 535 l 272 535 q 347 566 318 535 q 376 656 376 597 l 376 694 q 348 772 376 744 q 276 800 319 800 q 203 769 231 800 q 176 676 176 738 l 176 663 l 72 663 q 69 696 69 676 q 128 838 69 785 q 282 892 186 892 q 428 840 374 892 q 483 694 483 788 l 483 656 q 410 499 483 550 l 410 494 q 471 442 447 479 l 650 442 l 650 782 l 538 782 l 538 875 l 1183 875 l 1183 782 z "},"इ":{"ha":601,"x_min":-14,"x_max":615,"o":"m 282 564 q 221 545 246 564 q 196 492 196 526 q 279 426 196 426 l 332 426 q 486 379 432 426 q 540 246 540 332 q 483 106 540 154 q 332 57 426 57 q 206 89 258 57 l 206 -51 l 101 -51 l 101 275 l 206 275 l 206 261 q 238 176 206 204 q 321 149 269 149 q 400 174 369 149 q 431 247 431 200 q 325 331 431 331 l 283 331 q 137 374 188 331 q 86 494 86 417 q 141 616 86 576 q 288 656 196 656 l 396 656 l 396 782 l -14 782 l -14 875 l 615 875 l 615 782 l 501 782 l 501 564 l 282 564 z "},"ई":{"ha":601,"x_min":-14,"x_max":615,"o":"m 282 564 q 221 545 246 564 q 196 492 196 526 q 279 426 196 426 l 332 426 q 486 379 432 426 q 540 246 540 332 q 483 106 540 154 q 332 57 426 57 q 206 89 258 57 l 206 -51 l 101 -51 l 101 275 l 206 275 l 206 261 q 238 176 206 204 q 321 149 269 149 q 400 174 369 149 q 431 247 431 200 q 325 331 431 331 l 283 331 q 137 374 188 331 q 86 494 86 417 q 141 616 86 576 q 288 656 196 656 l 396 656 l 396 782 l -14 782 l -14 875 l 375 875 q 332 1018 332 949 q 390 1145 332 1096 q 538 1194 449 1194 q 567 1193 561 1194 l 567 1100 l 561 1100 q 469 1072 501 1099 q 436 996 436 1044 q 474 875 436 942 l 615 875 l 615 782 l 501 782 l 501 564 l 282 564 z "},"उ":{"ha":535,"x_min":-14,"x_max":549,"o":"m 549 782 l 431 782 q 456 676 456 739 l 456 656 q 382 499 456 550 l 382 494 q 445 436 421 479 q 469 329 469 393 l 469 288 q 408 132 468 189 q 246 75 347 75 q 85 132 144 75 q 26 279 26 189 q 29 313 26 299 l 133 313 l 133 296 q 163 201 133 233 q 244 168 192 168 q 328 199 297 168 q 361 288 360 231 l 361 329 q 328 416 361 388 q 240 444 296 444 l 181 444 l 181 535 l 243 535 q 319 567 290 535 q 349 656 349 599 l 349 676 q 319 754 349 726 q 247 782 290 782 l -14 782 l -14 875 l 549 875 l 549 782 z "},"ऊ":{"ha":847,"x_min":-14,"x_max":863,"o":"m 431 782 q 456 676 456 739 l 456 656 q 382 499 456 550 l 382 494 q 438 449 415 481 q 506 515 463 490 q 610 539 550 539 q 762 474 703 539 q 821 303 821 408 q 761 131 821 193 q 603 68 701 68 q 574 71 596 68 l 574 161 l 590 161 q 683 197 649 161 q 717 290 717 232 l 717 318 q 688 413 717 381 q 606 446 660 446 q 501 405 533 446 q 469 288 469 364 q 408 132 468 189 q 246 75 347 75 q 85 132 144 75 q 26 279 26 189 q 29 313 26 299 l 133 313 l 133 296 q 163 201 133 233 q 244 168 192 168 q 328 199 297 168 q 361 288 360 231 l 361 329 q 328 416 361 388 q 240 444 296 444 l 181 444 l 181 535 l 243 535 q 319 567 290 535 q 349 656 349 599 l 349 676 q 319 754 349 726 q 247 782 290 782 l -14 782 l -14 875 l 863 875 l 863 782 l 431 782 z "},"ऋ":{"ha":969,"x_min":-14,"x_max":983,"o":"m 511 415 l 775 565 l 775 622 l 879 622 l 879 243 l 835 243 q 769 219 794 243 q 743 161 743 196 q 769 101 743 125 q 835 78 794 78 q 939 96 882 78 l 939 7 q 829 -15 882 -15 q 735 6 779 -15 q 665 69 692 28 q 638 163 638 110 q 676 272 638 228 q 775 331 715 315 l 775 456 l 511 306 l 511 0 l 406 0 l 406 254 l 97 78 l 97 188 l 382 350 l 311 444 q 247 501 279 485 q 175 518 214 518 q 104 508 142 518 l 71 500 l 71 586 q 117 601 108 599 q 204 613 164 613 q 303 588 260 613 q 389 506 347 563 l 406 482 l 406 782 l -14 782 l -14 875 l 983 875 l 983 782 l 511 782 l 511 415 z "},"ॠ":{"ha":969,"x_min":-14,"x_max":983,"o":"m 511 415 l 775 565 l 775 622 l 879 622 l 879 243 l 819 243 q 763 224 783 243 q 743 174 743 204 q 769 124 743 144 q 835 104 794 104 l 879 104 l 879 18 l 819 18 q 763 -1 783 18 q 743 -51 743 -21 q 769 -101 743 -81 q 835 -121 794 -121 q 939 -104 886 -121 l 939 -192 q 829 -215 879 -215 q 695 -171 753 -215 q 638 -57 638 -126 q 655 13 638 -18 q 701 65 672 44 q 638 182 638 110 q 677 281 638 240 q 775 333 717 322 l 775 456 l 511 306 l 511 0 l 406 0 l 406 254 l 97 78 l 97 188 l 382 350 l 311 444 q 247 501 279 485 q 175 518 214 518 q 104 508 142 518 l 71 500 l 71 586 q 117 601 108 599 q 204 613 164 613 q 303 588 260 613 q 389 506 347 563 l 406 482 l 406 782 l -14 782 l -14 875 l 983 875 l 983 782 l 511 782 l 511 415 z "},"ऌ":{"ha":881,"x_min":-14,"x_max":896,"o":"m 731 139 q 665 115 690 139 q 639 57 639 92 q 665 -3 639 21 q 731 -26 690 -26 q 835 -8 778 -26 l 835 -97 q 725 -119 778 -119 q 631 -98 675 -119 q 560 -35 588 -76 q 533 58 533 6 q 572 167 533 124 q 671 226 611 211 l 671 386 q 565 535 671 535 q 489 490 513 535 q 465 375 465 446 l 465 278 l 357 278 l 357 375 q 333 490 357 446 q 256 535 310 535 q 150 335 150 535 q 206 151 150 208 q 385 93 261 93 l 407 93 l 407 6 q 358 0 386 0 q 122 85 203 0 q 42 351 42 171 q 95 551 42 476 q 242 626 149 626 q 349 592 307 626 q 408 497 390 557 l 413 497 q 574 626 451 626 q 671 593 629 626 l 671 782 l -14 782 l -14 875 l 896 875 l 896 782 l 775 782 l 775 139 l 731 139 z "},"ॡ":{"ha":881,"x_min":-14,"x_max":896,"o":"m 713 139 q 656 119 676 139 q 636 69 636 100 q 662 20 636 40 q 728 0 688 0 l 772 0 l 772 -86 l 713 -86 q 656 -106 676 -86 q 636 -156 636 -125 q 662 -205 636 -185 q 728 -225 688 -225 q 832 -208 779 -225 l 832 -296 q 722 -319 772 -319 q 588 -275 646 -319 q 531 -161 531 -231 q 548 -91 531 -122 q 594 -39 565 -60 q 531 78 531 6 q 571 178 531 138 q 671 231 611 219 l 671 386 q 565 535 671 535 q 489 490 513 535 q 465 375 465 446 l 465 292 l 357 292 l 357 375 q 333 490 357 446 q 256 535 310 535 q 150 335 150 535 q 202 151 150 208 q 369 93 254 93 l 393 93 l 393 6 q 344 0 371 0 q 118 85 194 0 q 42 351 42 171 q 95 551 42 476 q 242 626 149 626 q 349 592 307 626 q 408 497 390 557 l 413 497 q 574 626 451 626 q 671 593 629 626 l 671 782 l -14 782 l -14 875 l 896 875 l 896 782 l 775 782 l 775 139 l 713 139 z "},"ऍ":{"ha":633,"x_min":-14,"x_max":647,"o":"m 0 0 m 647 782 l 528 782 l 528 518 q 497 408 528 453 q 394 364 465 364 q 338 371 368 364 l 338 453 l 363 453 q 407 469 392 453 q 422 514 422 485 l 422 782 l 211 782 l 211 425 q 231 361 211 382 l 468 131 q 528 19 528 67 q 504 -68 528 -21 l 418 -68 q 426 -3 426 -28 q 420 30 426 15 q 399 61 414 44 l 144 311 q 115 358 124 333 q 106 418 106 383 l 106 782 l -14 782 l -14 875 l 647 875 l 647 782 m 521 1154 q 466 1013 521 1067 q 315 958 411 958 q 166 1013 221 958 q 111 1154 111 1067 l 213 1154 q 242 1069 213 1099 q 315 1040 272 1040 q 392 1069 363 1040 q 421 1154 421 1099 l 521 1154 z "},"ऎ":{"ha":633,"x_min":-56,"x_max":647,"o":"m 647 782 l 528 782 l 528 518 q 497 408 528 453 q 394 364 465 364 q 338 371 368 364 l 338 453 l 363 453 q 407 469 392 453 q 422 514 422 485 l 422 782 l 211 782 l 211 425 q 231 361 211 382 l 468 131 q 528 19 528 67 q 504 -68 528 -21 l 418 -68 q 426 -3 426 -28 q 420 30 426 15 q 399 61 414 44 l 144 311 q 115 358 124 333 q 106 418 106 383 l 106 782 l -14 782 l -14 875 l 422 875 l 422 956 q 406 999 422 986 q 356 1013 390 1013 l 114 1013 q -15 1048 25 1013 q -56 1163 -56 1083 l -56 1194 l 49 1194 l 49 1163 q 64 1119 49 1132 q 114 1106 79 1106 l 356 1106 q 486 1070 446 1106 q 526 956 526 1035 l 526 875 l 647 875 l 647 782 z "},"ए":{"ha":633,"x_min":-14,"x_max":647,"o":"m 647 782 l 528 782 l 528 518 q 497 408 528 453 q 394 364 465 364 q 338 371 368 364 l 338 453 l 363 453 q 407 469 392 453 q 422 514 422 485 l 422 782 l 211 782 l 211 425 q 231 361 211 382 l 468 131 q 528 19 528 67 q 504 -68 528 -21 l 418 -68 q 426 -3 426 -28 q 420 30 426 15 q 399 61 414 44 l 144 311 q 115 358 124 333 q 106 418 106 383 l 106 782 l -14 782 l -14 875 l 647 875 l 647 782 z "},"ऐ":{"ha":633,"x_min":-14,"x_max":647,"o":"m 647 782 l 528 782 l 528 518 q 497 408 528 453 q 394 364 465 364 q 338 371 368 364 l 338 453 l 363 453 q 407 469 392 453 q 422 514 422 485 l 422 782 l 211 782 l 211 425 q 231 361 211 382 l 468 131 q 528 19 528 67 q 504 -68 528 -21 l 418 -68 q 426 -3 426 -28 q 420 30 426 15 q 399 61 414 44 l 144 311 q 115 358 124 333 q 106 418 106 383 l 106 782 l -14 782 l -14 875 l 421 875 l 303 1258 l 408 1258 l 514 875 l 647 875 l 647 782 z "},"ऑ":{"ha":1169,"x_min":56,"x_max":1183,"o":"m 56 0 m 1183 782 l 1064 782 l 1064 0 l 958 0 l 958 782 l 754 782 l 754 0 l 650 0 l 650 349 l 499 349 l 499 329 l 499 288 q 437 132 497 189 q 275 75 376 75 q 115 132 174 75 q 56 279 56 189 q 58 313 56 299 l 161 313 l 161 296 q 190 201 161 233 q 274 168 219 168 q 358 199 326 168 q 390 288 389 231 l 390 329 q 357 416 390 388 q 268 444 324 444 l 210 444 l 210 535 l 272 535 q 347 566 318 535 q 376 656 376 597 l 376 694 q 348 772 376 744 q 276 800 319 800 q 203 769 231 800 q 176 676 176 738 l 176 663 l 72 663 q 69 696 69 676 q 128 838 69 785 q 282 892 186 892 q 428 840 374 892 q 483 694 483 788 l 483 656 q 410 499 483 550 l 410 494 q 471 442 447 479 l 650 442 l 650 782 l 538 782 l 538 875 l 1183 875 l 1183 782 m 789 1154 q 734 1013 789 1067 q 583 958 679 958 q 434 1013 489 958 q 379 1154 379 1067 l 481 1154 q 510 1069 481 1099 q 583 1040 540 1040 q 660 1069 631 1040 q 689 1154 689 1099 l 789 1154 z "},"ऒ":{"ha":1169,"x_min":56,"x_max":1183,"o":"m 1183 782 l 1064 782 l 1064 0 l 958 0 l 958 782 l 754 782 l 754 0 l 650 0 l 650 349 l 499 349 l 499 329 l 499 288 q 437 132 497 189 q 275 75 376 75 q 115 132 174 75 q 56 279 56 189 q 58 313 56 299 l 161 313 l 161 296 q 190 201 161 233 q 274 168 219 168 q 358 199 326 168 q 390 288 389 231 l 390 329 q 357 416 390 388 q 268 444 324 444 l 210 444 l 210 535 l 272 535 q 347 566 318 535 q 376 656 376 597 l 376 694 q 348 772 376 744 q 276 800 319 800 q 203 769 231 800 q 176 676 176 738 l 176 663 l 72 663 q 69 696 69 676 q 128 838 69 785 q 282 892 186 892 q 428 840 374 892 q 483 694 483 788 l 483 656 q 410 499 483 550 l 410 494 q 471 442 447 479 l 650 442 l 650 782 l 538 782 l 538 875 l 958 875 l 958 956 q 942 999 958 986 q 892 1013 926 1013 l 650 1013 q 521 1048 561 1013 q 481 1163 481 1083 l 481 1194 l 585 1194 l 585 1163 q 600 1119 585 1132 q 650 1106 615 1106 l 892 1106 q 1022 1070 982 1106 q 1063 956 1063 1035 l 1063 875 l 1183 875 l 1183 782 z "},"ओ":{"ha":1169,"x_min":56,"x_max":1183,"o":"m 1183 782 l 1064 782 l 1064 0 l 958 0 l 958 782 l 754 782 l 754 0 l 650 0 l 650 349 l 499 349 l 499 329 l 499 288 q 437 132 497 189 q 275 75 376 75 q 115 132 174 75 q 56 279 56 189 q 58 313 56 299 l 161 313 l 161 296 q 190 201 161 233 q 274 168 219 168 q 358 199 326 168 q 390 288 389 231 l 390 329 q 357 416 390 388 q 268 444 324 444 l 210 444 l 210 535 l 272 535 q 347 566 318 535 q 376 656 376 597 l 376 694 q 348 772 376 744 q 276 800 319 800 q 203 769 231 800 q 176 676 176 738 l 176 663 l 72 663 q 69 696 69 676 q 128 838 69 785 q 282 892 186 892 q 428 840 374 892 q 483 694 483 788 l 483 656 q 410 499 483 550 l 410 494 q 471 442 447 479 l 650 442 l 650 782 l 538 782 l 538 875 l 957 875 l 839 1258 l 944 1258 l 1050 875 l 1183 875 l 1183 782 z "},"औ":{"ha":1169,"x_min":56,"x_max":1183,"o":"m 1183 782 l 1064 782 l 1064 0 l 958 0 l 958 782 l 754 782 l 754 0 l 650 0 l 650 349 l 499 349 l 499 329 l 499 288 q 437 132 497 189 q 275 75 376 75 q 115 132 174 75 q 56 279 56 189 q 58 313 56 299 l 161 313 l 161 296 q 190 201 161 233 q 274 168 219 168 q 358 199 326 168 q 390 288 389 231 l 390 329 q 357 416 390 388 q 268 444 324 444 l 210 444 l 210 535 l 272 535 q 347 566 318 535 q 376 656 376 597 l 376 694 q 348 772 376 744 q 276 800 319 800 q 203 769 231 800 q 176 676 176 738 l 176 663 l 72 663 q 69 696 69 676 q 128 838 69 785 q 282 892 186 892 q 428 840 374 892 q 483 694 483 788 l 483 656 q 410 499 483 550 l 410 494 q 471 442 447 479 l 650 442 l 650 782 l 538 782 l 538 875 l 846 875 l 728 1258 l 833 1258 l 939 875 l 963 875 q 951 1074 951 982 l 951 1258 l 1056 1258 l 1056 875 l 1183 875 l 1183 782 z "},"ॳ":{"ha":853,"x_min":56,"x_max":867,"o":"m 56 0 m 867 782 l 754 782 l 754 0 l 650 0 l 650 349 l 499 349 l 499 329 l 499 288 q 437 132 497 189 q 275 75 376 75 q 115 132 174 75 q 56 279 56 189 q 58 313 56 299 l 161 313 l 161 296 q 190 201 161 233 q 274 168 219 168 q 358 199 326 168 q 390 288 389 231 l 390 329 q 357 416 390 388 q 268 444 324 444 l 210 444 l 210 535 l 272 535 q 347 566 318 535 q 376 656 376 597 l 376 694 q 348 772 376 744 q 276 800 319 800 q 203 769 231 800 q 176 676 176 738 l 176 663 l 72 663 q 69 696 69 676 q 128 838 69 785 q 282 892 186 892 q 428 840 374 892 q 483 694 483 788 l 483 656 q 410 499 483 550 l 410 494 q 471 442 447 479 l 650 442 l 650 782 l 538 782 l 538 875 l 867 875 l 867 782 m 754 964 l 649 964 l 649 1213 l 754 1213 l 754 964 z "},"ॴ":{"ha":1169,"x_min":56,"x_max":1183,"o":"m 56 0 m 1183 782 l 1064 782 l 1064 0 l 958 0 l 958 782 l 754 782 l 754 0 l 650 0 l 650 349 l 499 349 l 499 329 l 499 288 q 437 132 497 189 q 275 75 376 75 q 115 132 174 75 q 56 279 56 189 q 58 313 56 299 l 161 313 l 161 296 q 190 201 161 233 q 274 168 219 168 q 358 199 326 168 q 390 288 389 231 l 390 329 q 357 416 390 388 q 268 444 324 444 l 210 444 l 210 535 l 272 535 q 347 566 318 535 q 376 656 376 597 l 376 694 q 348 772 376 744 q 276 800 319 800 q 203 769 231 800 q 176 676 176 738 l 176 663 l 72 663 q 69 696 69 676 q 128 838 69 785 q 282 892 186 892 q 428 840 374 892 q 483 694 483 788 l 483 656 q 410 499 483 550 l 410 494 q 471 442 447 479 l 650 442 l 650 782 l 538 782 l 538 875 l 1183 875 l 1183 782 m 1064 964 l 958 964 l 958 1213 l 1064 1213 l 1064 964 z "},"ॵ":{"ha":1169,"x_min":56,"x_max":1183,"o":"m 1183 782 l 1064 782 l 1064 0 l 958 0 l 958 782 l 754 782 l 754 0 l 650 0 l 650 349 l 499 349 l 499 329 l 499 288 q 437 132 497 189 q 275 75 376 75 q 115 132 174 75 q 56 279 56 189 q 58 313 56 299 l 161 313 l 161 296 q 190 201 161 233 q 274 168 219 168 q 358 199 326 168 q 390 288 389 231 l 390 329 q 357 416 390 388 q 268 444 324 444 l 210 444 l 210 535 l 272 535 q 347 566 318 535 q 376 656 376 597 l 376 694 q 348 772 376 744 q 276 800 319 800 q 203 769 231 800 q 176 676 176 738 l 176 663 l 72 663 q 69 696 69 676 q 128 838 69 785 q 282 892 186 892 q 428 840 374 892 q 483 694 483 788 l 483 656 q 410 499 483 550 l 410 494 q 471 442 447 479 l 650 442 l 650 782 l 538 782 l 538 875 l 893 875 q 877 919 893 906 q 826 933 861 933 l 568 933 q 439 969 479 933 q 399 1081 399 1004 l 399 1113 l 503 1113 l 503 1081 q 518 1031 503 1046 q 568 1017 533 1017 l 826 1017 q 957 983 917 1017 q 997 875 997 949 l 1010 875 q 1032 999 1032 988 q 968 1061 1032 1061 l 710 1061 q 581 1096 622 1061 q 540 1206 540 1131 l 540 1238 l 644 1238 l 644 1206 q 660 1160 644 1174 q 710 1146 675 1146 l 968 1146 q 1093 1110 1050 1146 q 1136 1007 1136 1074 q 1115 875 1136 982 l 1183 875 l 1183 782 z "},"ॶ":{"ha":853,"x_min":56,"x_max":867,"o":"m 56 0 m 867 782 l 754 782 l 754 0 l 650 0 l 650 349 l 499 349 l 499 329 l 499 288 q 437 132 497 189 q 275 75 376 75 q 115 132 174 75 q 56 279 56 189 q 58 313 56 299 l 161 313 l 161 296 q 190 201 161 233 q 274 168 219 168 q 358 199 326 168 q 390 288 389 231 l 390 329 q 357 416 390 388 q 268 444 324 444 l 210 444 l 210 535 l 272 535 q 347 566 318 535 q 376 656 376 597 l 376 694 q 348 772 376 744 q 276 800 319 800 q 203 769 231 800 q 176 676 176 738 l 176 663 l 72 663 q 69 696 69 676 q 128 838 69 785 q 282 892 186 892 q 428 840 374 892 q 483 694 483 788 l 483 656 q 410 499 483 550 l 410 494 q 471 442 447 479 l 650 442 l 650 782 l 538 782 l 538 875 l 867 875 l 867 782 m 676 -43 q 645 -124 672 -85 q 566 -187 618 -162 q 440 -211 514 -211 q 315 -187 367 -211 q 237 -124 264 -162 q 206 -43 210 -85 l 292 -43 q 342 -103 307 -78 q 440 -129 378 -129 q 540 -103 504 -129 q 589 -43 575 -76 l 676 -43 z "},"ॷ":{"ha":853,"x_min":56,"x_max":867,"o":"m 56 0 m 867 782 l 754 782 l 754 0 l 650 0 l 650 349 l 499 349 l 499 329 l 499 288 q 437 132 497 189 q 275 75 376 75 q 115 132 174 75 q 56 279 56 189 q 58 313 56 299 l 161 313 l 161 296 q 190 201 161 233 q 274 168 219 168 q 358 199 326 168 q 390 288 389 231 l 390 329 q 357 416 390 388 q 268 444 324 444 l 210 444 l 210 535 l 272 535 q 347 566 318 535 q 376 656 376 597 l 376 694 q 348 772 376 744 q 276 800 319 800 q 203 769 231 800 q 176 676 176 738 l 176 663 l 72 663 q 69 696 69 676 q 128 838 69 785 q 282 892 186 892 q 428 840 374 892 q 483 694 483 788 l 483 656 q 410 499 483 550 l 410 494 q 471 442 447 479 l 650 442 l 650 782 l 538 782 l 538 875 l 867 875 l 867 782 z "},"ा":{"ha":317,"x_min":-14,"x_max":331,"o":"m 331 782 l 211 782 l 211 0 l 106 0 l 106 782 l -14 782 l -14 875 l 331 875 l 331 782 z "},"ि":{"ha":317,"x_min":-14,"x_max":821,"o":"m 613 1243 q 767 1165 713 1221 q 821 1025 821 1108 q 819 972 821 985 l 717 972 l 717 1013 q 688 1097 717 1060 q 592 1153 658 1135 q 485 1165 550 1165 l 458 1165 q 351 1156 394 1165 q 242 1092 274 1138 q 210 975 210 1047 l 210 875 l 331 875 l 331 782 l 211 782 l 211 0 l 106 0 l 106 782 l -14 782 l -14 875 l 106 875 l 106 989 q 158 1152 106 1088 q 319 1242 211 1217 q 471 1258 385 1258 q 613 1243 547 1258 z "},"ी":{"ha":317,"x_min":-197,"x_max":331,"o":"m 331 782 l 211 782 l 211 0 l 106 0 l 106 782 l -14 782 l -14 875 l 106 875 l 106 1010 q 83 1126 106 1086 q 6 1165 61 1165 q -70 1123 -46 1165 q -94 1021 -94 1081 l -94 972 l -196 972 q -197 1035 -197 988 q -139 1200 -197 1142 q 14 1258 -81 1258 q 160 1197 110 1258 q 211 1024 211 1136 l 211 875 l 331 875 l 331 782 z "},"ॉ":{"ha":317,"x_min":-47,"x_max":363,"o":"m 0 0 m 331 782 l 211 782 l 211 0 l 106 0 l 106 782 l -14 782 l -14 875 l 331 875 l 331 782 m 363 1154 q 308 1013 363 1067 q 157 958 253 958 q 8 1013 63 958 q -47 1154 -47 1067 l 54 1154 q 84 1069 54 1099 q 157 1040 114 1040 q 233 1069 204 1040 q 263 1154 263 1099 l 363 1154 z "},"ॊ":{"ha":317,"x_min":-372,"x_max":331,"o":"m 331 782 l 211 782 l 211 0 l 106 0 l 106 782 l -14 782 l -14 875 l 106 875 l 106 956 q 90 999 106 986 q 39 1013 74 1013 l -203 1013 q -332 1048 -292 1013 q -372 1163 -372 1083 l -372 1194 l -268 1194 l -268 1163 q -253 1119 -268 1132 q -203 1106 -237 1106 l 39 1106 q 169 1070 129 1106 q 210 956 210 1035 l 210 875 l 331 875 l 331 782 z "},"ो":{"ha":317,"x_min":-14,"x_max":331,"o":"m 331 782 l 211 782 l 211 0 l 106 0 l 106 782 l -14 782 l -14 875 l 104 875 l -14 1258 l 92 1258 l 197 875 l 331 875 l 331 782 z "},"ौ":{"ha":317,"x_min":-125,"x_max":331,"o":"m 331 782 l 211 782 l 211 0 l 106 0 l 106 782 l -19 782 l -19 875 l -7 875 l -125 1258 l -19 1258 l 86 875 l 110 875 q 99 1074 99 982 l 99 1258 l 203 1258 l 203 875 l 331 875 l 331 782 z "},"ॎ":{"ha":317,"x_min":106,"x_max":331,"o":"m 331 782 l 211 782 l 211 0 l 106 0 l 106 875 l 331 875 l 331 782 z "},"ऻ":{"ha":317,"x_min":-14,"x_max":331,"o":"m 331 782 l 211 782 l 211 0 l 106 0 l 106 782 l -14 782 l -14 875 l 104 875 l 104 1124 l 210 1124 l 210 875 l 331 875 l 331 782 z "},"ॏ":{"ha":317,"x_min":-454,"x_max":331,"o":"m 331 782 l 211 782 l 211 0 l 106 0 l 106 782 l -14 782 l -14 875 l 40 875 q 24 919 40 906 q -26 933 8 933 l -285 933 q -414 969 -374 933 q -454 1081 -454 1004 l -454 1113 l -350 1113 l -350 1081 q -335 1031 -350 1046 q -285 1017 -319 1017 l -26 1017 q 104 983 64 1017 q 144 875 144 949 l 157 875 q 179 999 179 988 q 115 1061 179 1061 l -143 1061 q -272 1096 -231 1061 q -312 1206 -312 1131 l -312 1238 l -208 1238 l -208 1206 q -193 1160 -208 1174 q -143 1146 -178 1146 l 115 1146 q 240 1110 197 1146 q 283 1007 283 1074 q 263 875 283 982 l 331 875 l 331 782 z "},"क":{"ha":886,"x_min":-14,"x_max":900,"o":"m 486 600 l 490 600 q 549 647 513 629 q 635 665 586 665 q 781 598 728 665 q 835 410 835 531 q 778 217 835 286 q 624 149 722 149 q 589 151 611 149 l 589 243 l 606 243 q 696 278 667 243 q 725 392 725 313 l 725 424 q 697 538 725 503 q 608 574 668 574 q 516 537 546 574 q 486 424 486 500 l 486 0 l 381 0 l 381 217 l 375 217 q 229 149 325 149 q 85 213 139 149 q 31 408 31 278 q 85 601 31 538 q 232 665 140 665 q 375 600 329 665 l 381 600 l 381 782 l -14 782 l -14 875 l 900 875 l 900 782 l 486 782 l 486 600 m 260 243 q 381 392 381 243 l 381 424 q 260 574 381 574 q 169 538 199 574 q 140 424 140 503 l 140 392 q 169 278 140 313 q 260 243 199 243 z "},"ख":{"ha":942,"x_min":-14,"x_max":956,"o":"m 956 782 l 836 782 l 836 0 l 731 0 l 731 129 q 624 71 693 90 q 468 51 554 51 q 153 158 268 51 q 38 468 38 264 l 108 468 q 204 506 171 468 q 238 618 238 544 l 238 782 l -14 782 l -14 875 l 956 875 l 956 782 m 731 782 l 340 782 l 340 628 q 292 452 340 514 q 153 385 244 390 q 258 201 176 260 q 472 142 340 142 q 731 286 703 142 l 726 286 q 674 247 706 263 q 600 232 642 232 q 467 288 517 232 q 417 457 417 343 q 467 623 417 568 q 600 678 517 678 q 726 625 681 678 l 731 625 l 731 782 m 731 468 q 628 585 731 585 q 552 557 578 585 q 526 468 526 529 l 526 443 q 552 354 526 382 q 628 326 578 326 q 731 443 731 326 l 731 468 z "},"ग":{"ha":783,"x_min":-14,"x_max":797,"o":"m 797 782 l 678 782 l 678 0 l 572 0 l 572 782 l 383 782 l 383 382 q 335 251 383 300 q 204 201 286 201 q 78 253 129 201 q 26 382 26 306 q 74 513 26 464 q 204 563 122 563 l 279 563 l 279 782 l -14 782 l -14 875 l 797 875 l 797 782 m 204 294 q 259 318 239 294 q 279 382 279 342 l 279 467 l 204 467 q 150 444 169 467 q 131 382 131 421 q 151 319 131 344 q 204 294 171 294 z "},"घ":{"ha":672,"x_min":-14,"x_max":686,"o":"m 686 782 l 567 782 l 567 0 l 461 0 l 461 214 q 290 149 403 149 q 124 202 188 149 q 61 350 61 256 q 91 453 61 411 q 171 515 121 496 q 91 575 119 539 q 63 675 63 611 q 92 782 63 743 l -14 782 l -14 875 l 686 875 l 686 782 m 304 239 q 422 284 382 239 q 461 424 461 329 l 461 782 l 214 782 q 169 690 169 782 q 202 588 169 622 q 286 553 235 553 l 347 553 l 347 465 l 288 465 q 203 440 236 465 q 169 357 169 414 q 304 239 169 239 z "},"ङ":{"ha":661,"x_min":-14,"x_max":676,"o":"m 676 782 l 486 782 l 486 564 l 282 564 q 210 543 238 564 q 182 482 182 522 q 203 430 182 449 q 264 411 225 411 l 318 411 q 471 359 415 411 q 526 215 526 307 q 463 64 526 115 q 290 13 399 13 q 110 70 171 13 q 50 211 50 128 q 51 239 50 228 l 161 239 l 161 225 q 197 135 161 165 q 292 106 233 106 q 382 133 347 106 q 417 217 417 161 q 389 291 417 265 q 311 317 361 317 l 268 317 q 72 482 72 317 q 130 614 72 572 q 288 656 188 656 l 382 656 l 382 782 l -14 782 l -14 875 l 676 875 l 676 782 m 528 560 l 642 560 l 642 436 l 528 436 l 528 560 z "},"च":{"ha":667,"x_min":-14,"x_max":682,"o":"m 682 782 l 563 782 l 563 0 l 457 0 l 457 201 l 453 201 q 394 163 431 178 q 311 149 357 149 q 162 203 217 149 q 107 368 107 257 q 151 515 107 463 l 19 515 l 19 611 l 361 611 l 361 515 l 336 515 q 246 486 275 515 q 217 392 217 457 l 217 365 q 246 271 217 300 q 336 242 275 242 q 457 392 457 242 l 457 782 l -14 782 l -14 875 l 682 875 l 682 782 z "},"छ":{"ha":744,"x_min":-14,"x_max":758,"o":"m 610 782 l 610 656 q 685 585 660 639 q 711 442 711 531 q 665 253 711 336 q 537 122 619 169 q 347 75 454 75 q 139 135 217 75 q 61 300 61 196 q 91 420 61 368 q 171 496 121 472 q 93 548 124 507 q 63 671 63 589 q 94 782 63 742 l -14 782 l -14 875 l 758 875 l 758 782 l 610 782 m 504 782 l 236 782 q 185 751 201 782 q 169 672 169 719 q 196 568 169 603 q 264 533 222 533 l 311 533 l 311 444 l 265 444 q 197 411 225 444 q 169 319 169 378 q 216 203 169 242 q 347 165 263 165 q 485 200 425 165 q 578 295 544 235 q 611 429 611 356 l 611 464 q 598 544 611 511 q 554 576 585 576 q 517 558 529 576 q 506 513 506 540 l 506 496 l 413 496 q 407 539 407 513 q 434 611 407 582 q 504 654 461 640 l 504 782 z "},"ज":{"ha":721,"x_min":-14,"x_max":735,"o":"m 735 782 l 615 782 l 615 0 l 510 0 l 510 506 l 408 506 l 408 344 q 358 199 408 250 q 218 149 308 149 q 78 199 126 149 q 29 344 29 249 l 29 601 l 133 601 l 133 338 q 156 269 133 293 q 218 244 178 244 q 280 269 257 244 q 303 338 303 293 l 303 601 l 510 601 l 510 782 l -14 782 l -14 875 l 735 875 l 735 782 z "},"झ":{"ha":915,"x_min":-14,"x_max":929,"o":"m 929 782 l 810 782 l 810 0 l 704 0 l 704 360 l 481 360 q 526 244 526 318 q 469 106 526 154 q 318 57 411 57 q 190 90 242 57 l 190 -51 l 86 -51 l 86 275 l 190 275 l 190 261 q 223 176 190 204 q 306 149 256 149 q 386 175 356 149 q 417 253 417 201 q 389 322 417 299 q 311 346 361 346 l 268 346 q 123 387 174 346 q 72 497 72 428 q 126 618 72 581 q 274 656 179 656 l 382 656 l 382 782 l -14 782 l -14 875 l 929 875 l 929 782 m 704 782 l 486 782 l 486 564 l 267 564 q 206 547 231 564 q 182 497 182 531 q 203 455 182 469 q 264 440 225 440 l 704 440 l 704 782 z "},"ञ":{"ha":779,"x_min":-14,"x_max":793,"o":"m 793 782 l 674 782 l 674 0 l 568 0 l 568 344 l 418 344 q 361 176 411 231 q 213 122 311 122 q 85 160 135 122 q 35 257 35 199 q 38 286 35 272 l 135 286 l 135 281 q 156 235 135 253 q 213 217 178 217 q 290 250 267 217 q 314 351 314 283 l 314 428 q 290 529 314 496 q 213 563 267 563 q 160 544 181 563 q 140 499 140 526 l 140 493 l 38 493 q 35 521 35 507 q 85 618 35 581 q 213 656 135 656 q 360 603 310 656 q 418 439 410 550 l 568 439 l 568 782 l -14 782 l -14 875 l 793 875 l 793 782 z "},"ट":{"ha":567,"x_min":-14,"x_max":581,"o":"m 292 564 q 160 389 160 564 l 160 342 q 193 212 160 254 q 294 169 226 169 q 390 203 357 169 q 422 299 422 236 l 422 344 l 529 344 q 532 306 532 325 q 471 132 532 189 q 297 75 410 75 q 112 145 174 75 q 50 364 50 215 q 292 656 50 656 l 353 656 l 353 782 l -14 782 l -14 875 l 581 875 l 581 782 l 457 782 l 457 564 l 292 564 z "},"ठ":{"ha":606,"x_min":-14,"x_max":619,"o":"m 457 782 l 457 618 q 564 364 564 551 q 304 75 564 75 q 44 364 44 75 q 304 656 44 656 l 353 656 l 353 782 l -14 782 l -14 875 l 619 875 l 619 782 l 457 782 m 454 389 q 388 563 454 517 l 304 563 q 154 389 154 563 l 154 342 q 304 169 154 169 q 454 342 454 169 l 454 389 z "},"ड":{"ha":586,"x_min":-14,"x_max":601,"o":"m 282 564 q 210 543 238 564 q 182 482 182 522 q 203 430 182 449 q 264 411 225 411 l 318 411 q 471 359 415 411 q 526 215 526 307 q 463 64 526 115 q 290 13 399 13 q 110 70 171 13 q 50 211 50 128 q 51 239 50 228 l 161 239 l 161 225 q 197 135 161 165 q 292 106 233 106 q 382 133 347 106 q 417 217 417 161 q 389 291 417 265 q 311 317 361 317 l 268 317 q 72 482 72 317 q 130 614 72 572 q 288 656 188 656 l 382 656 l 382 782 l -14 782 l -14 875 l 601 875 l 601 782 l 486 782 l 486 564 l 282 564 z "},"ॸ":{"ha":636,"x_min":-14,"x_max":650,"o":"m 360 585 q 328 438 360 494 q 498 369 442 431 q 554 218 554 307 q 489 0 554 129 l 378 0 q 444 213 444 135 q 408 310 444 276 q 306 344 372 344 l 85 344 l 85 439 l 142 439 q 226 474 197 439 q 256 575 256 508 l 256 782 l -14 782 l -14 875 l 650 875 l 650 782 l 360 782 l 360 585 z "},"ढ":{"ha":604,"x_min":-14,"x_max":618,"o":"m 299 564 q 192 520 224 564 q 160 388 160 476 l 160 342 q 221 193 160 235 q 204 268 204 225 q 247 385 204 340 q 369 429 289 429 q 497 385 450 429 q 544 267 544 340 q 482 126 544 178 q 326 75 419 75 q 124 153 196 75 q 51 381 51 231 q 299 656 51 656 l 365 656 l 365 782 l -14 782 l -14 875 l 618 875 l 618 782 l 469 782 l 469 564 l 299 564 m 364 336 q 308 315 328 336 q 288 253 288 293 q 308 190 288 211 q 365 169 328 169 q 419 194 399 169 q 439 260 439 219 q 419 317 439 297 q 364 336 400 336 z "},"ण":{"ha":904,"x_min":-14,"x_max":918,"o":"m 918 782 l 799 782 l 799 0 l 693 0 l 693 782 l 506 782 l 506 358 q 448 203 506 257 q 290 149 390 149 q 132 203 188 149 q 76 358 76 257 l 76 782 l -14 782 l -14 875 l 918 875 l 918 782 m 400 782 l 181 782 l 181 353 q 210 273 181 301 q 290 244 239 244 q 370 273 340 244 q 400 353 400 301 l 400 782 z "},"त":{"ha":663,"x_min":-14,"x_max":678,"o":"m 678 782 l 558 782 l 558 0 l 453 0 l 453 490 l 261 490 q 176 463 200 490 q 153 378 153 435 q 286 0 153 244 l 172 0 q 69 235 94 147 q 43 383 43 324 q 100 533 43 482 q 268 585 157 585 l 453 585 l 453 782 l -14 782 l -14 875 l 678 875 l 678 782 z "},"थ":{"ha":760,"x_min":63,"x_max":774,"o":"m 774 782 l 654 782 l 654 0 l 549 0 l 549 268 q 474 218 521 235 q 368 201 426 201 q 179 271 249 201 q 110 468 110 340 q 272 522 217 468 q 326 664 326 575 q 306 758 326 719 q 242 797 285 797 q 186 771 204 797 q 168 706 168 744 l 168 669 l 68 669 q 63 722 63 686 q 112 847 63 803 q 239 892 161 892 q 381 831 329 892 q 433 672 433 771 q 376 492 433 567 q 229 393 318 417 q 376 290 260 290 q 503 335 457 290 q 549 474 549 381 l 549 782 l 444 782 l 444 875 l 774 875 l 774 782 z "},"द":{"ha":586,"x_min":-14,"x_max":601,"o":"m 292 564 q 160 389 160 564 l 160 342 q 197 212 160 254 q 310 169 233 169 q 421 210 385 169 l 399 301 l 503 301 l 575 0 l 471 0 l 444 110 q 297 75 388 75 q 116 147 182 75 q 50 364 50 218 q 292 656 50 656 l 365 656 l 365 782 l -14 782 l -14 875 l 601 875 l 601 782 l 469 782 l 469 564 l 292 564 z "},"ध":{"ha":700,"x_min":61,"x_max":715,"o":"m 715 782 l 594 782 l 594 0 l 490 0 l 490 217 q 304 149 426 149 q 128 203 194 149 q 61 354 61 257 q 91 460 61 417 q 171 525 121 504 q 91 594 119 551 q 63 710 63 636 q 103 843 63 794 q 210 892 144 892 q 318 858 276 892 q 360 763 360 824 q 354 721 360 738 l 261 721 l 261 749 q 215 803 261 803 q 169 703 169 803 q 202 598 169 633 q 286 563 235 563 l 354 563 l 354 474 l 288 474 q 203 447 236 474 q 169 361 169 421 q 209 268 169 297 q 318 239 249 239 q 447 284 403 239 q 490 424 490 329 l 490 782 l 403 782 l 403 875 l 715 875 l 715 782 z "},"न":{"ha":703,"x_min":-14,"x_max":718,"o":"m 718 782 l 599 782 l 599 0 l 493 0 l 493 465 l 347 465 l 347 393 q 300 270 347 317 q 175 224 253 224 q 52 273 103 224 q 1 393 1 322 q 49 515 1 469 q 175 561 97 561 l 493 561 l 493 782 l -14 782 l -14 875 l 718 875 l 718 782 m 243 465 l 175 465 q 125 445 144 465 q 106 393 106 425 q 126 341 106 363 q 175 319 147 319 q 224 340 206 319 q 243 393 243 360 l 243 465 z "},"ऩ":{"ha":703,"x_min":-14,"x_max":718,"o":"m 0 0 m 718 782 l 599 782 l 599 0 l 493 0 l 493 465 l 347 465 l 347 393 q 300 270 347 317 q 175 224 253 224 q 52 273 103 224 q 1 393 1 322 q 49 515 1 469 q 175 561 97 561 l 493 561 l 493 782 l -14 782 l -14 875 l 718 875 l 718 782 m 243 465 l 175 465 q 125 445 144 465 q 106 393 106 425 q 126 341 106 363 q 175 319 147 319 q 224 340 206 319 q 243 393 243 360 l 243 465 z "},"प":{"ha":611,"x_min":-14,"x_max":625,"o":"m 625 782 l 506 782 l 506 0 l 400 0 l 400 250 q 264 201 349 201 q 126 256 175 201 q 76 410 76 310 l 76 782 l -14 782 l -14 875 l 625 875 l 625 782 m 292 296 q 365 319 335 296 q 400 383 394 342 l 400 782 l 182 782 l 182 418 q 210 328 182 360 q 292 296 239 296 z "},"फ":{"ha":906,"x_min":-14,"x_max":919,"o":"m 506 600 l 510 600 q 569 647 532 629 q 654 665 606 665 q 801 598 747 665 q 854 410 854 531 q 798 217 854 286 q 643 149 742 149 q 608 151 631 149 l 608 243 l 625 243 q 715 278 686 243 q 744 392 744 313 l 744 424 q 716 538 744 503 q 628 574 688 574 q 535 537 565 574 q 506 424 506 500 l 506 0 l 400 0 l 400 250 q 264 201 349 201 q 126 256 175 201 q 76 410 76 310 l 76 782 l -14 782 l -14 875 l 919 875 l 919 782 l 506 782 l 506 600 m 182 782 l 182 418 q 210 328 182 360 q 292 296 239 296 q 365 319 335 296 q 400 383 394 342 l 400 782 l 182 782 z "},"ब":{"ha":631,"x_min":-14,"x_max":646,"o":"m 646 782 l 526 782 l 526 0 l 421 0 l 421 203 l 417 203 q 351 164 392 179 q 260 149 311 149 q 101 213 160 149 q 42 408 42 278 q 100 602 42 539 q 260 665 158 665 q 417 614 363 665 l 421 614 l 421 782 l -14 782 l -14 875 l 646 875 l 646 782 m 392 286 q 421 392 421 322 l 421 424 q 286 574 421 574 q 239 568 257 574 l 392 286 m 151 392 q 184 278 151 313 q 286 243 217 243 q 340 251 318 243 l 185 539 q 151 424 151 501 l 151 392 z "},"भ":{"ha":818,"x_min":61,"x_max":832,"o":"m 832 782 l 711 782 l 711 0 l 607 0 l 607 374 l 413 374 l 413 301 q 366 180 413 226 q 242 133 319 133 q 119 183 169 133 q 68 301 68 232 q 116 422 68 376 q 242 468 164 468 l 310 468 l 310 708 q 238 797 310 797 q 184 770 201 797 q 167 706 167 743 l 167 663 l 67 663 q 61 718 61 688 q 113 846 61 800 q 244 892 164 892 q 369 847 326 892 q 413 721 413 801 l 413 468 l 607 468 l 607 782 l 481 782 l 481 875 l 832 875 l 832 782 m 310 374 l 242 374 q 192 354 211 374 q 172 301 172 335 q 193 249 172 271 q 242 226 214 226 q 291 247 272 226 q 310 301 310 268 l 310 374 z "},"म":{"ha":765,"x_min":-14,"x_max":779,"o":"m 779 782 l 660 782 l 660 0 l 554 0 l 554 374 l 351 374 l 351 301 q 303 180 351 226 q 179 133 256 133 q 56 183 107 133 q 6 301 6 232 q 53 422 6 376 q 179 468 100 468 l 247 468 l 247 782 l -14 782 l -14 875 l 779 875 l 779 782 m 554 468 l 554 782 l 351 782 l 351 468 l 554 468 m 247 374 l 179 374 q 128 354 147 374 q 110 301 110 335 q 130 248 110 269 q 179 226 150 226 q 228 247 210 226 q 247 301 247 268 l 247 374 z "},"य":{"ha":682,"x_min":-14,"x_max":696,"o":"m 696 782 l 576 782 l 576 0 l 471 0 l 471 258 q 400 215 443 229 q 308 201 357 201 q 119 283 188 201 q 51 518 51 365 q 174 553 131 518 q 217 646 217 589 q 183 742 217 701 q 101 782 149 782 l -14 782 l -14 875 l 696 875 l 696 782 m 324 290 q 431 335 392 290 q 471 474 471 381 l 471 782 l 263 782 q 308 720 292 758 q 325 640 325 682 q 283 515 325 567 q 168 442 240 464 q 324 290 196 290 z "},"र":{"ha":463,"x_min":-14,"x_max":476,"o":"m 476 782 l 360 782 l 360 585 q 310 418 360 476 q 167 356 261 360 l 342 0 l 229 0 l 57 372 l 57 439 l 128 439 q 223 474 190 439 q 256 575 256 508 l 256 782 l -14 782 l -14 875 l 476 875 l 476 782 z "},"ऱ":{"ha":463,"x_min":-26,"x_max":476,"o":"m 0 0 m 476 782 l 360 782 l 360 585 q 310 418 360 476 q 167 356 261 360 l 342 0 l 229 0 l 57 372 l 57 439 l 128 439 q 223 474 190 439 q 256 575 256 508 l 256 782 l -14 782 l -14 875 l 476 875 l 476 782 z "},"ल":{"ha":881,"x_min":-14,"x_max":896,"o":"m 896 782 l 776 782 l 776 0 l 671 0 l 671 386 q 565 535 671 535 q 489 490 513 535 q 465 375 465 446 l 465 278 l 357 278 l 357 375 q 333 490 357 446 q 256 535 310 535 q 150 335 150 535 q 206 151 150 208 q 385 93 261 93 l 407 93 l 407 6 q 358 0 386 0 q 122 85 203 0 q 42 351 42 171 q 95 551 42 476 q 242 626 149 626 q 349 592 307 626 q 408 497 390 557 l 413 497 q 574 626 451 626 q 671 593 629 626 l 671 782 l -14 782 l -14 875 l 896 875 l 896 782 z "},"ळ":{"ha":914,"x_min":-14,"x_max":929,"o":"m 726 782 l 726 643 q 837 545 797 617 q 876 371 876 474 q 850 222 876 289 q 773 115 824 154 q 651 75 722 75 q 467 217 518 75 q 268 75 403 75 q 103 153 165 75 q 40 361 40 232 q 67 510 40 443 q 144 617 93 578 q 265 657 194 657 q 450 515 401 657 q 622 656 508 643 l 622 782 l -14 782 l -14 875 l 929 875 l 929 782 l 726 782 m 267 169 q 360 228 324 169 q 406 378 397 286 q 356 513 386 463 q 269 564 325 564 q 179 503 210 564 q 149 358 149 443 q 181 222 149 274 q 267 169 213 169 m 647 169 q 738 230 707 169 q 768 374 768 290 q 736 511 768 458 q 650 564 704 564 q 556 505 593 564 q 511 354 519 446 q 563 219 532 269 q 647 169 593 169 z "},"ऴ":{"ha":914,"x_min":-14,"x_max":929,"o":"m 0 0 m 726 782 l 726 643 q 837 545 797 617 q 876 371 876 474 q 850 222 876 289 q 773 115 824 154 q 651 75 722 75 q 467 217 518 75 q 268 75 403 75 q 103 153 165 75 q 40 361 40 232 q 67 510 40 443 q 144 617 93 578 q 265 657 194 657 q 450 515 401 657 q 622 656 508 643 l 622 782 l -14 782 l -14 875 l 929 875 l 929 782 l 726 782 m 267 169 q 360 228 324 169 q 406 378 397 286 q 356 513 386 463 q 269 564 325 564 q 179 503 210 564 q 149 358 149 443 q 181 222 149 274 q 267 169 213 169 m 647 169 q 738 230 707 169 q 768 374 768 290 q 736 511 768 458 q 650 564 704 564 q 556 505 593 564 q 511 354 519 446 q 563 219 532 269 q 647 169 593 169 z "},"व":{"ha":603,"x_min":-14,"x_max":617,"o":"m 617 782 l 497 782 l 497 0 l 392 0 l 392 203 l 388 203 q 240 149 333 149 q 87 213 143 149 q 31 408 31 276 q 87 602 31 539 q 240 665 143 665 q 388 614 336 665 l 392 614 l 392 782 l -14 782 l -14 875 l 617 875 l 617 782 m 265 243 q 392 392 392 243 l 392 424 q 265 574 392 574 q 171 538 201 574 q 140 424 140 503 l 140 392 q 171 278 140 313 q 265 243 201 243 z "},"श":{"ha":769,"x_min":63,"x_max":785,"o":"m 433 667 q 402 524 433 589 q 317 416 371 458 q 196 363 263 374 l 425 0 l 313 0 l 81 372 l 81 439 l 110 439 q 272 501 217 439 q 326 660 326 563 q 306 758 326 718 q 242 797 285 797 q 186 771 204 797 q 168 706 168 744 l 168 669 l 68 669 q 63 722 63 686 q 113 847 63 803 q 240 892 163 892 q 382 831 331 892 q 433 667 433 769 m 785 782 l 663 782 l 663 0 l 558 0 l 558 782 l 467 782 l 467 875 l 785 875 l 785 782 z "},"ष":{"ha":611,"x_min":-12,"x_max":626,"o":"m 626 782 l 507 782 l 507 0 l 401 0 l 401 250 q 265 201 350 201 q 127 256 176 201 q 78 410 78 310 l 78 782 l -12 782 l -12 875 l 626 875 l 626 782 m 183 778 l 400 379 q 401 383 401 381 l 401 782 l 183 782 l 183 778 m 183 418 q 212 328 183 360 q 293 296 240 296 q 365 318 338 296 l 183 650 l 183 418 z "},"स":{"ha":744,"x_min":-14,"x_max":772,"o":"m 772 782 l 653 782 l 653 0 l 547 0 l 547 356 l 168 356 l 342 0 l 229 0 l 57 372 l 57 439 l 128 439 q 158 442 139 439 l 161 442 q 231 484 207 450 q 256 575 256 518 l 256 782 l -14 782 l -14 875 l 772 875 l 772 782 m 547 782 l 360 782 l 360 585 q 328 442 360 497 l 547 442 l 547 782 z "},"ह":{"ha":617,"x_min":-14,"x_max":631,"o":"m 285 564 q 224 546 249 564 q 200 496 200 528 q 230 431 200 447 q 304 411 260 414 q 331 413 313 413 q 514 360 453 413 q 575 206 575 308 q 572 157 575 179 l 465 157 l 465 207 q 432 296 465 264 q 339 328 399 328 q 234 292 272 328 q 196 182 196 257 q 242 59 196 99 q 383 19 288 19 l 471 19 l 471 -62 q 382 -74 431 -74 q 161 -9 235 -74 q 88 189 88 56 q 108 288 88 244 q 167 361 129 332 q 89 497 89 401 q 143 615 89 575 q 286 656 197 656 l 389 656 l 389 782 l -14 782 l -14 875 l 631 875 l 631 782 l 494 782 l 494 564 l 285 564 z "},"क़":{"ha":886,"x_min":-14,"x_max":900,"o":"m 0 0 m 486 600 l 490 600 q 549 647 513 629 q 635 665 586 665 q 781 598 728 665 q 835 410 835 531 q 778 217 835 286 q 624 149 722 149 q 589 151 611 149 l 589 243 l 606 243 q 696 278 667 243 q 725 392 725 313 l 725 424 q 697 538 725 503 q 608 574 668 574 q 516 537 546 574 q 486 424 486 500 l 486 0 l 381 0 l 381 217 l 375 217 q 229 149 325 149 q 85 213 139 149 q 31 408 31 278 q 85 601 31 538 q 232 665 140 665 q 375 600 329 665 l 381 600 l 381 782 l -14 782 l -14 875 l 900 875 l 900 782 l 486 782 l 486 600 m 260 243 q 381 392 381 243 l 381 424 q 260 574 381 574 q 169 538 199 574 q 140 424 140 503 l 140 392 q 169 278 140 313 q 260 243 199 243 z "},"ख़":{"ha":942,"x_min":-14,"x_max":956,"o":"m 0 0 m 956 782 l 836 782 l 836 0 l 731 0 l 731 129 q 624 71 693 90 q 468 51 554 51 q 153 158 268 51 q 38 468 38 264 l 108 468 q 204 506 171 468 q 238 618 238 544 l 238 782 l -14 782 l -14 875 l 956 875 l 956 782 m 731 782 l 340 782 l 340 628 q 292 452 340 514 q 153 385 244 390 q 258 201 176 260 q 472 142 340 142 q 731 286 703 142 l 726 286 q 674 247 706 263 q 600 232 642 232 q 467 288 517 232 q 417 457 417 343 q 467 623 417 568 q 600 678 517 678 q 726 625 681 678 l 731 625 l 731 782 m 731 468 q 628 585 731 585 q 552 557 578 585 q 526 468 526 529 l 526 443 q 552 354 526 382 q 628 326 578 326 q 731 443 731 326 l 731 468 z "},"ग़":{"ha":783,"x_min":-14,"x_max":797,"o":"m 0 0 m 797 782 l 678 782 l 678 0 l 572 0 l 572 782 l 383 782 l 383 382 q 335 251 383 300 q 204 201 286 201 q 78 253 129 201 q 26 382 26 306 q 74 513 26 464 q 204 563 122 563 l 279 563 l 279 782 l -14 782 l -14 875 l 797 875 l 797 782 m 204 294 q 259 318 239 294 q 279 382 279 342 l 279 467 l 204 467 q 150 444 169 467 q 131 382 131 421 q 151 319 131 344 q 204 294 171 294 z "},"ज़":{"ha":721,"x_min":-14,"x_max":735,"o":"m 0 0 m 735 782 l 615 782 l 615 0 l 510 0 l 510 506 l 408 506 l 408 344 q 358 199 408 250 q 218 149 308 149 q 78 199 126 149 q 29 344 29 249 l 29 601 l 133 601 l 133 338 q 156 269 133 293 q 218 244 178 244 q 280 269 257 244 q 303 338 303 293 l 303 601 l 510 601 l 510 782 l -14 782 l -14 875 l 735 875 l 735 782 z "},"ड़":{"ha":586,"x_min":-14,"x_max":601,"o":"m 0 0 m 282 564 q 210 543 238 564 q 182 482 182 522 q 203 430 182 449 q 264 411 225 411 l 318 411 q 471 359 415 411 q 526 215 526 307 q 463 64 526 115 q 290 13 399 13 q 110 70 171 13 q 50 211 50 128 q 51 239 50 228 l 161 239 l 161 225 q 197 135 161 165 q 292 106 233 106 q 382 133 347 106 q 417 217 417 161 q 389 291 417 265 q 311 317 361 317 l 268 317 q 72 482 72 317 q 130 614 72 572 q 288 656 188 656 l 382 656 l 382 782 l -14 782 l -14 875 l 601 875 l 601 782 l 486 782 l 486 564 l 282 564 z "},"ढ़":{"ha":604,"x_min":-14,"x_max":618,"o":"m 0 0 m 299 564 q 192 520 224 564 q 160 388 160 476 l 160 342 q 221 193 160 235 q 204 268 204 225 q 247 385 204 340 q 369 429 289 429 q 497 385 450 429 q 544 267 544 340 q 482 126 544 178 q 326 75 419 75 q 124 153 196 75 q 51 381 51 231 q 299 656 51 656 l 365 656 l 365 782 l -14 782 l -14 875 l 618 875 l 618 782 l 469 782 l 469 564 l 299 564 m 364 336 q 308 315 328 336 q 288 253 288 293 q 308 190 288 211 q 365 169 328 169 q 419 194 399 169 q 439 260 439 219 q 419 317 439 297 q 364 336 400 336 z "},"फ़":{"ha":906,"x_min":-14,"x_max":919,"o":"m 0 0 m 506 600 l 510 600 q 569 647 532 629 q 654 665 606 665 q 801 598 747 665 q 854 410 854 531 q 798 217 854 286 q 643 149 742 149 q 608 151 631 149 l 608 243 l 625 243 q 715 278 686 243 q 744 392 744 313 l 744 424 q 716 538 744 503 q 628 574 688 574 q 535 537 565 574 q 506 424 506 500 l 506 0 l 400 0 l 400 250 q 264 201 349 201 q 126 256 175 201 q 76 410 76 310 l 76 782 l -14 782 l -14 875 l 919 875 l 919 782 l 506 782 l 506 600 m 182 782 l 182 418 q 210 328 182 360 q 292 296 239 296 q 365 319 335 296 q 400 383 394 342 l 400 782 l 182 782 z "},"य़":{"ha":682,"x_min":-14,"x_max":696,"o":"m 0 0 m 696 782 l 576 782 l 576 0 l 471 0 l 471 258 q 400 215 443 229 q 308 201 357 201 q 119 283 188 201 q 51 518 51 365 q 174 553 131 518 q 217 646 217 589 q 183 742 217 701 q 101 782 149 782 l -14 782 l -14 875 l 696 875 l 696 782 m 324 290 q 431 335 392 290 q 471 474 471 381 l 471 782 l 263 782 q 308 720 292 758 q 325 640 325 682 q 283 515 325 567 q 168 442 240 464 q 324 290 196 290 z "},"ॹ":{"ha":721,"x_min":-14,"x_max":735,"o":"m 0 0 m 735 782 l 615 782 l 615 0 l 510 0 l 510 506 l 408 506 l 408 344 q 358 199 408 250 q 218 149 308 149 q 78 199 126 149 q 29 344 29 249 l 29 601 l 133 601 l 133 338 q 156 269 133 293 q 218 244 178 244 q 280 269 257 244 q 303 338 303 293 l 303 601 l 510 601 l 510 782 l -14 782 l -14 875 l 735 875 l 735 782 z "},"ॺ":{"ha":682,"x_min":-14,"x_max":696,"o":"m 696 782 l 576 782 l 576 0 l 471 0 l 471 258 q 400 215 443 229 q 308 201 357 201 q 119 283 188 201 q 51 518 51 365 q 174 553 131 518 q 217 646 217 589 q 183 742 217 701 q 101 782 149 782 l -14 782 l -14 875 l 696 875 l 696 782 m 274 782 l 293 749 q 308 719 304 729 l 468 428 q 471 474 471 456 l 471 782 l 274 782 m 324 290 q 442 349 403 290 l 315 578 q 262 493 300 528 q 168 442 224 458 q 324 290 196 290 z "},"ॻ":{"ha":783,"x_min":-14,"x_max":797,"o":"m 797 782 l 678 782 l 678 0 l 83 0 l 83 81 l 572 81 l 572 782 l 383 782 l 383 367 q 335 235 383 285 q 204 186 286 186 q 78 238 129 186 q 26 367 26 290 q 74 498 26 449 q 204 547 122 547 l 279 547 l 279 782 l -14 782 l -14 875 l 797 875 l 797 782 m 204 281 q 259 304 239 281 q 279 367 279 328 l 279 453 l 204 453 q 150 430 169 453 q 131 367 131 407 q 151 306 131 331 q 204 281 172 281 z "},"ॼ":{"ha":719,"x_min":-14,"x_max":733,"o":"m 733 782 l 614 782 l 614 0 l 28 0 l 28 81 l 508 81 l 508 506 l 407 506 l 407 363 q 357 219 407 269 q 217 168 307 168 q 76 218 125 168 q 28 363 28 268 l 28 601 l 132 601 l 132 357 q 153 287 132 311 q 217 263 175 263 q 278 287 256 263 q 301 357 301 311 l 301 601 l 508 601 l 508 782 l -14 782 l -14 875 l 733 875 l 733 782 z "},"ॾ":{"ha":572,"x_min":-14,"x_max":586,"o":"m 253 564 q 192 549 217 564 q 168 504 168 533 q 250 450 168 450 l 314 450 q 459 401 407 450 q 511 265 511 353 q 448 120 511 169 q 278 71 385 71 q 97 124 157 71 q 36 254 36 176 q 38 282 36 272 l 147 282 l 147 268 q 183 190 147 215 q 279 164 219 164 q 368 189 335 164 q 401 265 401 214 q 376 332 401 308 q 306 356 351 356 l 254 356 q 58 504 58 356 q 112 619 58 583 q 258 656 165 656 l 367 656 l 367 782 l -14 782 l -14 875 l 586 875 l 586 782 l 472 782 l 472 564 l 253 564 m 50 0 l 497 0 l 497 -81 l 50 -81 l 50 0 z "},"ॿ":{"ha":631,"x_min":-14,"x_max":646,"o":"m 646 782 l 526 782 l 526 0 l 57 0 l 57 81 l 421 81 l 421 239 l 417 239 q 351 200 392 215 q 260 185 311 185 q 100 246 158 185 q 42 432 42 307 q 101 617 42 556 q 260 678 160 678 q 417 625 361 678 l 421 625 l 421 782 l -14 782 l -14 875 l 646 875 l 646 782 m 390 315 q 421 414 421 347 l 421 446 q 286 585 421 585 q 246 582 271 585 l 390 315 m 151 414 q 184 310 151 342 q 286 279 217 279 q 336 285 318 279 l 189 557 q 151 446 151 524 l 151 414 z "},"⁄":{"ha":175,"x_min":-222,"x_max":389,"o":"m 310 892 l 389 892 l -142 -15 l -222 -15 l 310 892 z "},"½":{"ha":874,"x_min":39,"x_max":819,"o":"m 664 892 l 743 892 l 214 -15 l 133 -15 l 664 892 m 314 363 l 40 363 l 40 436 l 142 436 l 142 765 l 39 765 l 39 821 q 112 841 69 825 q 183 875 154 857 l 221 875 l 221 436 l 314 436 l 314 363 m 678 528 q 779 494 740 528 q 818 389 818 460 q 785 281 818 332 q 697 171 753 229 l 676 147 q 625 81 640 111 l 819 81 l 819 0 l 528 0 l 528 21 q 551 110 528 69 q 615 196 574 151 q 660 244 625 206 q 714 319 696 283 q 732 389 732 354 q 719 434 732 415 q 676 453 707 453 q 631 428 646 453 q 615 368 615 404 l 615 328 l 535 328 l 533 367 q 574 488 533 447 q 678 528 615 528 z "},"¼":{"ha":874,"x_min":39,"x_max":821,"o":"m 678 892 l 757 892 l 226 -15 l 147 -15 l 678 892 m 314 363 l 40 363 l 40 436 l 142 436 l 142 765 l 39 765 l 39 821 q 112 841 69 825 q 183 875 154 857 l 221 875 l 221 436 l 314 436 l 314 363 m 710 528 q 651 343 690 439 q 581 194 611 247 l 689 194 l 689 313 q 733 454 724 404 l 768 454 l 768 194 l 821 194 l 821 122 l 768 122 l 768 0 l 689 0 l 689 122 l 497 122 l 497 189 q 572 351 538 263 q 629 528 607 440 l 710 528 z "},"¾":{"ha":874,"x_min":35,"x_max":821,"o":"m 182 892 q 285 853 247 892 q 324 744 324 814 q 308 676 324 704 q 261 631 292 649 q 312 583 293 615 q 331 508 331 551 q 290 397 331 438 q 185 357 250 357 q 74 399 113 357 q 35 515 35 442 l 35 531 l 115 531 l 115 513 q 181 429 115 429 q 231 450 213 429 q 250 511 250 471 q 179 590 250 590 l 135 590 l 135 664 l 181 664 q 225 683 207 664 q 243 742 243 703 q 226 800 243 781 q 183 819 210 819 q 140 799 157 819 q 124 738 124 778 l 124 721 l 43 721 l 43 744 q 82 851 43 811 q 182 892 121 892 m 667 892 l 747 892 l 217 -15 l 138 -15 l 667 892 m 710 528 q 651 343 690 439 q 581 194 611 247 l 689 194 l 689 313 q 733 454 724 404 l 768 454 l 768 194 l 821 194 l 821 122 l 768 122 l 768 0 l 689 0 l 689 122 l 497 122 l 497 189 q 572 351 538 263 q 629 528 607 440 l 710 528 z "},"⅛":{"ha":874,"x_min":38,"x_max":822,"o":"m 676 892 l 754 892 l 225 -15 l 144 -15 l 676 892 m 313 363 l 39 363 l 39 436 l 139 436 l 139 765 l 38 765 l 38 821 q 110 841 67 825 q 182 875 153 857 l 218 875 l 218 436 l 313 436 l 313 363 m 678 521 q 778 478 742 521 q 814 371 814 436 q 800 308 814 338 q 761 258 786 279 q 808 210 794 239 q 822 140 822 181 q 786 28 822 72 q 678 -15 750 -15 q 567 28 603 -15 q 531 140 531 72 q 546 212 531 181 q 590 260 561 243 q 540 371 540 303 q 576 478 540 436 q 678 521 613 521 m 678 446 q 635 426 651 446 q 619 371 619 407 q 635 315 619 336 q 678 294 651 294 q 718 315 703 294 q 733 371 733 336 q 718 426 733 407 q 678 446 703 446 m 678 222 q 628 201 644 222 q 611 140 611 179 q 628 81 611 101 q 678 60 644 60 q 726 81 710 60 q 743 140 743 101 q 726 201 743 179 q 678 222 710 222 z "},"⅜":{"ha":874,"x_min":49,"x_max":822,"o":"m 197 892 q 299 853 261 892 q 338 744 338 814 q 322 676 338 703 q 278 631 307 649 q 328 583 308 615 q 347 508 347 551 q 307 397 347 438 q 201 357 267 357 q 89 399 129 357 q 49 515 49 442 l 49 531 l 132 531 l 132 513 q 194 429 132 429 q 247 450 228 429 q 265 511 265 471 q 193 590 265 590 l 149 590 l 149 664 l 194 664 q 240 683 222 664 q 258 742 258 703 q 241 799 258 779 q 200 819 224 819 q 156 799 174 819 q 139 738 139 778 l 139 721 l 60 721 l 60 744 q 98 851 60 811 q 197 892 136 892 m 138 -15 l 667 892 l 747 892 l 217 -15 l 138 -15 m 678 521 q 778 478 742 521 q 814 371 814 436 q 800 308 814 338 q 761 258 786 279 q 808 210 794 239 q 822 140 822 181 q 786 28 822 72 q 678 -15 750 -15 q 567 28 603 -15 q 531 140 531 72 q 546 212 531 181 q 590 260 561 243 q 540 371 540 303 q 576 478 540 436 q 678 521 613 521 m 678 446 q 635 426 651 446 q 619 371 619 407 q 635 315 619 336 q 678 294 651 294 q 718 315 703 294 q 733 371 733 336 q 718 426 733 407 q 678 446 703 446 m 678 222 q 628 201 644 222 q 611 140 611 179 q 628 81 611 101 q 678 60 644 60 q 726 81 710 60 q 743 140 743 101 q 726 201 743 179 q 678 222 710 222 z "},"⅝":{"ha":874,"x_min":43,"x_max":831,"o":"m 674 892 l 753 892 l 222 -15 l 142 -15 l 674 892 m 136 665 q 215 700 165 700 q 306 656 271 700 q 342 531 342 613 q 303 395 342 443 q 193 347 264 347 q 84 392 125 347 q 43 515 43 438 l 125 515 q 144 447 125 472 q 193 422 164 422 q 242 450 224 422 q 260 531 260 478 q 244 602 260 576 q 200 628 228 628 q 131 574 158 628 l 58 586 l 75 875 l 322 875 l 322 794 l 143 794 l 136 665 m 686 521 q 786 478 750 521 q 822 371 822 436 q 808 308 822 338 q 769 258 794 279 q 817 210 803 239 q 831 140 831 182 q 794 28 831 72 q 686 -15 758 -15 q 575 28 611 -15 q 539 140 539 72 q 554 212 539 181 q 600 260 569 243 q 549 371 549 304 q 585 478 549 436 q 686 521 622 521 m 686 446 q 644 426 660 446 q 628 371 628 407 q 644 315 628 336 q 686 294 660 294 q 728 315 713 294 q 743 371 743 336 q 728 426 743 407 q 686 446 713 446 m 686 222 q 637 200 654 222 q 619 140 619 178 q 637 81 619 101 q 686 60 654 60 q 735 81 718 60 q 751 140 751 101 q 735 201 751 179 q 686 222 718 222 z "},"⅞":{"ha":874,"x_min":75,"x_max":836,"o":"m 121 -15 l 653 892 l 732 892 l 203 -15 l 121 -15 m 376 828 q 267 621 310 725 q 224 411 224 517 l 225 365 l 138 365 q 276 796 138 569 l 75 796 l 75 875 l 376 875 l 376 828 m 690 521 q 792 478 756 521 q 828 371 828 436 q 814 308 828 338 q 775 258 800 279 q 822 210 808 239 q 836 140 836 181 q 800 28 836 72 q 690 -15 764 -15 q 581 28 617 -15 q 544 140 544 72 q 560 210 544 179 q 606 260 576 242 q 554 371 554 304 q 590 478 554 436 q 690 521 626 521 m 690 446 q 649 426 664 446 q 633 371 633 407 q 649 315 633 336 q 690 294 664 294 q 733 315 717 294 q 749 371 749 336 q 733 426 749 407 q 690 446 717 446 m 690 222 q 641 200 658 222 q 624 140 624 178 q 641 81 624 101 q 690 60 658 60 q 739 81 722 60 q 756 140 756 101 q 739 201 756 179 q 690 222 722 222 z "},"¹":{"ha":349,"x_min":49,"x_max":325,"o":"m 325 411 l 50 411 l 50 485 l 151 485 l 151 815 l 49 815 l 49 869 q 123 890 81 874 q 193 925 165 906 l 231 925 l 231 485 l 325 485 l 325 411 z "},"²":{"ha":349,"x_min":31,"x_max":322,"o":"m 181 939 q 282 904 243 939 q 321 799 321 869 q 290 694 321 743 q 201 581 258 644 q 178 556 194 572 q 149 523 161 539 q 129 492 136 507 l 322 492 l 322 411 l 31 411 l 31 432 q 51 517 31 478 q 111 600 72 557 l 139 629 q 213 719 189 682 q 238 799 238 756 q 224 844 238 825 q 179 864 210 864 q 133 840 149 864 q 118 779 118 817 l 118 739 l 39 739 q 38 754 39 743 q 36 778 36 765 q 77 899 36 858 q 181 939 118 939 z "},"³":{"ha":349,"x_min":29,"x_max":325,"o":"m 178 939 q 280 900 242 939 q 318 792 318 861 q 303 724 318 750 q 257 678 288 697 q 306 630 288 661 q 325 556 325 599 q 285 444 325 485 q 181 403 246 403 q 69 446 108 403 q 29 564 29 489 l 29 578 l 111 578 l 111 561 q 175 476 111 476 q 227 497 208 476 q 246 558 246 517 q 174 639 246 639 l 129 639 l 129 711 l 175 711 q 219 731 201 711 q 238 788 238 750 q 221 846 238 826 q 179 865 204 865 q 135 845 153 865 q 118 786 118 825 l 118 768 l 39 768 l 39 792 q 78 899 39 858 q 178 939 117 939 z "},"०":{"ha":611,"x_min":65,"x_max":546,"o":"m 306 746 q 485 672 424 746 q 546 458 546 599 q 485 245 546 318 q 306 172 424 172 q 126 245 188 172 q 65 458 65 318 q 126 672 65 599 q 306 746 188 746 m 306 651 q 171 476 171 651 l 171 440 q 306 265 171 265 q 440 440 440 265 l 440 476 q 306 651 440 651 z "},"१":{"ha":494,"x_min":61,"x_max":433,"o":"m 342 197 q 386 138 371 165 q 401 82 401 111 q 378 0 401 43 l 292 0 q 300 67 300 40 q 274 129 300 99 l 86 313 l 88 386 q 283 543 221 444 l 278 543 q 121 598 181 543 q 61 743 61 653 q 113 872 61 825 q 249 919 164 919 q 383 869 333 919 q 433 715 433 818 q 365 498 433 592 q 199 338 297 404 l 342 197 m 319 629 q 329 711 329 664 q 309 800 329 772 q 249 828 289 828 q 187 804 208 828 q 165 736 165 781 q 194 657 165 685 q 275 629 224 629 l 319 629 z "},"२":{"ha":561,"x_min":67,"x_max":503,"o":"m 274 919 q 447 834 392 919 q 503 568 503 749 q 450 301 503 386 q 283 217 397 217 q 171 251 217 217 l 171 0 l 67 0 l 67 483 l 171 483 q 194 353 171 394 q 274 311 218 311 q 364 369 335 311 q 393 544 393 428 l 393 592 q 364 768 393 710 q 274 826 335 826 q 197 786 218 826 q 176 656 176 746 l 72 656 q 68 699 68 676 q 122 863 69 806 q 274 919 174 919 z "},"३":{"ha":583,"x_min":67,"x_max":525,"o":"m 394 544 q 489 483 453 532 q 525 358 525 435 q 464 203 525 261 q 304 146 403 146 q 172 186 225 146 l 171 0 l 67 0 l 69 396 l 174 396 l 174 381 q 292 239 174 239 q 383 271 349 239 q 417 364 417 303 q 381 460 417 425 q 285 496 344 496 l 211 496 l 211 585 l 286 585 q 370 619 339 585 q 401 713 401 654 q 372 799 401 769 q 296 829 342 829 q 218 795 247 829 q 189 694 189 761 l 189 682 l 82 682 l 82 706 q 142 861 82 803 q 299 919 201 919 q 450 867 392 919 q 508 719 508 814 q 394 549 508 593 l 394 544 z "},"४":{"ha":611,"x_min":65,"x_max":546,"o":"m 174 636 q 208 517 174 560 q 306 474 242 474 q 403 517 369 474 q 438 636 438 560 l 438 906 l 546 906 l 546 636 q 432 426 546 482 q 503 344 479 396 q 528 228 528 292 q 469 53 528 122 q 306 -15 411 -15 q 142 53 200 -15 q 83 228 83 122 q 108 344 83 292 q 178 426 132 396 q 65 636 65 482 l 65 906 l 174 906 l 174 636 m 306 78 q 392 119 360 78 q 425 229 425 160 q 392 341 425 300 q 306 382 360 382 q 219 341 251 382 q 188 229 188 300 q 219 118 188 158 q 306 78 251 78 z "},"५":{"ha":582,"x_min":67,"x_max":513,"o":"m 513 526 l 513 0 l 408 0 l 408 213 q 282 172 360 172 q 115 268 163 172 q 67 503 67 364 q 150 906 67 685 l 261 906 q 172 519 172 690 l 172 483 q 290 264 172 264 q 380 318 351 264 q 408 479 408 372 l 408 526 l 513 526 z "},"६":{"ha":583,"x_min":60,"x_max":588,"o":"m 482 0 l 431 214 q 279 146 378 146 q 120 203 181 146 q 60 358 60 260 q 95 483 60 435 q 189 544 131 532 l 189 549 q 75 719 75 593 q 134 867 75 814 q 285 919 193 919 q 442 861 382 919 q 501 706 501 803 l 501 682 l 394 682 l 394 694 q 365 795 394 761 q 288 829 336 829 q 212 799 242 829 q 182 713 182 769 q 213 619 182 654 q 297 585 244 585 l 372 585 l 372 496 l 299 496 q 203 461 239 496 q 168 364 168 426 q 201 271 168 303 q 292 239 235 239 q 404 326 383 239 l 388 396 l 493 396 l 588 0 l 482 0 z "},"७":{"ha":717,"x_min":60,"x_max":657,"o":"m 478 746 q 612 673 567 746 q 657 449 657 600 q 577 103 657 222 q 344 -15 497 -15 q 129 91 199 -15 q 60 408 60 197 q 80 631 60 513 q 150 906 100 749 l 265 906 q 165 425 165 636 l 165 388 q 211 151 165 226 q 358 76 257 76 q 546 317 514 76 q 501 314 518 314 q 349 373 406 314 q 293 538 293 432 q 342 690 293 635 q 478 746 390 746 m 551 400 q 553 449 553 415 l 553 483 q 533 612 553 571 q 474 653 514 653 q 417 621 436 653 q 397 533 397 589 q 426 433 397 465 q 514 400 454 400 l 551 400 z "},"८":{"ha":617,"x_min":58,"x_max":563,"o":"m 525 907 q 263 545 358 711 q 168 251 168 379 q 207 124 168 171 q 311 76 246 76 q 409 115 368 76 q 450 229 450 153 l 450 272 l 556 272 q 563 218 563 253 q 498 52 563 119 q 314 -15 433 -15 q 128 52 197 -15 q 58 247 58 119 q 388 907 58 518 l 525 907 z "},"९":{"ha":558,"x_min":60,"x_max":493,"o":"m 194 486 q 271 352 222 417 q 401 197 319 288 q 447 139 432 164 q 461 83 461 114 q 438 0 461 43 l 351 0 q 360 68 360 40 q 353 99 360 86 q 332 129 347 111 q 186 303 240 231 q 96 462 132 375 q 60 647 60 549 q 118 844 60 769 q 286 919 176 919 q 437 865 381 919 q 493 715 493 810 q 423 547 493 610 q 236 485 353 485 q 194 486 210 485 m 282 828 q 194 781 224 828 q 164 649 164 733 q 171 572 164 614 l 243 572 q 351 608 313 572 q 389 707 389 643 q 360 795 389 763 q 282 828 331 828 z "},"*":{"ha":407,"x_min":33,"x_max":372,"o":"m 372 754 l 268 707 l 372 657 l 329 582 l 236 649 l 247 535 l 158 535 l 171 649 l 76 582 l 33 657 l 138 707 l 33 754 l 76 829 l 171 763 l 158 875 l 247 875 l 236 764 l 329 829 l 372 754 z "},"\\":{"ha":292,"x_min":1,"x_max":292,"o":"m 1 939 l 92 939 l 292 -62 l 201 -62 l 1 939 z "},"·":{"ha":292,"x_min":81,"x_max":210,"o":"m 81 510 l 210 510 l 210 368 l 81 368 l 81 510 z "},"•":{"ha":367,"x_min":43,"x_max":324,"o":"m 182 581 q 282 539 240 581 q 324 439 324 497 q 282 338 324 381 q 182 296 240 296 q 84 338 125 296 q 43 439 43 381 q 84 539 43 497 q 182 581 125 581 z "},"‸":{"ha":361,"x_min":14,"x_max":347,"o":"m 181 -99 l 121 -283 l 14 -283 l 136 64 l 225 64 l 347 -283 l 240 -283 l 181 -99 z "},":":{"ha":292,"x_min":82,"x_max":210,"o":"m 82 672 l 210 672 l 210 535 l 82 535 l 82 672 m 82 138 l 210 138 l 210 0 l 82 0 l 82 138 z "},",":{"ha":292,"x_min":82,"x_max":210,"o":"m 82 -158 l 133 0 l 82 0 l 82 138 l 210 138 l 210 11 l 149 -158 l 82 -158 z "},"…":{"ha":1047,"x_min":111,"x_max":935,"o":"m 111 138 l 239 138 l 239 0 l 111 0 l 111 138 m 460 138 l 588 138 l 588 0 l 460 0 l 460 138 m 807 138 l 935 138 l 935 0 l 807 0 l 807 138 z "},"!":{"ha":292,"x_min":76,"x_max":221,"o":"m 221 875 q 206 569 219 861 l 188 218 l 108 218 q 76 875 89 667 l 221 875 m 85 0 l 85 138 l 214 138 l 214 0 l 85 0 z "},"‼":{"ha":582,"x_min":76,"x_max":496,"o":"m 210 660 q 188 218 196 365 l 108 218 q 93 547 104 328 l 76 875 l 221 875 l 210 660 m 496 875 q 474 433 488 728 l 463 218 l 383 218 l 382 249 q 351 875 371 467 l 496 875 m 85 0 l 85 138 l 214 138 l 214 0 l 85 0 m 360 0 l 360 138 l 489 138 l 489 0 l 360 0 z "},"¡":{"ha":349,"x_min":128,"x_max":272,"o":"m 138 535 l 138 672 l 264 672 l 264 535 l 138 535 m 247 271 q 272 -204 268 -164 l 128 -204 q 151 281 138 -44 q 158 454 153 336 l 239 454 l 247 271 z "},"#":{"ha":582,"x_min":11,"x_max":567,"o":"m 567 522 l 468 522 l 424 325 l 514 325 l 514 228 l 401 228 l 351 0 l 254 0 l 304 228 l 190 228 l 139 0 l 42 0 l 94 228 l 11 228 l 11 325 l 115 325 l 158 522 l 61 522 l 61 621 l 181 621 l 240 889 l 336 889 l 278 621 l 392 621 l 453 889 l 549 889 l 490 621 l 567 621 l 567 522 m 326 325 l 369 522 l 256 522 l 213 325 l 326 325 z "},"‾":{"ha":639,"x_min":0,"x_max":640,"o":"m 0 1078 l 640 1078 l 640 1010 l 0 1010 l 0 1078 z "},".":{"ha":292,"x_min":82,"x_max":210,"o":"m 82 138 l 210 138 l 210 0 l 82 0 l 82 138 z "},"?":{"ha":582,"x_min":56,"x_max":522,"o":"m 301 892 q 415 863 364 892 q 494 781 465 833 q 522 664 522 729 q 508 556 522 600 q 475 483 494 511 q 425 422 456 456 q 374 356 390 385 q 357 282 357 326 l 357 229 l 246 229 l 246 301 q 266 395 246 358 q 326 478 286 432 q 386 559 367 524 q 406 650 406 594 q 382 746 406 699 q 292 793 358 793 q 196 740 221 793 q 171 621 171 686 q 172 598 171 607 q 172 586 172 589 l 60 586 q 57 603 58 590 q 56 631 56 617 q 119 817 56 743 q 301 892 183 892 m 238 138 l 364 138 l 364 0 l 238 0 l 238 138 z "},"¿":{"ha":640,"x_min":89,"x_max":556,"o":"m 247 672 l 375 672 l 375 535 l 247 535 l 247 672 m 367 369 q 347 274 367 311 q 286 190 326 236 q 226 109 246 146 q 206 15 206 72 q 231 -75 206 -29 q 325 -121 256 -121 q 417 -68 393 -121 q 440 50 440 -15 q 440 74 440 65 q 439 85 439 82 l 553 85 q 554 67 553 81 q 556 40 556 54 q 494 -148 556 -76 q 317 -219 433 -219 q 153 -158 218 -219 q 89 3 89 -96 q 103 108 89 64 q 135 179 117 151 q 186 242 154 207 q 239 314 222 283 q 256 390 256 344 l 256 442 l 367 442 l 367 369 z "},"\"":{"ha":371,"x_min":47,"x_max":322,"o":"m 125 519 l 75 519 l 47 688 l 47 875 l 151 875 l 151 688 l 125 519 m 293 519 l 244 519 l 217 688 l 217 875 l 322 875 l 322 688 l 293 519 z "},"'":{"ha":201,"x_min":44,"x_max":149,"o":"m 122 519 l 72 519 l 44 688 l 44 875 l 149 875 l 149 688 l 122 519 z "},";":{"ha":292,"x_min":82,"x_max":210,"o":"m 82 672 l 210 672 l 210 535 l 82 535 l 82 672 m 82 -158 l 133 0 l 82 0 l 82 138 l 210 138 l 210 11 l 149 -158 l 82 -158 z "},"/":{"ha":292,"x_min":1,"x_max":292,"o":"m 203 939 l 292 939 l 93 -62 l 1 -62 l 203 939 z "},"_":{"ha":582,"x_min":0,"x_max":581,"o":"m 0 -92 l 581 -92 l 581 -158 l 0 -158 l 0 -92 z "},"‗":{"ha":639,"x_min":29,"x_max":611,"o":"m 29 -92 l 611 -92 l 611 -158 l 29 -158 l 29 -92 m 29 -210 l 611 -210 l 611 -278 l 29 -278 l 29 -210 z "},"{":{"ha":350,"x_min":26,"x_max":325,"o":"m 325 865 q 224 775 224 865 q 222 675 224 718 q 219 603 221 632 l 215 511 q 187 408 213 443 q 103 374 161 374 l 103 361 q 187 326 161 361 q 215 224 213 292 q 218 133 218 163 q 224 -39 224 19 q 253 -110 224 -90 q 325 -131 282 -131 l 325 -204 q 177 -165 231 -204 q 124 -14 124 -125 l 124 238 q 95 295 124 276 q 26 314 67 314 l 26 422 q 95 440 67 422 q 124 499 124 458 l 124 750 q 177 899 124 860 q 325 939 231 939 l 325 865 z "},"}":{"ha":350,"x_min":26,"x_max":325,"o":"m 26 939 q 172 899 119 939 q 225 750 225 860 l 225 499 q 255 440 225 458 q 325 422 285 422 l 325 314 q 255 295 285 314 q 225 238 225 276 l 225 -14 q 172 -165 225 -125 q 26 -204 119 -204 l 26 -131 q 99 -110 69 -131 q 128 -39 128 -90 q 136 224 128 46 q 163 326 138 292 q 247 361 189 361 l 247 374 q 163 408 189 374 q 136 511 138 443 q 128 775 128 692 q 26 865 128 865 l 26 939 z "},"[":{"ha":292,"x_min":63,"x_max":265,"o":"m 158 -122 l 265 -122 l 265 -206 l 63 -206 l 63 939 l 265 939 l 265 856 l 158 856 l 158 -122 z "},"]":{"ha":292,"x_min":26,"x_max":228,"o":"m 26 -122 l 132 -122 l 132 856 l 26 856 l 26 939 l 228 939 l 228 -206 l 26 -206 l 26 -122 z "},"(":{"ha":349,"x_min":50,"x_max":329,"o":"m 329 939 q 206 664 253 815 q 158 369 158 513 q 206 74 158 226 q 329 -201 253 -78 l 260 -201 q 105 66 160 -81 q 50 368 50 213 q 105 672 50 524 q 260 939 160 819 l 329 939 z "},")":{"ha":349,"x_min":19,"x_max":297,"o":"m 88 939 q 243 673 189 821 q 297 368 297 525 q 243 65 297 211 q 88 -201 189 -82 l 19 -201 q 142 74 94 -78 q 189 369 189 226 q 142 665 189 514 q 19 939 94 817 l 88 939 z "},"—":{"ha":1047,"x_min":0,"x_max":1047,"o":"m 0 393 l 1047 393 l 1047 297 l 0 297 l 0 393 z "},"–":{"ha":582,"x_min":0,"x_max":581,"o":"m 0 393 l 581 393 l 581 297 l 0 297 l 0 393 z "},"―":{"ha":1047,"x_min":131,"x_max":913,"o":"m 131 393 l 913 393 l 913 297 l 131 297 l 131 393 z "},"-":{"ha":349,"x_min":13,"x_max":335,"o":"m 13 407 l 335 407 l 335 282 l 13 282 l 13 407 z "},"­":{"ha":349,"x_min":13,"x_max":335,"o":"m 13 282 m 13 407 l 335 407 l 335 282 l 13 282 l 13 407 z "},"«":{"ha":582,"x_min":69,"x_max":533,"o":"m 249 160 l 69 417 l 249 672 l 339 672 l 194 417 l 339 160 l 249 160 m 443 160 l 261 417 l 443 672 l 533 672 l 390 417 l 533 160 l 443 160 z "},"»":{"ha":582,"x_min":49,"x_max":513,"o":"m 49 160 l 192 417 l 49 672 l 139 672 l 321 417 l 139 160 l 49 160 m 243 160 l 388 417 l 243 672 l 333 672 l 513 417 l 333 160 l 243 160 z "},"‹":{"ha":349,"x_min":38,"x_max":308,"o":"m 217 160 l 38 417 l 217 672 l 308 672 l 164 417 l 308 160 l 217 160 z "},"›":{"ha":349,"x_min":40,"x_max":313,"o":"m 40 160 l 185 417 l 40 672 l 132 672 l 313 417 l 132 160 l 40 160 z "},"„":{"ha":349,"x_min":31,"x_max":321,"o":"m 31 -158 l 82 0 l 31 0 l 31 138 l 158 138 l 158 11 l 97 -158 l 31 -158 m 192 -158 l 244 0 l 192 0 l 192 138 l 321 138 l 321 11 l 258 -158 l 192 -158 z "},"“":{"ha":349,"x_min":28,"x_max":318,"o":"m 156 718 l 156 579 l 28 579 l 28 707 l 89 875 l 156 875 l 104 718 l 156 718 m 318 718 l 318 579 l 190 579 l 190 707 l 251 875 l 318 875 l 267 718 l 318 718 z "},"”":{"ha":349,"x_min":31,"x_max":321,"o":"m 31 579 l 82 738 l 31 738 l 31 875 l 158 875 l 158 750 l 97 579 l 31 579 m 192 579 l 244 738 l 192 738 l 192 875 l 321 875 l 321 750 l 258 579 l 192 579 z "},"‘":{"ha":232,"x_min":51,"x_max":181,"o":"m 181 579 l 51 579 l 51 707 l 114 875 l 181 875 l 129 718 l 181 718 l 181 579 z "},"‛":{"ha":232,"x_min":51,"x_max":181,"o":"m 181 579 l 114 579 l 51 750 l 51 875 l 181 875 l 181 738 l 129 738 l 181 579 z "},"’":{"ha":232,"x_min":51,"x_max":181,"o":"m 51 579 l 104 738 l 51 738 l 51 875 l 181 875 l 181 750 l 118 579 l 51 579 z "},"‚":{"ha":232,"x_min":47,"x_max":175,"o":"m 47 -158 l 99 0 l 47 0 l 47 138 l 175 138 l 175 11 l 114 -158 l 47 -158 z "},"ॽ":{"ha":583,"x_min":56,"x_max":522,"o":"m 301 892 q 415 863 364 892 q 494 781 465 833 q 522 664 522 729 q 495 527 522 579 q 418 421 468 475 q 360 346 379 378 q 342 267 342 314 l 342 0 l 231 0 l 231 288 q 253 387 231 346 q 322 479 276 428 q 385 565 364 528 q 406 650 406 601 q 382 746 406 699 q 292 793 358 793 q 196 740 221 793 q 171 621 171 686 q 172 598 171 607 q 172 586 172 589 l 60 586 q 57 603 58 590 q 56 631 56 617 q 119 817 56 743 q 301 892 183 892 z "},"।":{"ha":365,"x_min":131,"x_max":236,"o":"m 236 0 l 131 0 l 131 875 l 236 875 l 236 0 z "},"॥":{"ha":603,"x_min":131,"x_max":474,"o":"m 131 0 m 474 0 l 368 0 l 368 875 l 474 875 l 474 0 m 236 0 l 131 0 l 131 875 l 236 875 l 236 0 z "},"॰":{"ha":586,"x_min":88,"x_max":500,"o":"m 293 890 q 397 863 350 890 q 472 788 444 835 q 500 685 500 740 q 472 580 500 628 q 397 504 444 532 q 293 476 350 476 q 190 504 238 476 q 115 580 143 532 q 88 685 88 628 q 115 788 88 740 q 190 863 143 835 q 293 890 238 890 m 293 807 q 205 771 242 807 q 168 685 168 735 q 205 594 168 632 q 293 557 242 557 q 382 594 346 557 q 418 685 418 632 q 382 771 418 735 q 293 807 346 807 z "},"ॱ":{"ha":349,"x_min":111,"x_max":238,"o":"m 111 915 l 238 915 l 238 778 l 111 778 l 111 915 z "},"꣺":{"ha":265,"x_min":-29,"x_max":294,"o":"m 294 1194 l 174 833 l 93 833 l -29 1194 l 65 1194 l 133 956 l 201 1194 l 294 1194 z "},"ꣻ":{"ha":582,"x_min":0,"x_max":581,"o":"m 0 1128 m 0 1194 l 581 1194 l 581 1128 l 0 1128 l 0 1194 z "}," ":{"ha":292,"x_min":0,"x_max":0,"o":""},"‍":{"ha":0,"x_min":0,"x_max":331,"o":"m 96 1111 l 96 -583 l 0 -583 l 0 1194 l 331 1194 l 331 1111 l 96 1111 z "},"‌":{"ha":0,"x_min":0,"x_max":96,"o":"m 96 -583 l 0 -583 l 0 1194 l 96 1194 l 96 -583 z "},"¢":{"ha":582,"x_min":61,"x_max":519,"o":"m 331 788 q 474 713 429 778 q 519 525 519 647 l 411 525 q 393 644 411 604 q 331 693 375 683 l 331 182 q 397 233 376 192 q 417 351 417 275 l 519 351 q 473 172 519 244 q 331 88 426 99 l 331 -62 l 268 -62 l 268 88 q 112 185 163 100 q 61 438 61 271 q 112 691 61 606 q 268 788 163 776 l 268 924 l 331 924 l 331 788 m 268 690 q 171 463 171 667 l 171 413 q 194 256 171 313 q 268 183 218 199 l 268 690 z "},"¤":{"ha":582,"x_min":-4,"x_max":586,"o":"m 292 753 q 387 733 340 753 q 469 678 433 713 l 525 732 l 586 671 l 522 608 q 568 436 568 528 q 522 265 568 342 l 586 204 l 525 142 l 469 196 q 388 142 433 161 q 292 122 342 122 q 194 142 240 122 q 113 196 149 161 l 58 142 l -4 204 l 60 265 q 14 436 14 342 q 60 608 14 528 l -4 671 l 58 732 l 111 678 q 194 733 147 713 q 292 753 240 753 m 292 664 q 195 633 239 664 q 126 551 151 603 q 101 436 101 499 q 126 324 101 375 q 195 242 151 272 q 292 211 239 211 q 386 242 343 211 q 454 324 429 272 q 479 436 479 375 q 454 551 479 499 q 386 633 429 603 q 292 664 343 664 z "},"$":{"ha":582,"x_min":68,"x_max":511,"o":"m 321 788 q 451 730 404 782 q 499 606 499 678 l 497 581 l 393 581 l 393 592 q 376 660 393 631 q 321 697 358 689 l 321 496 q 419 456 381 476 q 484 397 457 436 q 511 293 511 357 q 460 147 511 197 q 321 88 408 96 l 321 -62 l 258 -62 l 258 88 q 115 151 161 96 q 68 283 68 207 q 69 305 68 299 q 69 313 69 311 l 174 313 l 174 299 q 258 179 174 199 l 258 407 q 167 445 203 425 q 106 503 131 465 q 82 599 82 540 q 128 726 82 676 q 258 788 175 776 l 258 924 l 321 924 l 321 788 m 258 697 q 203 663 219 690 q 188 606 188 636 q 206 555 188 575 q 258 519 224 535 l 258 697 m 321 178 q 382 209 358 183 q 406 279 406 235 q 383 342 406 318 q 321 385 361 365 l 321 178 z "},"€":{"ha":582,"x_min":25,"x_max":544,"o":"m 460 892 q 544 878 504 892 l 544 788 q 475 797 514 797 q 309 739 379 797 q 214 567 239 681 l 471 567 l 471 482 l 203 482 q 201 438 201 468 q 203 393 201 407 l 471 393 l 471 311 l 214 311 q 309 136 239 194 q 475 78 379 78 q 544 88 506 78 l 544 -3 q 460 -15 494 -15 q 224 69 315 -15 q 104 311 132 154 l 25 311 l 25 393 l 96 393 q 94 438 94 407 q 96 482 94 468 l 25 482 l 25 567 l 104 567 q 224 807 132 722 q 460 892 315 892 z "},"ƒ":{"ha":582,"x_min":35,"x_max":535,"o":"m 450 933 q 535 918 497 933 l 525 844 l 468 844 q 421 829 439 844 q 401 785 403 814 l 372 607 l 490 607 l 475 513 l 358 513 l 274 -78 q 226 -192 263 -151 q 117 -232 190 -232 q 72 -228 94 -232 q 35 -217 49 -224 l 43 -144 l 100 -144 q 148 -128 129 -144 q 168 -82 167 -111 l 254 513 l 164 513 l 178 607 l 268 607 l 294 779 q 343 893 307 853 q 450 933 379 933 z "},"₣":{"ha":644,"x_min":76,"x_max":626,"o":"m 592 475 q 503 438 538 475 q 468 317 468 400 l 468 0 l 363 0 l 363 389 l 189 389 l 189 0 l 76 0 l 76 875 l 508 875 l 508 774 l 189 774 l 189 490 l 363 490 l 363 578 l 442 578 l 457 490 l 464 490 q 506 564 478 535 q 578 593 533 593 q 609 589 596 593 q 626 583 622 585 l 626 475 l 592 475 z "},"₤":{"ha":582,"x_min":25,"x_max":528,"o":"m 322 892 q 528 644 528 892 l 528 626 l 424 626 l 424 647 q 322 797 424 797 q 222 657 222 797 l 222 540 l 392 540 l 392 447 l 222 447 l 222 385 l 392 385 l 392 293 l 222 293 l 210 101 l 528 101 l 528 0 l 39 0 l 39 101 l 115 101 l 115 293 l 25 293 l 25 385 l 115 385 l 115 447 l 25 447 l 25 540 l 115 540 l 115 638 q 169 827 115 763 q 322 892 224 892 z "},"₧":{"ha":1217,"x_min":89,"x_max":1183,"o":"m 299 875 q 475 821 408 875 q 556 672 542 767 l 590 672 l 614 858 l 696 858 l 696 672 l 886 672 q 978 688 925 688 q 1120 635 1069 688 q 1171 503 1171 582 l 1169 478 l 1061 478 l 1061 490 q 1040 564 1061 535 q 968 593 1018 593 q 898 566 918 593 q 878 503 878 539 q 908 440 878 461 q 1000 397 938 418 q 1094 358 1057 378 q 1157 297 1131 338 q 1183 192 1183 257 q 1125 36 1183 88 q 969 -15 1067 -15 q 788 67 840 -15 l 788 6 q 752 -8 774 -3 q 711 -12 731 -12 q 619 28 647 -12 q 590 129 590 69 l 590 578 l 557 578 q 477 418 546 478 q 299 358 408 358 l 203 358 l 203 0 l 89 0 l 89 875 l 299 875 m 203 461 l 294 461 q 403 503 363 461 q 443 618 443 546 q 405 732 443 690 q 294 774 367 774 l 203 774 l 203 461 m 696 139 q 750 78 696 78 l 779 78 q 754 182 754 119 l 754 210 l 864 210 l 864 196 q 894 107 864 136 q 974 78 925 78 q 1046 103 1018 78 q 1074 176 1074 129 q 1056 235 1074 213 q 1013 272 1039 258 q 942 301 988 285 q 851 341 885 322 q 792 397 817 360 q 768 496 768 435 q 785 578 768 543 l 696 578 l 696 139 z "},"₹":{"ha":564,"x_min":32,"x_max":506,"o":"m 506 796 l 344 796 q 406 669 394 747 l 506 669 l 506 586 l 408 586 q 333 427 399 490 q 156 358 268 364 l 431 0 l 297 0 l 32 358 l 32 461 l 144 461 q 240 495 201 461 q 290 586 279 529 l 32 586 l 32 669 l 289 669 q 241 761 278 728 q 144 794 204 794 l 32 794 l 32 878 l 506 878 l 506 796 z "},"£":{"ha":582,"x_min":25,"x_max":528,"o":"m 322 892 q 528 644 528 892 l 528 626 l 424 626 l 424 647 q 322 797 424 797 q 222 657 222 797 l 222 479 l 392 479 l 392 389 l 221 389 l 210 101 l 528 101 l 528 0 l 39 0 l 39 101 l 115 101 l 115 389 l 25 389 l 25 479 l 115 479 l 115 638 q 169 827 115 763 q 322 892 224 892 z "},"¥":{"ha":582,"x_min":3,"x_max":578,"o":"m 550 389 l 347 389 l 347 299 l 550 299 l 550 215 l 347 215 l 347 0 l 236 0 l 236 215 l 32 215 l 32 299 l 236 299 l 236 389 l 32 389 l 32 471 l 194 471 l 3 875 l 124 875 l 297 501 l 303 501 l 472 875 l 578 875 l 388 471 l 550 471 l 550 389 z "},"Ω":{"ha":981,"x_min":146,"x_max":835,"o":"m 146 0 m 490 892 q 744 777 654 892 q 835 438 835 663 q 717 103 835 221 q 756 106 731 104 q 803 107 781 107 l 835 107 l 835 0 l 532 0 l 532 78 q 669 175 621 97 q 718 385 718 253 l 718 469 q 658 707 718 626 q 490 788 597 788 q 323 707 383 788 q 263 469 263 626 l 263 390 q 311 177 263 256 q 447 78 360 99 l 447 0 l 146 0 l 146 107 l 178 107 l 218 106 q 263 103 243 103 q 146 438 146 219 q 236 777 146 663 q 490 892 326 892 z "},"≈":{"ha":700,"x_min":44,"x_max":654,"o":"m 654 417 q 632 388 654 413 q 570 343 610 364 q 478 322 531 322 q 419 332 447 322 q 351 361 392 342 q 283 391 313 381 q 221 401 253 401 q 135 380 175 401 q 70 333 96 358 q 44 306 44 308 l 44 426 q 67 455 44 431 q 129 500 90 479 q 221 521 168 521 q 281 511 251 521 q 349 482 310 501 q 416 452 386 463 q 478 442 446 442 q 563 463 524 442 q 628 508 601 483 q 654 536 654 533 l 654 417 m 654 144 q 632 116 654 140 q 570 70 610 92 q 478 49 531 49 q 418 59 447 49 q 351 89 389 69 q 279 119 307 110 q 221 129 251 129 q 135 108 175 129 q 70 63 96 88 q 44 35 44 38 l 44 154 q 67 183 44 158 q 129 228 90 207 q 221 249 168 249 q 281 239 251 249 q 349 210 310 229 q 417 181 388 190 q 478 171 446 171 q 563 192 524 171 q 628 237 601 213 q 654 264 654 261 l 654 144 z "},"~":{"ha":611,"x_min":44,"x_max":567,"o":"m 567 378 q 547 351 567 375 q 494 306 528 326 q 417 285 461 285 q 366 294 390 285 q 307 324 342 304 q 248 353 274 343 q 194 363 222 363 q 122 342 156 363 q 67 297 89 321 q 44 269 44 272 l 44 388 q 64 415 44 390 q 117 459 83 439 q 194 479 150 479 q 245 469 221 479 q 304 440 269 460 q 365 411 342 421 q 417 401 389 401 q 489 422 456 401 q 544 468 522 443 q 567 496 567 493 l 567 378 z "},"∙":{"ha":292,"x_min":81,"x_max":210,"o":"m 81 368 m 81 510 l 210 510 l 210 368 l 81 368 l 81 510 z "},"÷":{"ha":700,"x_min":56,"x_max":644,"o":"m 296 588 l 403 588 l 403 471 l 296 471 l 296 588 m 56 381 l 644 381 l 644 272 l 56 272 l 56 381 m 296 181 l 403 181 l 403 65 l 296 65 l 296 181 z "},"∕":{"ha":119,"x_min":-225,"x_max":386,"o":"m 306 892 l 386 892 l -144 -15 l -225 -15 l 306 892 z "},"=":{"ha":611,"x_min":56,"x_max":556,"o":"m 56 513 l 556 513 l 556 406 l 56 406 l 56 513 m 56 242 l 556 242 l 556 136 l 56 136 l 56 242 z "},"≡":{"ha":611,"x_min":56,"x_max":556,"o":"m 56 658 l 556 658 l 556 551 l 56 551 l 56 658 m 56 388 l 556 388 l 556 281 l 56 281 l 56 388 m 56 115 l 556 115 l 556 8 l 56 8 l 56 115 z "},">":{"ha":611,"x_min":57,"x_max":556,"o":"m 57 6 l 57 119 l 454 325 l 57 529 l 57 644 l 556 392 l 556 256 l 57 6 z "},"≥":{"ha":700,"x_min":100,"x_max":601,"o":"m 101 133 l 101 247 l 499 453 l 101 656 l 101 771 l 601 519 l 601 383 l 101 133 m 100 106 l 600 106 l 600 0 l 100 0 l 100 106 z "},"∆":{"ha":714,"x_min":21,"x_max":699,"o":"m 21 0 m 699 0 l 21 0 l 21 49 l 288 875 l 432 875 l 699 49 l 699 0 m 149 107 l 556 107 l 358 753 l 354 753 l 149 107 z "},"∞":{"ha":910,"x_min":61,"x_max":850,"o":"m 660 578 q 798 522 746 578 q 850 381 850 465 q 799 238 850 294 q 661 182 747 182 q 551 214 599 182 q 456 303 503 246 q 357 214 406 246 q 247 182 308 182 q 112 238 163 182 q 61 381 61 294 q 113 522 61 465 q 249 578 164 578 q 357 545 308 578 q 456 456 406 513 q 551 545 503 513 q 660 578 599 578 m 249 481 q 182 450 210 481 q 154 376 154 419 q 181 303 154 333 q 247 274 208 274 q 320 301 286 274 q 394 381 354 328 q 321 455 356 429 q 249 481 286 481 m 660 481 q 588 455 621 481 q 513 381 554 429 q 588 301 553 329 q 661 274 622 274 q 727 303 700 274 q 754 376 754 333 q 726 450 754 419 q 660 481 699 481 z "},"∫":{"ha":350,"x_min":42,"x_max":318,"o":"m 318 1035 q 207 963 207 1035 q 228 459 213 833 q 243 -37 243 85 q 190 -151 243 -121 q 42 -181 138 -181 l 42 -115 q 122 -99 93 -115 q 150 -42 150 -82 q 130 458 144 86 q 115 953 115 831 q 169 1066 115 1036 q 318 1096 222 1096 l 318 1035 z "},"⌡":{"ha":771,"x_min":239,"x_max":440,"o":"m 424 1096 q 440 -176 440 -26 q 387 -289 440 -258 q 239 -319 333 -319 l 239 -257 q 350 -183 350 -257 q 341 284 347 -69 q 328 1096 335 638 l 424 1096 z "},"⌠":{"ha":771,"x_min":331,"x_max":533,"o":"m 533 1035 q 422 963 422 1035 l 443 -319 l 349 -319 q 331 953 331 725 q 384 1066 331 1036 q 533 1096 438 1096 l 533 1035 z "},"∩":{"ha":922,"x_min":122,"x_max":797,"o":"m 460 864 q 630 820 553 864 q 752 697 707 776 q 797 513 797 617 l 797 0 l 703 0 l 703 504 q 670 649 703 586 q 583 745 638 711 q 460 779 528 779 q 336 745 392 779 q 248 649 281 711 q 215 504 215 586 l 215 0 l 122 0 l 122 513 q 167 697 122 617 q 290 820 213 776 q 460 864 367 864 z "},"<":{"ha":611,"x_min":57,"x_max":556,"o":"m 556 119 l 556 6 l 57 256 l 57 392 l 556 644 l 556 529 l 158 325 l 556 119 z "},"≤":{"ha":700,"x_min":100,"x_max":601,"o":"m 600 247 l 600 133 l 100 383 l 100 519 l 600 771 l 600 656 l 204 453 l 600 247 m 101 106 l 601 106 l 601 0 l 101 0 l 101 106 z "},"¬":{"ha":611,"x_min":49,"x_max":556,"o":"m 447 460 l 49 460 l 49 578 l 556 578 l 556 251 l 447 251 l 447 460 z "},"⌐":{"ha":611,"x_min":49,"x_max":556,"o":"m 157 251 l 49 251 l 49 578 l 556 578 l 556 460 l 157 460 l 157 251 z "},"µ":{"ha":582,"x_min":76,"x_max":506,"o":"m 76 0 m 413 78 l 404 78 q 243 -15 354 -15 q 182 -6 207 -15 l 182 -221 l 76 -221 l 76 672 l 182 672 l 182 182 q 207 101 182 125 q 276 78 232 78 q 365 128 328 78 q 401 261 401 178 l 401 672 l 506 672 l 506 0 l 426 0 l 413 78 z "},"−":{"ha":611,"x_min":56,"x_max":556,"o":"m 56 381 l 556 381 l 556 272 l 56 272 l 56 381 z "},"×":{"ha":611,"x_min":49,"x_max":581,"o":"m 386 325 l 581 133 l 511 58 l 315 249 l 118 58 l 49 133 l 244 325 l 49 519 l 118 594 l 315 401 l 511 594 l 581 519 l 386 325 z "},"≠":{"ha":700,"x_min":104,"x_max":606,"o":"m 606 406 l 435 406 l 351 242 l 606 242 l 606 136 l 297 136 l 246 32 l 168 32 l 219 136 l 104 136 l 104 242 l 274 242 l 357 406 l 104 406 l 104 513 l 411 513 l 465 618 l 543 618 l 490 513 l 606 513 l 606 406 z "},"∟":{"ha":1250,"x_min":225,"x_max":1024,"o":"m 1024 0 l 225 0 l 225 797 l 321 797 l 321 83 l 1024 83 l 1024 0 z "},"∂":{"ha":631,"x_min":72,"x_max":556,"o":"m 283 939 q 419 891 357 939 q 518 742 481 843 q 556 490 556 642 q 483 118 556 251 q 278 -15 411 -15 q 126 64 181 -15 q 72 260 72 143 q 104 426 72 354 q 188 535 136 497 q 300 574 240 574 q 394 545 356 574 q 449 485 433 517 l 456 485 q 457 529 457 493 q 433 693 457 619 q 365 809 408 767 q 269 851 322 851 q 146 807 201 851 l 146 901 q 283 939 208 939 m 317 489 q 248 457 279 489 q 199 372 217 425 q 181 257 181 318 q 208 126 181 175 q 286 78 236 78 q 394 167 350 78 q 446 382 438 257 q 399 456 433 424 q 317 489 364 489 z "},"%":{"ha":931,"x_min":58,"x_max":886,"o":"m 221 892 q 344 840 303 892 q 385 660 385 788 q 344 481 385 532 q 221 431 303 431 q 99 482 139 431 q 58 660 58 533 q 99 840 58 788 q 221 892 139 892 m 158 0 l 693 875 l 785 875 l 249 0 l 158 0 m 221 817 q 162 779 178 817 q 146 671 146 742 l 146 651 q 162 543 146 581 q 221 506 178 506 q 280 543 264 506 q 296 651 296 581 l 296 671 q 280 779 296 742 q 221 817 264 817 m 721 446 q 844 394 803 446 q 886 215 886 342 q 844 36 886 88 q 721 -15 803 -15 q 599 37 640 -15 q 557 215 557 89 q 599 394 557 342 q 721 446 640 446 m 721 369 q 662 333 678 369 q 646 225 646 296 l 646 206 q 662 98 646 135 q 721 61 678 61 q 781 98 765 61 q 797 206 797 135 l 797 225 q 781 333 797 296 q 721 369 765 369 z "},"‰":{"ha":1047,"x_min":44,"x_max":1047,"o":"m 194 892 q 308 838 269 892 q 347 660 347 785 q 309 483 347 535 q 194 431 271 431 q 83 483 121 431 q 44 660 44 536 q 83 838 44 785 q 194 892 121 892 m 578 875 l 657 875 l 174 0 l 94 0 l 578 875 m 194 817 q 147 779 160 817 q 133 671 133 742 l 133 651 q 147 543 133 581 q 194 506 160 506 q 245 543 232 506 q 258 651 258 581 l 258 671 q 245 779 258 742 q 194 817 232 817 m 557 446 q 672 393 633 446 q 710 215 710 340 q 672 37 710 89 q 557 -15 633 -15 q 445 38 483 -15 q 407 215 407 90 q 445 393 407 340 q 557 446 483 446 m 897 446 q 1009 393 971 446 q 1047 215 1047 340 q 1009 38 1047 90 q 897 -15 971 -15 q 784 38 822 -15 q 746 215 746 90 q 784 393 746 340 q 897 446 822 446 m 557 369 q 509 333 522 369 q 496 225 496 296 l 496 206 q 509 98 496 135 q 557 61 522 61 q 608 97 594 61 q 621 206 621 133 l 621 225 q 608 333 621 297 q 557 369 594 369 m 897 369 q 847 333 860 369 q 833 225 833 297 l 833 206 q 847 97 833 133 q 897 61 860 61 q 946 98 932 61 q 960 206 960 135 l 960 225 q 946 333 960 296 q 897 369 932 369 z "},"+":{"ha":611,"x_min":56,"x_max":556,"o":"m 556 272 l 358 272 l 358 0 l 251 0 l 251 272 l 56 272 l 56 381 l 251 381 l 251 653 l 358 653 l 358 381 l 556 381 l 556 272 z "},"±":{"ha":700,"x_min":100,"x_max":600,"o":"m 600 396 l 401 396 l 401 161 l 296 161 l 296 396 l 100 396 l 100 503 l 296 503 l 296 738 l 401 738 l 401 503 l 600 503 l 600 396 m 100 106 l 600 106 l 600 0 l 100 0 l 100 106 z "},"∏":{"ha":1051,"x_min":136,"x_max":915,"o":"m 808 -164 l 707 -164 l 707 821 l 344 821 l 344 -164 l 240 -164 l 240 821 l 136 821 l 136 924 l 915 924 l 915 821 l 808 821 l 808 -164 z "},"√":{"ha":700,"x_min":39,"x_max":699,"o":"m 378 -189 q 233 186 281 61 l 161 374 l 64 335 l 39 413 l 246 500 q 342 238 299 347 q 407 57 399 82 q 435 -39 418 29 l 610 1094 l 699 1094 l 493 -189 l 378 -189 z "},"∑":{"ha":910,"x_min":111,"x_max":844,"o":"m 276 819 l 611 401 l 249 -46 l 249 -50 l 844 -50 l 844 -164 l 111 -164 l 111 -82 l 481 382 l 122 838 l 122 924 l 824 924 l 824 824 l 276 824 l 276 819 z "},"↑":{"ha":639,"x_min":99,"x_max":542,"o":"m 367 676 l 367 -265 l 274 -265 l 274 676 l 99 601 l 99 654 l 306 907 l 333 907 l 542 654 l 542 601 l 367 676 z "},"→":{"ha":1276,"x_min":51,"x_max":1225,"o":"m 974 101 l 918 101 l 994 276 l 51 276 l 51 368 l 994 368 l 918 544 l 974 544 l 1225 335 l 1225 310 l 974 101 z "},"↓":{"ha":639,"x_min":99,"x_max":542,"o":"m 542 -14 l 333 -265 l 306 -265 l 99 -14 l 99 39 l 274 -35 l 274 907 l 367 907 l 367 -35 l 542 39 l 542 -14 z "},"←":{"ha":1276,"x_min":53,"x_max":1226,"o":"m 1226 276 l 285 276 l 358 101 l 304 101 l 53 310 l 53 335 l 304 544 l 358 544 l 285 368 l 1226 368 l 1226 276 z "},"↔":{"ha":1276,"x_min":53,"x_max":1225,"o":"m 974 101 l 918 101 l 994 276 l 292 276 l 358 101 l 304 101 l 53 310 l 53 335 l 304 544 l 358 544 l 292 368 l 994 368 l 918 544 l 974 544 l 1225 335 l 1225 310 l 974 101 z "},"↕":{"ha":639,"x_min":97,"x_max":540,"o":"m 365 671 l 365 -32 l 540 42 l 540 -11 l 332 -262 l 304 -262 l 97 -11 l 97 42 l 272 -32 l 272 671 l 97 603 l 97 656 l 304 908 l 332 908 l 540 656 l 540 603 l 365 671 z "},"↨":{"ha":639,"x_min":96,"x_max":543,"o":"m 365 671 l 365 -32 l 540 42 l 540 -11 l 332 -262 l 304 -262 l 97 -11 l 97 42 l 272 -32 l 272 671 l 97 603 l 97 656 l 304 908 l 332 908 l 540 656 l 540 603 l 365 671 m 96 -325 l 543 -325 l 543 -387 l 96 -387 l 96 -325 z "},"◌":{"ha":633,"x_min":0,"x_max":633,"o":"m 114 547 q 290 619 194 611 l 290 565 q 154 511 210 554 l 114 547 m 479 511 q 344 565 422 554 l 344 619 q 519 547 444 611 l 479 511 m 0 338 q 74 511 8 436 l 113 471 q 56 338 64 415 l 0 338 m 578 338 q 519 472 572 413 l 557 511 q 633 338 622 439 l 578 338 m 71 107 q 0 288 8 181 l 56 288 q 108 147 63 207 l 71 107 m 633 288 q 564 107 625 181 l 522 146 q 578 288 572 211 l 633 288 m 290 -6 q 108 71 193 3 l 144 107 q 290 49 211 54 l 290 -6 m 522 71 q 344 -6 442 3 l 344 49 q 486 107 419 54 l 522 71 z "},"◊":{"ha":714,"x_min":147,"x_max":574,"o":"m 288 0 l 147 438 l 288 875 l 432 875 l 574 438 l 432 0 l 288 0 m 354 753 l 254 438 l 354 124 l 358 124 l 456 438 l 358 753 l 354 753 z "},"|":{"ha":272,"x_min":85,"x_max":186,"o":"m 85 924 l 186 924 l 186 -221 l 85 -221 l 85 924 z "},"¦":{"ha":272,"x_min":85,"x_max":186,"o":"m 85 924 l 186 924 l 186 438 l 85 438 l 85 924 m 85 264 l 186 264 l 186 -221 l 85 -221 l 85 264 z "},"@":{"ha":1061,"x_min":58,"x_max":1004,"o":"m 544 892 q 879 774 754 892 q 1004 410 1004 656 q 967 188 1004 274 q 874 65 929 103 q 763 28 819 28 q 685 49 711 28 q 649 107 658 69 l 644 107 q 580 49 619 69 q 494 28 540 28 q 383 64 432 28 q 335 197 335 100 q 415 358 335 315 q 644 401 494 401 l 644 481 q 623 555 644 529 q 546 581 601 581 q 476 553 497 581 q 454 483 454 525 l 454 469 l 358 469 l 358 496 q 412 622 358 578 q 554 665 465 665 q 692 621 646 665 q 738 494 738 576 l 738 158 q 782 111 738 111 q 886 181 842 111 q 931 411 931 251 q 827 720 931 619 q 544 821 724 821 q 240 698 349 821 q 132 333 132 575 q 224 -11 132 103 q 504 -125 315 -125 q 606 -112 546 -125 q 696 -83 667 -100 l 696 -160 q 604 -185 663 -175 q 504 -194 546 -194 q 174 -65 290 -194 q 58 335 58 65 q 123 655 58 531 q 297 835 188 779 q 544 892 406 892 m 644 318 q 488 294 540 318 q 435 204 435 271 q 455 133 435 154 q 517 111 475 111 q 606 151 567 111 q 644 261 644 190 l 644 318 z "},"&":{"ha":699,"x_min":44,"x_max":682,"o":"m 326 892 q 518 826 444 892 q 592 651 592 760 l 592 628 l 489 628 l 489 640 q 444 757 489 718 q 325 796 400 796 q 215 759 258 796 q 172 644 172 722 q 211 531 172 571 q 306 492 250 492 l 371 492 l 371 399 l 310 399 q 157 243 157 399 q 201 120 157 160 q 325 81 246 81 q 489 244 489 81 l 489 492 l 682 492 l 682 397 l 592 397 l 592 247 q 521 55 592 125 q 317 -15 450 -15 q 119 52 194 -15 q 44 236 44 119 q 80 374 44 319 q 174 449 115 428 l 174 456 q 90 531 119 485 q 61 651 61 578 q 133 828 61 765 q 326 892 206 892 z "},"¶":{"ha":563,"x_min":24,"x_max":535,"o":"m 474 -221 l 390 -221 l 390 797 l 322 797 l 322 -221 l 239 -221 l 239 319 q 128 365 178 326 q 51 465 79 404 q 24 597 24 526 q 56 737 24 674 q 145 838 89 800 q 268 875 201 875 l 535 875 l 535 797 l 474 797 l 474 -221 z "},"℅":{"ha":968,"x_min":61,"x_max":907,"o":"m 228 892 q 341 842 306 892 q 376 692 376 792 l 289 692 q 276 785 289 757 q 228 814 263 814 q 150 658 150 814 l 150 626 q 228 474 150 474 q 277 503 263 474 q 292 594 292 533 l 376 594 q 340 452 376 508 q 228 396 303 396 q 101 456 142 396 q 61 644 61 515 q 102 831 61 771 q 228 892 143 892 m 171 -15 l 700 892 l 781 892 l 250 -15 l 171 -15 m 733 479 q 863 418 819 479 q 907 231 907 357 q 863 45 907 106 q 733 -15 819 -15 q 606 45 649 -15 q 564 231 564 106 q 733 479 564 479 m 733 401 q 651 247 651 401 l 651 215 q 733 61 651 61 q 819 215 819 61 l 819 247 q 733 401 819 401 z "},"©":{"ha":771,"x_min":28,"x_max":744,"o":"m 386 892 q 578 836 497 892 q 701 678 658 781 q 744 438 744 575 q 701 198 744 300 q 578 40 658 96 q 386 -15 497 -15 q 194 40 275 -15 q 71 198 114 96 q 28 438 28 300 q 71 678 28 575 q 194 836 114 781 q 386 892 275 892 m 386 831 q 226 783 294 831 q 122 646 158 735 q 85 438 85 557 q 122 231 85 319 q 226 93 158 142 q 386 44 294 44 q 546 93 478 44 q 650 231 614 142 q 686 438 686 319 q 650 646 686 557 q 546 783 614 735 q 386 831 478 831 m 389 713 q 519 663 469 713 q 568 517 568 613 l 494 517 q 467 613 494 581 q 389 646 439 646 q 292 601 324 646 q 260 465 260 556 l 260 426 q 292 290 260 335 q 389 244 324 244 q 468 276 439 244 q 497 371 497 308 l 568 371 q 519 226 568 275 q 389 178 471 178 q 185 444 185 178 q 389 713 185 713 z "},"®":{"ha":771,"x_min":28,"x_max":744,"o":"m 386 892 q 578 836 497 892 q 701 678 658 781 q 744 438 744 575 q 701 198 744 300 q 578 40 658 96 q 386 -15 497 -15 q 194 40 275 -15 q 71 198 114 96 q 28 438 28 300 q 71 678 28 575 q 194 836 114 781 q 386 892 275 892 m 386 831 q 226 783 294 831 q 122 646 158 735 q 85 438 85 557 q 122 231 85 319 q 226 93 158 142 q 386 44 294 44 q 546 93 478 44 q 650 231 614 142 q 686 438 686 319 q 650 646 686 557 q 546 783 614 735 q 386 831 478 831 m 428 701 q 522 666 485 701 q 558 574 558 631 q 535 497 558 529 q 478 454 513 465 l 478 447 q 529 407 503 439 q 556 313 556 375 q 564 241 556 261 q 590 214 572 221 l 590 192 q 554 185 576 185 q 481 282 481 185 q 456 383 481 353 q 399 413 432 413 l 294 413 l 294 189 l 222 189 l 222 701 l 428 701 m 401 479 q 461 501 439 479 q 483 558 483 524 q 463 615 483 596 q 404 635 442 635 l 294 635 l 294 479 l 401 479 z "},"§":{"ha":582,"x_min":86,"x_max":514,"o":"m 310 892 q 451 839 400 892 q 501 708 501 786 l 501 683 l 392 683 l 392 694 q 369 769 392 739 q 299 799 347 799 q 228 771 249 799 q 208 708 208 743 q 226 637 208 667 q 272 588 244 607 q 344 542 299 568 q 433 483 400 508 q 490 413 467 457 q 514 304 514 369 q 488 204 514 247 q 425 133 463 161 q 481 60 461 101 q 501 -40 501 18 q 447 -181 501 -131 q 292 -232 392 -232 q 151 -179 203 -232 q 100 -49 100 -126 l 101 -25 l 210 -25 l 210 -36 q 231 -110 210 -81 q 303 -140 253 -140 q 372 -112 351 -140 q 393 -49 393 -83 q 375 22 393 -7 q 330 71 357 51 q 257 117 303 90 q 167 175 201 149 q 110 245 133 201 q 86 354 86 289 q 113 455 86 411 q 176 525 139 499 q 120 599 140 557 q 100 699 100 640 q 155 841 100 790 q 310 892 210 892 m 232 483 q 200 442 211 468 q 189 381 189 415 q 208 300 189 333 q 256 244 228 267 q 333 194 285 222 l 368 174 q 413 279 413 208 q 393 360 413 326 q 344 414 374 393 q 264 465 315 435 l 232 483 z "},"™":{"ha":1047,"x_min":103,"x_max":924,"o":"m 310 361 l 243 361 l 243 814 l 103 814 l 103 875 l 447 875 l 447 814 l 310 814 l 310 361 m 857 789 l 853 789 l 739 360 l 679 360 l 568 789 l 564 789 l 564 360 l 503 360 l 503 875 l 604 875 l 711 464 l 717 464 l 824 875 l 924 875 l 924 360 l 857 360 l 857 789 z "},"°":{"ha":511,"x_min":81,"x_max":425,"o":"m 253 892 q 375 842 325 892 q 425 719 425 792 q 375 597 425 647 q 253 546 325 546 q 131 597 181 546 q 81 719 81 647 q 131 842 81 792 q 253 892 181 892 m 253 822 q 179 792 210 822 q 149 719 149 761 q 179 644 149 675 q 253 614 210 614 q 326 644 296 614 q 357 719 357 675 q 326 792 357 761 q 253 822 296 822 z "},"℮":{"ha":765,"x_min":58,"x_max":714,"o":"m 386 688 q 560 641 486 688 q 674 512 635 594 q 714 324 714 429 l 714 317 l 194 317 l 194 106 q 386 39 269 39 q 532 76 469 39 q 628 178 594 113 l 672 150 q 557 28 631 72 q 386 -15 483 -15 q 212 30 286 -15 q 98 154 138 75 q 58 335 58 233 q 98 517 58 438 q 212 642 138 597 q 386 688 286 688 m 386 633 q 194 565 271 633 l 194 369 l 576 369 l 576 564 q 386 633 500 633 z "},"ℓ":{"ha":446,"x_min":51,"x_max":397,"o":"m 182 253 q 213 116 182 160 q 293 72 243 72 q 382 111 343 72 l 382 17 q 278 -15 333 -15 q 142 48 185 -15 q 96 215 99 111 l 96 233 q 74 213 88 225 q 51 192 61 201 l 51 281 q 94 325 65 293 l 94 649 q 144 869 94 800 q 264 939 193 939 q 363 885 329 939 q 397 743 397 831 q 182 301 397 538 l 182 253 m 182 406 q 325 744 325 596 q 265 857 325 857 q 206 807 231 857 q 182 649 182 757 l 182 406 z "},"№":{"ha":1124,"x_min":82,"x_max":1075,"o":"m 903 892 q 1032 830 989 892 q 1075 640 1075 768 q 1032 451 1075 513 q 903 389 989 389 q 774 451 817 389 q 731 640 731 513 q 774 830 731 768 q 903 892 817 892 m 567 0 l 238 557 q 206 622 224 581 q 182 676 188 663 l 178 675 q 180 626 178 661 q 182 557 182 590 l 182 0 l 82 0 l 82 875 l 179 875 l 504 325 q 533 263 515 304 q 557 208 551 222 l 563 210 q 559 260 561 224 q 557 325 557 296 l 557 875 l 658 875 l 658 0 l 567 0 m 903 811 q 822 656 822 811 l 822 622 q 842 507 822 546 q 903 468 863 468 q 983 622 983 468 l 983 656 q 903 811 983 811 m 746 258 l 746 336 l 1061 336 l 1061 258 l 746 258 z "},"^":{"ha":492,"x_min":6,"x_max":490,"o":"m 247 778 l 119 375 l 6 375 l 179 875 l 315 875 l 490 375 l 375 375 l 247 778 z "}}}
